<svg xmlns="http://www.w3.org/2000/svg" width="30" height="30" viewBox="0 0 30 30">
  <path id="bl-calender" d="M54.6,33.592a1.027,1.027,0,0,0-1.113.911v1.816h3.333V34.5a1.027,1.027,0,0,0-1.113-.911Zm20,0a1.027,1.027,0,0,0-1.113.911v1.816h3.333V34.5a1.027,1.027,0,0,0-1.113-.911ZM50.154,39.046v2.727h30V39.046h-30Zm0,5.455V63.592h30V44.5Zm3.333,2.727h3.333v2.727H53.487Zm6.667,0h3.333v2.727H60.154Zm6.667,0h3.333v2.727H66.821Zm6.667,0h3.333v2.727H73.487Zm-20,5.455h3.333V55.41H53.487Zm6.667,0h3.333V55.41H60.154Zm6.667,0h3.333V55.41H66.821Zm6.667,0h3.333V55.41H73.487Zm-20,5.455h3.333v2.727H53.487Zm6.667,0h3.333v2.727H60.154Zm6.667,0h3.333v2.727H66.821Z" transform="translate(-50.154 -33.592)" fill="#b7278b"/>
</svg>
