<svg xmlns="http://www.w3.org/2000/svg" width="34.787" height="33.065" viewBox="0 0 34.787 33.065">
  <g id="bl-home" transform="translate(0 -12.675)">
    <g id="Group_948" data-name="Group 948" transform="translate(0 12.675)">
      <g id="Group_947" data-name="Group 947">
        <path id="Path_6976" data-name="Path 6976" d="M34.2,27.366,18.6,13.144a1.776,1.776,0,0,0-2.4,0L.584,27.366a1.784,1.784,0,0,0,1.2,3.1H4.279V44.717A1.023,1.023,0,0,0,5.3,45.74h8.555a1.023,1.023,0,0,0,1.023-1.023V36.066h5.028v8.652a1.023,1.023,0,0,0,1.023,1.023h8.555a1.023,1.023,0,0,0,1.023-1.023V30.468H33a1.784,1.784,0,0,0,1.2-3.1Z" transform="translate(0 -12.675)" fill="#25282a"/>
      </g>
    </g>
    <g id="Group_950" data-name="Group 950" transform="translate(23.371 14.718)">
      <g id="Group_949" data-name="Group 949">
        <path id="Path_6977" data-name="Path 6977" d="M350.843,42.73h-6.87l7.893,7.177V43.753A1.023,1.023,0,0,0,350.843,42.73Z" transform="translate(-343.973 -42.73)" fill="#25282a"/>
      </g>
    </g>
  </g>
</svg>
