<svg xmlns="http://www.w3.org/2000/svg" width="949.91" height="734.685" viewBox="0 0 949.91 734.685">
  <g id="undraw_connection_b38q" transform="translate(0 0)">
    <path id="Path_175" data-name="Path 175" d="M547.64,621.406a260.144,260.144,0,1,1,183.95-76.194A260.144,260.144,0,0,1,547.64,621.406Zm0-518.595c-142.51,0-258.45,115.94-258.45,258.45s115.94,258.45,258.45,258.45,258.45-115.94,258.45-258.45-115.94-258.45-258.45-258.45Z" transform="translate(-77.346 -29.406)" fill="#3f3d56"/>
    <path id="Path_176" data-name="Path 176" d="M615.56,674.8c-4.817,17.808-21.318,28.837-21.318,28.837s-8.69-17.844-3.873-35.652,21.318-28.837,21.318-28.837S620.377,656.992,615.56,674.8Z" transform="translate(-123.353 -111.526)" fill="#6c63ff"/>
    <path id="Path_177" data-name="Path 177" d="M568.379,674.8c4.817,17.808,21.318,28.837,21.318,28.837s8.69-17.844,3.873-35.652-21.318-28.837-21.318-28.837S563.562,656.992,568.379,674.8Z" transform="translate(-119.997 -111.526)" fill="#6c63ff"/>
    <path id="Path_178" data-name="Path 178" d="M571.045,674.192c13.219,12.868,14.833,32.649,14.833,32.649s-19.818-1.082-33.037-13.95-14.834-32.65-14.834-32.65S557.826,661.324,571.045,674.192Z" transform="translate(-115.584 -114.745)" fill="#3f3d56"/>
    <path id="Path_179" data-name="Path 179" d="M609.333,674.192c-13.219,12.868-14.833,32.649-14.833,32.649s19.818-1.082,33.037-13.95,14.834-32.65,14.834-32.65S622.552,661.324,609.333,674.192Z" transform="translate(-124.206 -114.745)" fill="#3f3d56"/>
    <path id="Path_180" data-name="Path 180" d="M568.379,130.985c4.817-17.808,21.318-28.837,21.318-28.837s8.69,17.844,3.873,35.652-21.318,28.837-21.318,28.837S563.562,148.794,568.379,130.985Z" transform="translate(-119.997 -29.567)" fill="#6c63ff"/>
    <path id="Path_181" data-name="Path 181" d="M615.56,130.985c-4.817-17.808-21.318-28.837-21.318-28.837s-8.69,17.844-3.873,35.652,21.318,28.837,21.318,28.837S620.377,148.794,615.56,130.985Z" transform="translate(-123.353 -29.567)" fill="#6c63ff"/>
    <path id="Path_182" data-name="Path 182" d="M609.333,134.815c-13.219-12.868-14.833-32.649-14.833-32.649s19.818,1.082,33.037,13.95,14.834,32.65,14.834,32.65S622.552,147.684,609.333,134.815Z" transform="translate(-124.206 -29.57)" fill="#3f3d56"/>
    <path id="Path_183" data-name="Path 183" d="M571.045,134.815c13.219-12.868,14.833-32.649,14.833-32.649s-19.818,1.082-33.037,13.95-14.834,32.65-14.834,32.65S557.826,147.684,571.045,134.815Z" transform="translate(-115.584 -29.57)" fill="#3f3d56"/>
    <rect id="Rectangle_40" data-name="Rectangle 40" width="336.794" height="342.482" transform="translate(12.395 10.742)" fill="#6c63ff"/>
    <path id="Path_184" data-name="Path 184" d="M339.964,22.935H22.935V343.608H39.94V41.155H339.964Z" transform="translate(-3.5 -3.5)" fill="#3f3d56"/>
    <path id="Path_185" data-name="Path 185" d="M339.964,22.935H22.935V343.608H39.94V41.155H339.964Z" transform="translate(-3.5 -3.5)" opacity="0.3"/>
    <path id="Path_186" data-name="Path 186" d="M294.44,44.437H43V88.165H281.079V346.89h61.948V44.437Z" transform="translate(-6.563 -6.782)" opacity="0.1"/>
    <path id="Path_187" data-name="Path 187" d="M39.5,16.495V376.037H395.4V16.495ZM375.964,356.6H58.935V35.93H375.964Z" transform="translate(-39.5 -16.495)" fill="#3f3d56"/>
    <path id="Path_188" data-name="Path 188" d="M331.17,456.438s16.093,31.181,25.146,38.221-14.584,15.59-14.584,15.59L314.071,467Z" transform="translate(-81.406 -83.64)" fill="#a0616a"/>
    <path id="Path_189" data-name="Path 189" d="M213.5,366.821s74.934,19.614,81.472,32.689,26.654,44.759,26.654,44.759L291.95,467.906l-29.169-43.753-80.466-36.21Z" transform="translate(-61.297 -69.963)" fill="#2f2e41"/>
    <path id="Path_190" data-name="Path 190" d="M340.666,503.5s-7.041-6.035-9.052-2.012-8.047,24.643-8.047,24.643,8.549,8.047,26.151,3.018c0,0,4.526-3.52,11.567,0s33.192-3.52,32.186-15.087-27.66-10.561-27.66-10.561-11.227-12.578-12.654-7.8.584,5.283.584,5.283S344.69,510.545,340.666,503.5Z" transform="translate(-82.855 -89.468)" fill="#2f2e41"/>
    <path id="Path_191" data-name="Path 191" d="M241.352,492.641l-5.029,42.245h24.643s-2.012-32.689-1.509-36.713S241.352,492.641,241.352,492.641Z" transform="translate(-69.54 -89.166)" fill="#a0616a"/>
    <path id="Path_192" data-name="Path 192" d="M257.246,382.845s13.579,20.116,5.532,21.625-14.584-21.625-14.584-21.625Z" transform="translate(-71.351 -72.408)" fill="#a0616a"/>
    <path id="Path_193" data-name="Path 193" d="M137.6,379.746s-10.058,29.672,29.672,37.718,51.8,14.584,51.8,14.584l5.029,51.3,34.7,2.012s16.6-77.951-5.029-88.009-67.39-21.625-67.39-21.625Z" transform="translate(-54.299 -71.321)" fill="#2f2e41"/>
    <path id="Path_194" data-name="Path 194" d="M237.527,532.488s7.041-3.52,8.047-3.52c0,0,4.42-10.2,12.52-9.121l17.655,25.718s26.654,19.111,8.047,24.14-33.192,1.006-33.192,1.006l-7.544-5.532s1.006-5.532-5.532-4.526c0,0-13.579-5.532-13.076-9.555s11.185-21.536,11.185-21.536Z" transform="translate(-67.726 -93.306)" fill="#2f2e41"/>
    <circle id="Ellipse_20" data-name="Ellipse 20" cx="20.116" cy="20.116" r="20.116" transform="translate(153.959 170.376)" fill="#a0616a"/>
    <path id="Path_195" data-name="Path 195" d="M221.672,233.878s-18.1,13.076-21.625,13.579,16.6,25.146,16.6,25.146,9.555-15.59,15.59-17.6S221.672,233.878,221.672,233.878Z" transform="translate(-63.94 -49.672)" fill="#a0616a"/>
    <path id="Path_196" data-name="Path 196" d="M198.281,251.651s-7.544-10.058-12.07-10.058-45.262,4.526-48.783,38.221-1.509,92.536-1.509,92.536S132.9,357.766,166.6,363.8c0,0,40.233-8.55,47.274-8.55s10.058-71.917,10.058-71.917l-11.451-17.754S207.333,275.289,198.281,251.651Z" transform="translate(-54.129 -50.85)" fill="#d0cde1"/>
    <path id="Path_197" data-name="Path 197" d="M229.986,286.105l7.544,4.023,9.052,55.32,12.573,28.666s-13.579-4.675-14.584.932l-20.116-29.095Z" transform="translate(-67.728 -57.643)" fill="#d0cde1"/>
    <path id="Path_198" data-name="Path 198" d="M236.749,218.528l10.944,1.367c-.209,2.227-.151,4.986,1.822,6.039.928.5,2.1.47,2.927,1.125,1.977,1.577.043,4.967,1.16,7.237l3.2.847a6.187,6.187,0,0,0,8.407,2.522c2.151-1.292,3.247-3.759,4.215-6.074,1.156-2.765,2.336-5.736,1.757-8.677-.622-3.16-3.2-5.785-3.32-9-.052-1.44.252-3.234-.962-4.01a5.131,5.131,0,0,0-1.775-.471c-2.8-.584-4.353-3.478-6.438-5.43-4.369-4.091-11.08-3.983-17.055-3.627a15.148,15.148,0,0,0-5.019.875,14.623,14.623,0,0,0-4.729,3.771,49.4,49.4,0,0,0-8.438,11.178c-2.114,4.181-3.155,9.066-2.006,13.607-.113-.437,3.69-3.3,4.163-3.755a9.86,9.86,0,0,0,2.426-3.783C229.905,218.406,232.513,218,236.749,218.528Z" transform="translate(-67.196 -44.535)" fill="#2f2e41"/>
    <path id="Path_199" data-name="Path 199" d="M162.1,281.777l1.509,35.2,22.37,26.234-20.358-29.251Z" transform="translate(-24.741 -43.006)" opacity="0.1"/>
    <path id="Path_200" data-name="Path 200" d="M114.625,293.054l17.6,40.736L154.858,352.4l-24.14-16.6Z" transform="translate(-17.494 -44.727)" opacity="0.1"/>
    <path id="Path_201" data-name="Path 201" d="M263.723,348.456l10.636,7.316a2.937,2.937,0,0,1,.813,3.613l-1.422,2.935.329.227-1.616,3.335-.329-.227-11.715,24.176a2.268,2.268,0,0,1-3.375,1.078l-9.995-6.875a3.377,3.377,0,0,1-.934-4.154L260.9,349.356a1.894,1.894,0,0,1,2.819-.9Z" transform="translate(-70.98 -67.111)" fill="#3f3d56"/>
    <path id="Path_202" data-name="Path 202" d="M207.976,363.237l11.447,7.875,14.933-30.817-11.448-7.875Z" transform="translate(-31.742 -50.735)" fill="#fff"/>
    <path id="Path_203" data-name="Path 203" d="M240.09,377.276s19.949,13.824,13,18.148-21.433-14.865-21.433-14.865Z" transform="translate(-68.827 -71.558)" fill="#a0616a"/>
    <path id="Path_204" data-name="Path 204" d="M168.035,256.431s-26.151,7.544-18.608,30.678c1.82,5.581,4.02,11.571,6.311,17.448,7.207,18.488,15.314,35.861,15.314,35.861l22.731,20.553,30.578,8.616,3.52-3.018s1.006-9.555-3.52-10.561-11.567-5.029-11.567-5.029l-18.1-26.654S194.186,257.939,168.035,256.431Z" transform="translate(-56.069 -53.115)" fill="#d0cde1"/>
    <rect id="Rectangle_41" data-name="Rectangle 41" width="328.775" height="334.327" transform="translate(937.809 599.444) rotate(180)" fill="#6c63ff"/>
    <path id="Path_205" data-name="Path 205" d="M733.389,322.881h309.48V635.919h-16.6V340.667H733.389Z" transform="translate(-111.932 -49.279)" fill="#3f3d56"/>
    <path id="Path_206" data-name="Path 206" d="M733.389,322.881h309.48V635.919h-16.6V340.667H733.389Z" transform="translate(-111.932 -49.279)" opacity="0.3"/>
    <path id="Path_207" data-name="Path 207" d="M780.819,343.871h245.449v42.687H793.862V639.123H733.389V343.871Z" transform="translate(-111.932 -52.483)" opacity="0.1"/>
    <path id="Path_208" data-name="Path 208" d="M750.5,316.987V667.968h347.425V316.987Zm18.972,18.972h309.481V649H769.472Z" transform="translate(-148.015 -62.357)" fill="#3f3d56"/>
    <path id="Path_209" data-name="Path 209" d="M979.677,509.872c-7.481-12.641-22.282-13.23-22.282-13.23S942.972,494.8,933.72,514.05C925.1,532,913.194,549.322,931.8,553.522l3.361-10.462,2.082,11.241a72.807,72.807,0,0,0,7.962.136c19.929-.643,38.909.188,38.3-6.963C982.695,537.967,986.876,522.036,979.677,509.872Z" transform="translate(-174.182 -89.769)" fill="#2f2e41"/>
    <path id="Path_210" data-name="Path 210" d="M886.655,615.036l-1.574,28.331,46.169,4.722,1.574-29.38-15.74-9.968Z" transform="translate(-135.084 -92.908)" fill="#a0616a"/>
    <path id="Path_211" data-name="Path 211" d="M1043.519,697.9c-1.385-13.384-56.35-19.459-69.56-20.728l-4.939-2.881L967.446,657.5s-48.792-4.2-52.464-4.722-6.82,6.3-6.82,7.87c0,1.138-.686,9.261-3.443,14.075-5.953,4.783-24.1,19.833-24.1,25.535,0,6.82,14.428,92.6,14.428,92.6L896.62,810.7l14.69,2.623-1.049-55.612s5.246-32-2.1-40.922v-3.672S929.7,707.5,937.3,701.392c2.2-.473,8.383-1.638,11.8-.625.468.276,1.008.559,1.608.847a2.47,2.47,0,0,1,.217.222l.059-.091c9.822,4.6,35.018,10.4,45.322,8.747a36.061,36.061,0,0,1,23.084,4.2c-5.771,7.345-1.574,28.331-1.574,28.331l.525,45.119,7.345,8.919h9.968V772.4S1045.1,713.116,1043.519,697.9Z" transform="translate(-167.874 -113.603)" fill="#2f2e41"/>
    <circle id="Ellipse_21" data-name="Ellipse 21" cx="17.313" cy="17.313" r="17.313" transform="translate(761.277 420.086)" fill="#a0616a"/>
    <path id="Path_212" data-name="Path 212" d="M943.484,545.676s2.623,11.542-1.049,12.591a49.644,49.644,0,0,0-8.394,3.672l-4.2,13.641v13.641l50.891,5.771,1.574-4.722v-6.82l-5.771-10.493-2.623-2.623s-11.542-12.591-8.919-24.658Z" transform="translate(-175.387 -97.26)" fill="#a0616a"/>
    <path id="Path_213" data-name="Path 213" d="M997.229,594.9s1.574,18.362,0,26.757-1.049,20.986-1.049,20.986l-11.542-2.1V612.211L987.261,597Z" transform="translate(-183.75 -104.772)" fill="#a0616a"/>
    <circle id="Ellipse_22" data-name="Ellipse 22" cx="10.702" cy="10.702" r="10.702" transform="translate(774.322 396.235)" fill="#2f2e41"/>
    <path id="Path_214" data-name="Path 214" d="M951.552,491.475a10.7,10.7,0,0,1,9.575-10.642,10.7,10.7,0,1,0,0,21.284,10.7,10.7,0,0,1-9.575-10.642Z" transform="translate(-178.356 -87.354)" fill="#2f2e41"/>
    <path id="Path_215" data-name="Path 215" d="M939.648,492.951l-14.622-7.659-20.194,3.134-4.177,18.452,10.4-.4,2.906-6.779v6.667l4.8-.185,2.785-10.793,1.74,11.49,17.06-.348Z" transform="translate(-137.461 -74.067)" fill="#2f2e41"/>
    <path id="Path_216" data-name="Path 216" d="M911.916,818.356s7.445,3.5,9.634,4.817,10.948-1.314,9.2,6.569-9.2,15.327-9.2,15.327-3.5,3.941-3.5,6.569-8.759,22.772-19.269,21.9-8.759-11.386-8.759-11.386l2.19-11.386s4.379-19.269,5.255-18.831,3.066,3.5,3.066,3.5A19.425,19.425,0,0,0,911.916,818.356Z" transform="translate(-169.292 -138.877)" fill="#d0cde1"/>
    <path id="Path_217" data-name="Path 217" d="M1041.3,802.877s-7.445,3.5-9.634,4.817-10.948-1.314-9.2,6.569,9.2,15.327,9.2,15.327,3.5,3.941,3.5,6.569,8.759,22.772,19.269,21.9,8.759-11.386,8.759-11.386L1061,835.284s-4.379-19.269-5.255-18.831-3.066,3.5-3.066,3.5A19.43,19.43,0,0,1,1041.3,802.877Z" transform="translate(-189.488 -136.515)" fill="#d0cde1"/>
    <path id="Path_218" data-name="Path 218" d="M973.277,653.9V649.74h-.925v-1.851a3.238,3.238,0,0,0-3.238-3.238h-11.1a3.238,3.238,0,0,0-3.238,3.238v31a3.238,3.238,0,0,0,3.238,3.238h11.1a3.238,3.238,0,0,0,3.238-3.238V659.455h.925v-4.164h-.925V653.9Z" transform="translate(-179.192 -112.366)" fill="#d0cde1"/>
    <circle id="Ellipse_23" data-name="Ellipse 23" cx="1.851" cy="1.851" r="1.851" transform="translate(782.982 539.687)" fill="#3f3d56"/>
    <path id="Path_219" data-name="Path 219" d="M909.115,584.372,899.671,623.2a10.937,10.937,0,0,0,4.722,13.641c8.394,5.246,27.281,12.067,27.281,12.067s16.789,23.084,18.887,13.641-12.591-21.51-12.591-21.51L912.263,624.77l9.968-27.281Z" transform="translate(-170.66 -103.166)" fill="#a0616a"/>
    <path id="Path_220" data-name="Path 220" d="M988.293,641.945s7.87-1.049,7.345,7.87-11.018,9.968-11.018,9.968-4.722,19.936-11.542,16.264,3.672-23.609,3.672-23.609l8.919-6.82Z" transform="translate(-181.634 -111.947)" fill="#a0616a"/>
    <path id="Path_221" data-name="Path 221" d="M928.391,577.23l8.394-17.313L920,565.688s-9.444,4.722-9.968,15.739S922.1,598.215,922.1,598.215s2.1,15.739,1.049,17.838,0,10.493,0,10.493,20.2-5.509,30.167,1.312,18.1,2.886,18.1,2.886-.525-13.116,3.672-15.215,7.87-12.067,4.2-18.362c0,0,8.394,1.049,7.87-6.82s-4.722-14.69-11.542-17.838-7.574-3.651-7.574-3.651l9.673,17.816v4.722s-17.124-10.93-34.065-11.841a22.565,22.565,0,0,0-15.251,5.02h0Z" transform="translate(-172.36 -99.433)" fill="#2f2e41"/>
  </g>
</svg>
