<svg xmlns="http://www.w3.org/2000/svg" width="343.956" height="756.552" viewBox="0 0 343.956 756.552">
  <g id="Group_1016" data-name="Group 1016" transform="translate(-1408 -209.043)">
    <g id="Group_446" data-name="Group 446" transform="translate(1592 272)">
      <g id="mh-icon" transform="translate(-37 78)">
        <path id="Path_3569" data-name="Path 3569" d="M94.379,68.019a3.129,3.129,0,0,1-2.719,1.517H81.482l-3.35,13.338c-2.4,9.609-9.482,11.631-17.953,11.947H50.571v9.9a3.13,3.13,0,0,1-3.161,3.161H15.8a3.13,3.13,0,0,1-3.161-3.161V70.737A41.087,41.087,0,0,1,41.089,0,46.5,46.5,0,0,1,46.967.38,41.371,41.371,0,0,1,82.178,42.354l12.263,22.5a3.3,3.3,0,0,1-.063,3.161Zm0,0" transform="translate(0 0)" fill="#7b1e5f"/>
        <path id="Path_3570" data-name="Path 3570" d="M248.29,68.019a3.129,3.129,0,0,1-2.719,1.517H235.393l-3.35,13.338c-2.4,9.609-9.482,11.631-17.953,11.947h-9.609v9.9a3.13,3.13,0,0,1-3.161,3.161H195V0a46.5,46.5,0,0,1,5.879.379,41.371,41.371,0,0,1,35.211,41.974l12.263,22.5a3.3,3.3,0,0,1-.063,3.161Zm0,0" transform="translate(-153.911 0)" fill="#c25ca3"/>
        <path id="Path_3571" data-name="Path 3571" d="M111.352,105a16.414,16.414,0,0,0-11.062,4.235A16.417,16.417,0,0,0,89.227,105,13.864,13.864,0,0,0,75,119.1c0,7.017,4.993,11.062,10.24,15.424,4.109,3.351,8.787,7.207,12.327,13.212a3.194,3.194,0,0,0,5.437,0c3.54-6.005,8.218-9.862,12.327-13.212,5.247-4.362,10.241-8.407,10.241-15.424A13.865,13.865,0,0,0,111.352,105Zm0,0" transform="translate(-59.2 -82.875)" fill="#fff"/>
        <path id="Path_3572" data-name="Path 3572" d="M220.29,119.1c0,7.017-4.994,11.062-10.241,15.424-4.109,3.351-8.787,7.207-12.327,13.212A3.129,3.129,0,0,1,195,149.25V109.235A16.414,16.414,0,0,1,206.066,105a13.865,13.865,0,0,1,14.223,14.1Zm0,0" transform="translate(-153.914 -82.875)" fill="#f02"/>
      </g>
    </g>
    <g id="Man_Head_Silhouette" transform="translate(1381.351 182.562)" opacity="0.2">
      <g id="Group_564" data-name="Group 564" transform="translate(26.649 26.481)">
        <g id="Group_563" data-name="Group 563" transform="translate(38.777)">
          <g id="Group_562" data-name="Group 562">
            <g id="Group_447" data-name="Group 447" transform="translate(213.16 256.59)">
              <path id="Path_3573" data-name="Path 3573" d="M797.8,592.385a33.929,33.929,0,0,1-1.2,11.878c-3.393,12.6,1.831,17.75,4.847,13.366,2.3-3.335-.61-2.1-1.776-4.724a9.957,9.957,0,0,1-.008-6.753c.879-1.939,2.983-2.688,4.331-.339,1.485,2.587,1.8,8.886-.585,13.275-4.671,8.593-15.115,3.971-13.456-8.835,1.008-7.764,6.427-7.485,6.119-17.556Zm-3.53-6.175c-3.114-4.789.769-13.616,3.9-8.8C801.324,582.262,797.343,590.937,794.268,586.211Z" transform="translate(-789.775 -576.017)" fill="#e717bb"/>
            </g>
            <g id="Group_448" data-name="Group 448" transform="translate(69.077 34.692)">
              <path id="Path_3574" data-name="Path 3574" d="M290.078,111.159a6.649,6.649,0,0,1-2.274,3.336c-3.124,2.391-2.183,6.946-.48,7.108,1.3.124.126-1.034.148-2.546.014-.9.464-2.1,1.061-2.269s1.424.714,1.506,2.231c.091,1.672-.8,3.956-2.288,4.136-2.921.353-5.7-6.852-3.121-10.249,1.562-2.059,3.335.969,4.819-2.576Zm-.211-3.982c-.29-3.292,2.4-4.151,2.7-.84C292.856,109.673,290.153,110.427,289.866,107.177Z" transform="translate(-283.611 -104.24)" fill="#1391a9"/>
            </g>
            <g id="Group_449" data-name="Group 449" transform="translate(30.94 133.949)">
              <path id="Path_3575" data-name="Path 3575" d="M173.88,338.316a46.312,46.312,0,0,1-2.121,16.414c-5.209,17.141,1.884,25,6.257,19.274,3.328-4.355-.772-3-2.3-6.82-.912-2.278-1.049-6.842.244-9.42s4.263-3.362,6.054.088c1.974,3.8,2.175,12.629-1.318,18.442-6.841,11.381-21.235,3.577-18.436-14.071,1.7-10.7,9.248-9.607,9.2-23.695Zm-4.691-9.072c-4.163-7.085,1.586-18.893,5.774-11.768C179.182,324.651,173.3,336.236,169.189,329.244Z" transform="translate(-161.904 -315.27)" fill="#053f45"/>
            </g>
            <g id="Group_450" data-name="Group 450" transform="translate(78.561 201.733)">
              <path id="Path_3576" data-name="Path 3576" d="M329.753,490.09a29.146,29.146,0,0,1-3.281-11.372c-1.716-14.691-7.919-12.509-8.85-5.127-.709,5.618,1.263.99,3.181,1.733,1.144.443,2.472,2.922,2.439,5.611s-1.515,5.93-3.483,5.643c-2.169-.315-4.7-5.169-4.295-11.775.793-12.935,11.152-22.014,14.384-9.3,1.958,7.711-2.654,14.185,1.23,22.188Zm5.163.771c4.318.133,4.265,12.285-.077,12.153C330.465,502.882,330.654,490.733,334.916,490.861Z" transform="translate(-315.421 -459.387)" fill="#716bc1"/>
            </g>
            <g id="Group_451" data-name="Group 451" transform="translate(138.833 133.176)">
              <path id="Path_3577" data-name="Path 3577" d="M532.878,349.716c1.595-5.363,3.281-8.336,5.921-10.958,8.527-8.772,5.014-21.247.105-20.667-3.735.441-.175,3.04.03,7.39.122,2.6-.955,6.291-2.636,7.156s-4.21-1.17-4.716-5.469c-.558-4.737,1.575-11.826,5.819-13.26,8.309-2.808,17.551,16.138,10.779,27.456-4.107,6.86-9.733-.727-13.352,10.344ZM534.195,361c1.42,9.259-6.146,13.375-7.575,4.063C525.181,355.684,532.792,351.861,534.195,361Z" transform="translate(-526.44 -313.627)" fill="#e7c779"/>
            </g>
            <g id="Group_452" data-name="Group 452" transform="translate(35.387 72.554)">
              <path id="Path_3578" data-name="Path 3578" d="M182.15,192.824a2.787,2.787,0,0,1,2.287-1.279c2.784-.078,2.807-4.1,1.529-5.176-.972-.822-.265.722-.53,1.868-.158.684-.7,1.345-1.184,1.143a2.611,2.611,0,0,1-.79-2.555c.2-1.332,1.256-2.584,2.429-1.885,2.3,1.369,3.245,8.446.717,9.6-1.533.7-2.4-2.614-4.113-.731Zm-.489,3.17c-.316,2.685-2.519,1.832-2.2-.869C179.779,192.4,181.973,193.343,181.661,195.994Z" transform="translate(-179.428 -184.739)" fill="#9b7193"/>
            </g>
            <g id="Group_453" data-name="Group 453" transform="translate(183.084 278.224)">
              <path id="Path_3579" data-name="Path 3579" d="M692.43,630.912a12.477,12.477,0,0,1-2.049,5.279c-3.207,4.7-1.3,9.423.713,8.565,1.53-.652-.039-1.28-.283-3.054a4.405,4.405,0,0,1,.829-3.293c.667-.572,1.785-.046,2.152,1.67.4,1.89-.219,5.092-1.922,6.219-3.335,2.207-7.853-4.469-5.466-10.005,1.448-3.355,4.054-.924,5.146-5.96Zm-.958-4.5c-.926-3.653,2.053-6.307,2.986-2.634C695.4,627.475,692.387,630.014,691.472,626.409Z" transform="translate(-685.735 -622.013)" fill="#754bc7"/>
            </g>
            <g id="Group_454" data-name="Group 454" transform="translate(79.782 66.238)">
              <path id="Path_3580" data-name="Path 3580" d="M330.236,179.986a3.86,3.86,0,0,1-3.63-1.392c-3.828-3.712-5.463,1.737-4.152,4.963,1,2.455.65-.62,1.468-1.821a1.174,1.174,0,0,1,2.071.065,5.471,5.471,0,0,1,.057,4.567c-.81,1.537-2.745,1.8-4.065-.761-2.585-5.015-1.054-15.97,2.856-14.082,2.37,1.146,2.226,6.853,5.318,6.638Zm1.932-3.652c1.5-3.229,4.167.958,2.656,4.206C333.3,183.812,330.685,179.522,332.168,176.334Z" transform="translate(-320.708 -171.309)" fill="#9d3109"/>
            </g>
            <g id="Group_455" data-name="Group 455" transform="translate(200.633 311.922)">
              <path id="Path_3581" data-name="Path 3581" d="M755.915,712.769a36.09,36.09,0,0,1-2.372,13.146c-4.927,13.328.571,20.7,4.371,16.6,2.892-3.119-.515-2.56-1.617-5.886-.658-1.985-.592-5.737.565-7.674s3.618-2.182,4.95.88c1.468,3.374,1.29,10.622-1.794,14.912-6.038,8.4-17.512.1-14.537-13.97,1.805-8.527,7.939-6.627,8.446-18.159Zm-3.485-8.047c-3.131-6.351,2.031-15.245,5.181-8.858C760.783,702.3,755.521,710.99,752.43,704.722Z" transform="translate(-744.997 -693.659)" fill="#b3df7b"/>
            </g>
            <g id="Group_456" data-name="Group 456" transform="translate(234.913 318.142)">
              <path id="Path_3582" data-name="Path 3582" d="M855.289,714.32c2.128,1.689,3.363,3.661,4.532,6.89,3.89,10.409,8.339,5,7.78-1.3-.425-4.8-1.156-.015-2.777.552-.968.339-2.432-.8-2.874-2.91s.148-5.52,1.729-6.473c1.743-1.05,4.557,1.215,5.391,6.6,1.632,10.541-4.851,23.8-9.578,15.832-2.865-4.831-.4-12.626-4.816-16.534Zm-4.152,2.484c-3.383,2.477-5.456-7.013-2.054-9.505C852.511,704.789,854.476,714.358,851.137,716.8Z" transform="translate(-847.343 -706.884)" fill="#4b89a7"/>
            </g>
            <g id="Group_457" data-name="Group 457" transform="translate(110.628 7.696)">
              <path id="Path_3583" data-name="Path 3583" d="M432.775,57.483a4.939,4.939,0,0,1,2.32-2.6c3.05-1.544,2.462-5.974.893-6.493-1.194-.4-.182.932-.3,2.331-.069.835-.562,1.844-1.128,1.877s-1.277-.97-1.258-2.4c.021-1.571.988-3.5,2.383-3.344,2.733.3,4.855,7.589,2.252,10.185-1.579,1.573-3.034-1.619-4.634,1.349Zm-.055,3.741c.062,3.118-2.491,3.333-2.554.2C430.1,58.262,432.659,58.146,432.721,61.224Z" transform="translate(-430.165 -46.844)" fill="#a9d1bd"/>
            </g>
            <g id="Group_458" data-name="Group 458" transform="translate(230.037 113.007)">
              <path id="Path_3584" data-name="Path 3584" d="M853.909,310.232a37.82,37.82,0,0,1,3.411-14.311c6.292-14.018.532-23.375-3.97-19.508-3.426,2.941.434,2.978,1.483,6.929.626,2.359.341,6.563-1.07,8.514s-4.19,1.747-5.512-1.953c-1.458-4.077-.847-12.188,2.862-16.407,7.262-8.262,19.684,3.3,15.543,18.531-2.512,9.23-9.3,5.9-10.521,18.76Zm3.46,9.722c3.158,7.747-3.147,16.736-6.324,8.945C847.845,321.052,854.251,312.308,857.37,319.954Z" transform="translate(-847.52 -270.745)" fill="#278b11"/>
            </g>
            <g id="Group_459" data-name="Group 459" transform="translate(235.191 291.904)">
              <path id="Path_3585" data-name="Path 3585" d="M872.813,657.232a14.349,14.349,0,0,1,.56,5.031c-.241,5.972,2.262,6.438,3.068,3.814.614-2-.422-.643-1.109-1.329a3.573,3.573,0,0,1-.589-2.655c.177-1.025.941-1.948,1.675-1.425.809.575,1.48,2.96.922,5.4-1.092,4.775-5.6,6.072-6.062.537-.277-3.356,1.879-4.862.884-8.734Zm-1.925-1.377c-1.641-.956-.88-5.587.771-4.626S872.508,656.8,870.888,655.854Z" transform="translate(-869.974 -651.098)" fill="#efdd6d"/>
            </g>
            <g id="Group_460" data-name="Group 460" transform="translate(82.13 285.641)">
              <path id="Path_3586" data-name="Path 3586" d="M332.279,646.8a3.565,3.565,0,0,1,2.233-1.869c2.826-.771,2.559-4.862,1.181-5.644-1.048-.595-.217.8-.4,2.031-.111.735-.613,1.541-1.121,1.456s-1.088-1.127-.988-2.4c.111-1.4,1.091-2.939,2.334-2.519,2.434.822,3.91,7.785,1.423,9.589-1.508,1.093-2.627-2.064-4.236.276Zm-.268,3.344c-.127,2.809-2.43,2.488-2.3-.338C329.837,646.961,332.136,647.372,332.011,650.144Z" transform="translate(-329.704 -637.783)" fill="#33190d"/>
            </g>
            <g id="Group_461" data-name="Group 461" transform="translate(228.253 268.376)">
              <path id="Path_3587" data-name="Path 3587" d="M850.905,612.147a8.861,8.861,0,0,1-1.712-3.869c-1.251-5.351-3.523-3.653-3.577-.712-.041,2.237.521.2,1.281.214.454.009,1.06.766,1.157,1.794s-.335,2.469-1.1,2.635c-.838.183-2-1.309-2.114-3.88-.225-5.034,3.348-9.939,5.1-5.552,1.059,2.661-.432,5.77,1.372,8.273Zm2-.428c1.649-.553,2.124,4.079.466,4.636S851.274,612.266,852.9,611.719Z" transform="translate(-844.834 -601.076)" fill="#8737c9"/>
            </g>
            <g id="Group_462" data-name="Group 462" transform="translate(195.115 61.765)">
              <path id="Path_3588" data-name="Path 3588" d="M731.672,165.943A5.815,5.815,0,0,1,734.765,169c2.94,5.258,5.206,1.122,4.48-2.452-.553-2.72-.679.242-1.593.927-.546.409-1.477.061-1.869-1.081s-.262-3.269.6-4.171c.955-.995,2.749-.278,3.578,2.7,1.624,5.826-1.339,15.008-4.614,11.365-1.985-2.21-1.034-7.316-3.87-8.648Zm-2.278,2.359c-1.827,2.188-3.643-2.926-1.805-5.127C729.439,160.958,731.2,166.142,729.394,168.3Z" transform="translate(-726.823 -161.8)" fill="#a5b3ab"/>
            </g>
            <g id="Group_463" data-name="Group 463" transform="translate(193.833 106.931)">
              <path id="Path_3589" data-name="Path 3589" d="M728.036,274.344a18.314,18.314,0,0,1,.466-6.353c1.619-6.844-1.223-9.316-2.759-6.846-1.169,1.879.353,1.081,1.009,2.416a5.262,5.262,0,0,1,.1,3.577c-.438,1.071-1.543,1.57-2.29.392-.824-1.3-1.08-4.621.121-7.063,2.353-4.782,7.953-2.844,7.256,4.024-.423,4.163-3.3,4.281-2.993,9.6Zm1.958,3.1c1.718,2.386-.213,7.253-1.942,4.853C726.312,279.881,728.3,275.089,729.995,277.443Z" transform="translate(-723.863 -257.828)" fill="#7b5971"/>
            </g>
            <g id="Group_464" data-name="Group 464" transform="translate(195.729 258.82)">
              <path id="Path_3590" data-name="Path 3590" d="M737.648,609.854a32.984,32.984,0,0,1-.158-11.318c1.775-12.779-3.555-15.594-5.854-10.483-1.75,3.89.781,1.7,2.127,3.682a8.853,8.853,0,0,1,.722,6.183c-.6,2.1-2.449,3.546-3.932,1.885-1.634-1.83-2.589-7.486-.868-12.374,3.37-9.569,13.427-9.131,13.261,3.2-.1,7.479-5.1,9.192-3.749,18.306Zm3.887,4.374c3.359,3.256.736,12.752-2.643,9.479C735.488,620.41,738.218,611.016,741.535,614.228Z" transform="translate(-728.772 -580.76)" fill="#8341fb"/>
            </g>
            <g id="Group_465" data-name="Group 465" transform="translate(109.399 240.914)">
              <path id="Path_3591" data-name="Path 3591" d="M438.351,582.8a43.8,43.8,0,0,1-2.006-15.482c.422-18.542-7.355-19.521-9.71-11.241-1.792,6.3,1.343,1.913,3.508,3.909,1.292,1.191,2.461,4.92,1.97,8.112-.494,3.209-2.808,6.208-5.11,4.728-2.538-1.63-4.745-8.892-3.149-16.549,3.124-14.994,17.026-19.851,18.747-2.793,1.041,10.343-5.557,15.411-2.264,27.217Zm6.037,3.906c5.135,2.654,3.028,17.142-2.137,14.473C437.048,598.489,439.319,584.085,444.388,586.7Z" transform="translate(-423.313 -542.69)" fill="#9b13bd"/>
            </g>
            <g id="Group_466" data-name="Group 466" transform="translate(95.845 246.986)">
              <path id="Path_3592" data-name="Path 3592" d="M384.023,573.081a40.726,40.726,0,0,1,1.181,14.146c-1.116,16.555,5.813,18.5,8.252,11.4,1.857-5.4-1.127-1.9-2.987-3.982-1.11-1.245-2.009-4.745-1.442-7.538s2.763-5.178,4.767-3.537c2.209,1.808,3.9,8.616,2.163,15.258-3.4,13.007-16.045,15.458-16.908-.061-.521-9.409,5.592-13.048,3.112-24.076Zm-5.254-4.325c-4.5-3.08-2.031-15.772,2.491-12.676C385.815,559.2,383.207,571.794,378.769,568.756Z" transform="translate(-376.389 -555.597)" fill="#e33707"/>
            </g>
            <g id="Group_467" data-name="Group 467" transform="translate(0 165.636)">
              <path id="Path_3593" data-name="Path 3593" d="M59.261,402.16c-2.977-.009-4.976-1.19-7.237-3.918-7.436-8.682-11.229,1.872-8.854,8.808,1.808,5.279,1.372-1.062,3.136-3.248,1.053-1.305,3.1-1.33,4.193.757s1.327,6.671-.285,9.278c-1.777,2.872-5.723,2.822-8.175-2.77-4.8-10.949-.733-32.7,7.027-27.689,4.7,3.04,3.911,14.567,10.2,15.065Zm4.238-6.821c3.33-6.094,8.365,3.2,5.016,9.329C65.142,410.843,60.212,401.356,63.5,395.339Z" transform="translate(-39.973 -382.64)" fill="#490d07"/>
            </g>
            <g id="Group_468" data-name="Group 468" transform="translate(217.693 160.793)">
              <path id="Path_3594" data-name="Path 3594" d="M813.393,383.347a21.454,21.454,0,0,1-1.193,7.7c-2.666,7.927.609,11.931,2.749,9.388,1.628-1.936-.332-1.455-1.013-3.325a6.55,6.55,0,0,1,.223-4.459c.646-1.178,2.06-1.428,2.871.278a10.451,10.451,0,0,1-.835,8.7c-3.374,5.131-10.114.867-8.585-7.4.928-5.009,4.5-4.2,4.634-10.88Zm-2.122-4.487c-1.894-3.523.967-8.9,2.873-5.357C816.063,377.072,813.141,382.337,811.271,378.86Z" transform="translate(-807.386 -372.343)" fill="#97c369"/>
            </g>
            <g id="Group_469" data-name="Group 469" transform="translate(136.191 150.901)">
              <path id="Path_3595" data-name="Path 3595" d="M526.876,356.934a3.442,3.442,0,0,1-2.549,1.706c-3.152.4-3.046,4.955-1.564,6.035,1.128.823.277-.847.539-2.175.157-.793.747-1.6,1.3-1.428s1.148,1.416.978,2.806c-.188,1.532-1.339,3.068-2.69,2.407-2.645-1.293-3.951-9.205-1.125-10.8,1.714-.966,2.8,2.693,4.683.368Zm.451-3.645c.27-3.077,2.795-2.357,2.523.738C529.576,357.145,527.06,356.327,527.326,353.289Z" transform="translate(-520.181 -351.311)" fill="#ab7761"/>
            </g>
            <g id="Group_470" data-name="Group 470" transform="translate(2.518 225.675)">
              <path id="Path_3596" data-name="Path 3596" d="M67.179,527.918c-1.881,4.287-3.636,6.423-6.208,7.964-8.332,5.246-6.3,17.37-1.887,18.318,3.355.722.419-2.647.615-6.57.116-2.342,1.394-5.3,2.961-5.568s3.636,2.294,3.713,6.262c.085,4.372-2.425,10.031-6.317,10.039-7.621.016-14.183-19.56-7.188-27.591,4.242-4.866,8.578,3.547,12.752-5.2Zm-.19-10.411c-.457-8.643,6.617-10.043,7.078-1.35C74.531,524.913,67.442,526.038,66.989,517.506Z" transform="translate(-49.896 -510.289)" fill="#0307eb"/>
            </g>
            <g id="Group_471" data-name="Group 471" transform="translate(92.504 131.366)">
              <path id="Path_3597" data-name="Path 3597" d="M383.286,330c-2.131,4.935-4.128,7.409-7.062,9.214-9.5,6.141-7.116,19.976-2.068,20.986,3.841.769.467-3.035.671-7.526.122-2.68,1.568-6.087,3.36-6.419s4.171,2.562,4.278,7.1c.119,5-2.724,11.515-7.176,11.59-8.717.147-16.319-22.135-8.358-31.439,4.829-5.638,9.83,3.913,14.561-6.167Zm-.268-11.906c-.565-9.88,7.52-11.6,8.089-1.663C391.681,326.44,383.577,327.846,383.018,318.094Z" transform="translate(-363.577 -309.778)" fill="#b3a19d"/>
            </g>
            <g id="Group_472" data-name="Group 472" transform="translate(71.462 132.553)">
              <path id="Path_3598" data-name="Path 3598" d="M297.07,327.421c1.788-1.535,3.165-1.861,4.933-1.393,5.769,1.363,6.456-6.933,3.986-9.866-1.88-2.232-.663,1.347-1.393,3.572-.435,1.328-1.657,2.4-2.63,1.715s-1.8-3.317-1.226-5.715c.634-2.642,3.009-4.654,5.322-2.567,4.529,4.087,5.364,19.24-.047,20.25-3.281.61-4.54-6.717-8.388-3.764Zm-1.516,6.286c-1.081,5.379-5.5,2.408-4.415-3C292.234,325.254,296.62,328.4,295.554,333.708Z" transform="translate(-290.969 -312.302)" fill="#b16f85"/>
            </g>
            <g id="Group_473" data-name="Group 473" transform="translate(205.192 201.082)">
              <path id="Path_3599" data-name="Path 3599" d="M767.688,465.874c2.9,1.44,4.686,3.551,6.51,7.3,6.037,12.039,11.212,3.57,9.866-4.335-1.025-6.016-1.486.376-3.513,1.661-1.21.767-3.2-.19-3.983-2.753s-.361-7.143,1.576-8.91c2.134-1.947,5.976,0,7.584,6.629,3.149,12.983-3.857,32.237-10.725,23.624-4.163-5.225-1.776-16.083-7.838-19.59Zm-5.087,4.615c-4.1,4.342-7.71-7.139-3.587-11.508C763.167,454.581,766.647,466.2,762.6,470.489Z" transform="translate(-757.194 -458.003)" fill="#d1eb65"/>
            </g>
            <g id="Group_474" data-name="Group 474" transform="translate(218.93 314.997)">
              <path id="Path_3600" data-name="Path 3600" d="M817.317,706.437a10.225,10.225,0,0,1-1.128,4c-1.954,3.81-.393,6.7.942,5.752,1.016-.725-.094-.872-.355-2.046a3.4,3.4,0,0,1,.4-2.411c.428-.514,1.223-.355,1.566.756a5.287,5.287,0,0,1-.991,4.618c-2.173,2.12-5.628-1.644-4.281-5.878.817-2.566,2.734-1.37,3.218-5.026Zm-.9-2.918c-.829-2.339,1.077-4.7,1.911-2.35C819.172,703.539,817.24,705.828,816.421,703.519Z" transform="translate(-813.161 -700.196)" fill="#a385bb"/>
            </g>
            <g id="Group_475" data-name="Group 475" transform="translate(116.04 109.712)">
              <path id="Path_3601" data-name="Path 3601" d="M455.7,273.444a5.81,5.81,0,0,1-2.243-2.959c-2-4.646-3.995-1.848-3.624,1.072.282,2.222.542-.062,1.292-.424.448-.216,1.154.229,1.4,1.192s.027,2.6-.7,3.137c-.8.6-2.157-.3-2.641-2.771-.948-4.843,1.86-11.443,4.214-7.992,1.427,2.094.408,5.893,2.544,7.462Zm1.9-1.412c1.543-1.363,2.679,2.961,1.127,4.332S456.084,273.378,457.607,272.032Z" transform="translate(-448.998 -263.74)" fill="#cba1d5"/>
            </g>
            <g id="Group_476" data-name="Group 476" transform="translate(6.459 311.921)">
              <path id="Path_3602" data-name="Path 3602" d="M70.565,703.933a3.628,3.628,0,0,1,3.957.065c4.424,2.419,5.528-3.915,3.794-6.79-1.319-2.188-.611.9-1.334,2.47-.432.938-1.461,1.49-2.176.727a5.519,5.519,0,0,1-.57-4.761c.676-1.92,2.674-2.938,4.342-.762,3.267,4.261,2.887,16.321-1.418,15.844-2.61-.292-3.1-6.323-6.31-4.913ZM68.949,708.5c-1.213,3.958-4.471.6-3.252-3.386C66.926,701.1,70.146,704.591,68.949,708.5Z" transform="translate(-65.429 -693.656)" fill="#9bf961"/>
            </g>
            <g id="Group_477" data-name="Group 477" transform="translate(167.68 313.161)">
              <path id="Path_3603" data-name="Path 3603" d="M634.732,703.5a2.908,2.908,0,0,1,3.06.558c3.334,2.44,4.425-2.322,3.19-4.769-.94-1.863-.506.617-1.125,1.741-.369.671-1.187.966-1.712.283a4.447,4.447,0,0,1-.263-3.759c.6-1.4,2.179-1.932,3.389-.033,2.37,3.717,1.625,13-1.689,12.082-2.009-.56-2.161-5.291-4.7-4.612Zm-1.421,3.327c-1.087,2.909-3.483-.112-2.391-3.038C632.021,700.845,634.384,703.958,633.311,706.83Z" transform="translate(-630.642 -696.294)" fill="#8f0f15"/>
            </g>
            <g id="Group_478" data-name="Group 478" transform="translate(249.205 285.159)">
              <path id="Path_3604" data-name="Path 3604" d="M906.866,639.364a4.711,4.711,0,0,1,1.933,2.419c1.749,3.857,3.4,1.412,3.056-1.046-.264-1.871-.458.073-1.089.408-.377.2-.979-.15-1.2-.956a3.021,3.021,0,0,1,.556-2.683c.669-.535,1.829.17,2.267,2.245.857,4.064-1.448,9.76-3.479,6.927-1.231-1.718-.411-4.974-2.237-6.221Zm-1.6,1.268c-1.291,1.213-2.3-2.4-1-3.625S906.545,639.434,905.27,640.632Z" transform="translate(-903.663 -636.758)" fill="#bb4567"/>
            </g>
            <g id="Group_479" data-name="Group 479" transform="translate(147.545 325.701)">
              <path id="Path_3605" data-name="Path 3605" d="M573.914,740.374c-2.725.1-4.567-.908-6.666-3.324-6.9-7.677-10.258,2.121-8.011,8.383,1.71,4.766,1.244-1.022,2.836-3.087.95-1.233,2.819-1.329,3.846.54a10.2,10.2,0,0,1-.163,8.5c-1.6,2.693-5.208,2.79-7.511-2.239-4.509-9.847-1.016-29.9,6.14-25.6,4.338,2.611,3.733,13.19,9.493,13.418Zm3.807-6.4c2.984-5.7,7.69,2.625,4.69,8.357C579.388,748.107,574.776,739.6,577.72,733.976Z" transform="translate(-556.229 -722.955)" fill="#a93767"/>
            </g>
            <g id="Group_480" data-name="Group 480" transform="translate(32.327 255.095)">
              <path id="Path_3606" data-name="Path 3606" d="M173.914,584.876a28.022,28.022,0,0,1,1.965,10.238c.436,12.641,5.753,12.263,7.028,6.328.971-4.516-.986-1.118-2.533-2.183-.924-.635-1.862-3.009-1.653-5.242s1.664-4.589,3.284-3.893c1.786.767,3.567,5.4,2.783,10.81-1.535,10.594-10.781,15.753-12.614,4.407-1.11-6.88,3.17-11.2.475-18.775Zm-4.25-1.842c-3.589-1.113-2.723-11.228.886-10.109C174.186,574.051,173.207,584.131,169.664,583.034Z" transform="translate(-167.368 -572.839)" fill="#6b7519"/>
            </g>
            <g id="Group_481" data-name="Group 481" transform="translate(277.449 166.012)">
              <path id="Path_3607" data-name="Path 3607" d="M1020.665,388.2a2.889,2.889,0,0,1-2.171,1.421c-2.678.306-2.6,4.176-1.347,5.109.956.711.238-.716.465-1.841.135-.672.639-1.353,1.112-1.2s.971,1.215.822,2.394c-.164,1.3-1.147,2.591-2.292,2.016-2.243-1.127-3.327-7.861-.922-9.185,1.458-.8,2.37,2.317,3.976.363Zm.4-3.091c.239-2.611,2.381-1.972,2.141.654C1022.959,388.405,1020.825,387.683,1021.061,385.106Z" transform="translate(-1014.971 -383.44)" fill="#bfc15d"/>
            </g>
            <g id="Group_482" data-name="Group 482" transform="translate(89.266 41.332)">
              <path id="Path_3608" data-name="Path 3608" d="M361.73,128.107a5.4,5.4,0,0,1-2.489-2.815c-2.3-4.63-4.294-1.4-3.784,1.635.388,2.308.57-.14,1.347-.627.464-.291,1.228.082,1.524,1.065a3.9,3.9,0,0,1-.611,3.41c-.819.74-2.29-.016-2.9-2.561-1.2-4.984,1.5-12.345,4.129-9.025,1.591,2.014.668,6.169,2.989,7.529Zm1.953-1.755c1.575-1.653,2.949,2.757,1.366,4.42S362.129,127.985,363.683,126.352Z" transform="translate(-354.524 -118.358)" fill="#27fbb9"/>
            </g>
            <g id="Group_483" data-name="Group 483" transform="translate(65.456 94.442)">
              <path id="Path_3609" data-name="Path 3609" d="M277.218,256.282c2.347-3.018,4.27-4.119,6.858-4.267,8.424-.717,8.29-12.884,4.368-15.932-2.985-2.32-.766,2.23-1.509,5.745-.444,2.1-2.044,4.192-3.526,3.664s-3.018-3.906-2.519-7.6c.55-4.067,3.673-8.037,7.257-6.124,7.018,3.746,10.247,25.006,2.654,28.946-4.6,2.386-7.387-7.5-12.487-1.5Zm-1.32,9.678c-.821,8.183-7.534,5.979-6.709-2.251C270.018,255.419,276.706,257.882,275.9,265.96Z" transform="translate(-269.118 -231.275)" fill="#337feb"/>
            </g>
            <g id="Group_484" data-name="Group 484" transform="translate(90.825 297.368)">
              <path id="Path_3610" data-name="Path 3610" d="M368.1,675.238c3.113.424,5.156,1.935,7.411,5.1,7.426,10.114,11.821-.4,9.617-7.982-1.677-5.772-1.478.92-3.412,2.961-1.155,1.219-3.291.961-4.355-1.374s-1.118-7.162.674-9.664c1.974-2.757,6.1-2.156,8.438,4.034,4.577,12.119-.556,34.3-8.47,27.983-4.8-3.833-3.5-15.779-10.057-17.174Zm-4.709,6.546c-3.73,5.91-8.62-4.509-4.869-10.455C362.3,665.339,367.075,675.947,363.394,681.783Z" transform="translate(-357.179 -662.715)" fill="#713d69"/>
            </g>
            <g id="Group_485" data-name="Group 485" transform="translate(240.975 179.262)">
              <path id="Path_3611" data-name="Path 3611" d="M883.884,452.908a46.813,46.813,0,0,1-.258-16.066c2.483-18.161-5.093-22.1-8.342-14.824-2.473,5.54,1.114,2.4,3.031,5.205,1.144,1.672,1.884,5.8,1.043,8.771-.846,2.982-3.466,5.06-5.576,2.716-2.326-2.582-3.7-10.6-1.268-17.558,4.757-13.62,19.036-13.1,18.836,4.415-.123,10.619-7.208,13.1-5.269,26.027Zm5.531,6.17c4.779,4.588,1.083,18.1-3.724,13.484C880.848,467.916,884.7,454.552,889.415,459.078Z" transform="translate(-871.232 -411.61)" fill="#b76703"/>
            </g>
            <g id="Group_486" data-name="Group 486" transform="translate(2.74 201.973)">
              <path id="Path_3612" data-name="Path 3612" d="M55.26,469.89a21.494,21.494,0,0,1-.466,7.434c-1.8,8.056,1.542,10.82,3.3,7.873,1.341-2.243-.426-1.247-1.207-2.777a6.124,6.124,0,0,1-.161-4.171c.5-1.268,1.781-1.9,2.668-.554.977,1.481,1.317,5.347-.055,8.247-2.687,5.68-9.246,3.654-8.517-4.39.443-4.877,3.8-5.134,3.375-11.332Zm-2.323-3.534c-2.035-2.712.16-8.473,2.207-5.746C57.2,463.356,54.945,469.031,52.936,466.356Z" transform="translate(-50.769 -459.895)" fill="#07b57f"/>
            </g>
            <g id="Group_487" data-name="Group 487" transform="translate(58.77 306.983)">
              <path id="Path_3613" data-name="Path 3613" d="M257.562,724.7a46.688,46.688,0,0,1,.649-16.078c3.5-17.636-3.834-23.039-7.486-16.406-2.78,5.047.975,2.615,2.73,5.781a13.079,13.079,0,0,1,.545,8.952c-1.012,2.811-3.743,4.376-5.716,1.628-2.175-3.027-3.091-11.294-.275-17.763,5.514-12.666,19.73-9.378,18.543,8.056-.722,10.57-7.93,11.674-6.725,24.945Zm5.17,7.228c4.509,5.5.059,18.264-4.476,12.73C253.687,739.088,258.28,726.5,262.732,731.931Z" transform="translate(-246.248 -683.158)" fill="#a1750b"/>
            </g>
            <g id="Group_488" data-name="Group 488" transform="translate(62.216 238.848)">
              <path id="Path_3614" data-name="Path 3614" d="M267.666,546.824c2.749,1.776,4.391,4.053,6.009,7.917,5.369,12.436,10.7,4.938,9.7-2.88-.758-5.95-1.451.167-3.459,1.139-1.2.58-3.089-.61-3.743-3.188s-.073-6.951,1.867-8.4c2.138-1.6,5.775.792,7.073,7.413,2.542,12.965-4.973,30.642-11.277,21.407-3.821-5.6-1.1-15.779-6.818-19.972Zm-5.094,3.785c-4.13,3.652-7.175-7.922-3.022-11.6C263.733,535.311,266.648,547,262.572,550.609Z" transform="translate(-257.569 -538.297)" fill="#7d1711"/>
            </g>
            <g id="Group_489" data-name="Group 489" transform="translate(26.321 91.728)">
              <path id="Path_3615" data-name="Path 3615" d="M151.467,231.706c2.13,1.221,3.421,2.881,4.716,5.757,4.293,9.249,8.262,3.24,7.384-2.7-.668-4.516-1.108.2-2.631,1.046-.909.5-2.374-.31-2.912-2.252s-.158-5.318,1.306-6.526c1.613-1.332,4.432.314,5.524,5.317,2.137,9.8-3.357,23.709-8.318,16.958-3.007-4.1-1.071-12.024-5.513-14.945Zm-3.844,3.155c-3.108,3-5.609-5.7-2.484-8.725C148.287,223.091,150.69,231.893,147.623,234.861Z" transform="translate(-143.702 -225.504)" fill="#df0f27"/>
            </g>
            <g id="Group_490" data-name="Group 490" transform="translate(263.178 181.616)">
              <path id="Path_3616" data-name="Path 3616" d="M962.213,438.846a16.108,16.108,0,0,1,3.224-7.135c4.844-6.087,2.385-13.2-.532-12.365-2.22.633-.017,1.835.231,4.414.148,1.54-.39,3.855-1.37,4.538s-2.55-.283-2.977-2.8c-.47-2.776.6-7.225,3.1-8.5,4.886-2.5,10.956,7.91,7.233,15.346-2.258,4.507-5.839.528-7.683,7.5Zm1.112,6.615c1.115,5.394-3.289,8.6-4.411,3.178C957.784,443.174,962.224,440.137,963.325,445.461Z" transform="translate(-958.732 -416.615)" fill="#db6749"/>
            </g>
            <g id="Group_491" data-name="Group 491" transform="translate(165.32 99.864)">
              <path id="Path_3617" data-name="Path 3617" d="M626.316,270.316c1.955-3.733,3.7-5.469,6.177-6.52,8.049-3.646,6.678-15.329,2.585-16.893-3.115-1.19-.511,2.419-.869,6.068-.213,2.179-1.543,4.759-3.026,4.77s-3.308-2.708-3.2-6.441c.115-4.114,2.721-9.037,6.372-8.45,7.149,1.151,12.432,20.516,5.513,26.979-4.2,3.915-7.888-4.639-12.193,2.93Zm-.285,9.794c.044,8.177-6.654,8.407-6.7.182C619.286,272.009,625.985,272.038,626.03,280.11Z" transform="translate(-619.331 -242.802)" fill="#795139"/>
            </g>
            <g id="Group_492" data-name="Group 492" transform="translate(244.017 242.035)">
              <path id="Path_3618" data-name="Path 3618" d="M899.907,582.431a36.817,36.817,0,0,1-3.536-14c-1.548-17.787-9.048-15.908-10.417-7.182-1.042,6.64,1.478,1.334,3.747,2.451,1.354.666,2.858,3.79,2.726,7-.132,3.231-2.018,6.919-4.363,6.343-2.585-.634-5.448-6.743-4.736-14.6,1.394-15.389,14.105-25.032,17.536-9.431,2.078,9.46-3.664,16.665.709,26.7Zm6.153,1.533c5.163.669,4.683,15.209-.51,14.538C900.319,597.827,900.963,583.308,906.06,583.965Z" transform="translate(-883.219 -545.071)" fill="#97eb11"/>
            </g>
            <g id="Group_493" data-name="Group 493" transform="translate(146.019)">
              <path id="Path_3619" data-name="Path 3619" d="M557.417,46.431a10.805,10.805,0,0,1,2.5-4.955c3.654-4.074,2.016-9.426-.124-9.034-1.629.3-.052,1.333.074,3.228.075,1.131-.366,2.776-1.093,3.2s-1.849-.392-2.106-2.256c-.283-2.054.591-5.212,2.434-5.959,3.608-1.462,7.8,6.556,4.936,11.693-1.739,3.114-4.259-.043-5.749,4.9Zm.668,4.893c.7,4.005-2.576,6.018-3.276,1.989C554.1,49.256,557.4,47.371,558.086,51.325Z" transform="translate(-554.711 -30.481)" fill="#51b133"/>
            </g>
            <g id="Group_494" data-name="Group 494" transform="translate(112.414 35.02)">
              <path id="Path_3620" data-name="Path 3620" d="M442.465,110.918a5.187,5.187,0,0,1-2.116,2.688c-2.836,1.758-2.154,5.884-.657,6.219,1.139.255.145-.9.214-2.23.042-.8.478-1.8,1.011-1.883s1.233.79,1.256,2.139c.025,1.486-.833,3.4-2.155,3.392-2.59-.017-4.8-6.689-2.418-9.4,1.446-1.641,2.912,1.231,4.338-1.73Zm-.056-3.538c-.148-2.939,2.257-3.393,2.406-.437C444.966,109.919,442.556,110.28,442.409,107.38Z" transform="translate(-436.582 -104.938)" fill="#33a173"/>
            </g>
            <g id="Group_495" data-name="Group 495" transform="translate(173.869 6.237)">
              <path id="Path_3621" data-name="Path 3621" d="M659.795,51.429a3.541,3.541,0,0,1-2.614-1.734c-2.631-3.493-4.15.233-3.359,2.879.6,2.014.517-.335,1.191-1.067.4-.437,1.154-.363,1.532.448a4.06,4.06,0,0,1-.214,3.4c-.687.984-2.137.805-2.972-1.349-1.635-4.219.116-12.049,2.91-9.894,1.694,1.308,1.266,5.513,3.571,5.951Zm1.638-2.336c1.3-2.105,3.037,1.515,1.734,3.633C661.854,54.859,660.154,51.172,661.433,49.093Z" transform="translate(-652.729 -43.743)" fill="#17bfbd"/>
            </g>
            <g id="Group_496" data-name="Group 496" transform="translate(100.935 112.262)">
              <path id="Path_3622" data-name="Path 3622" d="M400.084,275.877a12.98,12.98,0,0,1-.758,4.678c-1.657,4.794.323,7.28,1.637,5.759,1-1.157-.2-.891-.6-2.04a3.983,3.983,0,0,1,.154-2.714c.4-.709,1.262-.841,1.749.21a6.344,6.344,0,0,1-.545,5.288c-2.077,3.08-6.167.386-5.2-4.628.586-3.039,2.757-2.494,2.868-6.566Zm-1.275-2.764c-1.14-2.174.626-5.41,1.773-3.224C401.737,272.091,399.935,275.258,398.809,273.113Z" transform="translate(-396.369 -269.161)" fill="#2b1bf5"/>
            </g>
            <g id="Group_497" data-name="Group 497" transform="translate(131.23 236.161)">
              <path id="Path_3623" data-name="Path 3623" d="M510.05,567.117a38.357,38.357,0,0,1,.934-13.293c3.34-14.346-2.617-19.451-5.812-14.252-2.432,3.956.745,2.253,2.124,5.03a10.991,10.991,0,0,1,.233,7.478c-.909,2.248-3.215,3.317-4.786.87-1.731-2.7-2.289-9.637.208-14.77,4.889-10.05,16.61-6.12,15.2,8.253-.859,8.714-6.87,9.022-6.2,20.142Zm4.114,6.437c3.608,4.95-.4,15.168-4.029,10.191C506.479,578.732,510.6,568.67,514.164,573.554Z" transform="translate(-501.259 -532.584)" fill="#57e785"/>
            </g>
            <g id="Group_498" data-name="Group 498" transform="translate(21.881 153.912)">
              <path id="Path_3624" data-name="Path 3624" d="M134.753,363.79a3.252,3.252,0,0,1-3.322.857c-3.871-1.008-4.372,4.556-2.725,6.567,1.253,1.53.452-.895.953-2.378.3-.886,1.125-1.586,1.775-1.111s1.195,2.258.8,3.86c-.438,1.766-2.044,3.08-3.589,1.64-3.025-2.819-3.515-13.017.126-13.609,2.208-.357,3.02,4.587,5.62,2.664Zm1.048-4.2c.751-3.6,3.709-1.531,2.953,2.089C137.994,365.324,135.06,363.142,135.8,359.59Z" transform="translate(-126.204 -357.714)" fill="#13fb61"/>
            </g>
            <g id="Group_499" data-name="Group 499" transform="translate(82.503 326.377)">
              <path id="Path_3625" data-name="Path 3625" d="M342.521,761.658a41.583,41.583,0,0,1-1.274-14.464c1.068-16.967-6.035-18.846-8.5-11.542-1.876,5.558,1.162,1.925,3.076,4.03,1.143,1.257,2.079,4.826,1.511,7.7s-2.8,5.345-4.864,3.7c-2.27-1.817-4.029-8.76-2.284-15.588,3.417-13.37,16.357-16.076,17.311-.2.577,9.625-5.666,13.446-3.076,24.7Zm5.4,4.346c4.617,3.084,2.151,16.116-2.493,13.016C340.749,775.9,343.362,762.963,347.919,766Z" transform="translate(-329.478 -724.391)" fill="#d14953"/>
            </g>
            <g id="Group_500" data-name="Group 500" transform="translate(281.207 205.465)">
              <path id="Path_3626" data-name="Path 3626" d="M1035.994,472.472a2.351,2.351,0,0,1-2.39-.619c-2.572-2.11-3.509,1.557-2.583,3.55.7,1.516.408-.454.912-1.3a.769.769,0,0,1,1.347-.121,3.527,3.527,0,0,1,.142,2.962c-.491,1.062-1.742,1.385-2.658-.175-1.793-3.054-1.05-10.291,1.533-9.371,1.566.558,1.6,4.276,3.606,3.894Zm1.172-2.524c.9-2.216,2.729.294,1.822,2.523C1038.072,474.716,1036.276,472.135,1037.166,469.948Z" transform="translate(-1029.78 -467.32)" fill="#53fb1b"/>
            </g>
            <g id="Group_501" data-name="Group 501" transform="translate(215.074 55.933)">
              <path id="Path_3627" data-name="Path 3627" d="M802.405,161.024c2.654,2.951,4.1,5.979,5.332,10.65,4.138,15.1,10.56,9.429,10.435.891-.095-6.5-1.53-.408-3.733-.2-1.315.124-3.145-1.873-3.524-4.82-.381-2.962.735-7.265,2.924-8,2.412-.807,5.919,3.139,6.5,10.552,1.133,14.515-8.752,29.9-14.237,17.764-3.324-7.363.7-16.864-4.767-23.524Zm-5.745,1.9c-4.725,2.147-6.545-11.123-1.792-13.283C799.655,147.462,801.325,160.8,796.661,162.922Z" transform="translate(-792.084 -149.4)" fill="#e70f7b"/>
            </g>
            <g id="Group_502" data-name="Group 502" transform="translate(13.382 113.797)">
              <path id="Path_3628" data-name="Path 3628" d="M99.5,284.108a4.857,4.857,0,0,1,5.05,1.069c5.476,4.192,7.345-3.624,5.339-7.728-1.527-3.124-.846,1-1.883,2.823-.619,1.09-1.974,1.539-2.832.386a7.382,7.382,0,0,1-.383-6.224c1-2.284,3.628-3.087,5.6.108,3.864,6.257,2.5,21.568-2.961,19.885-3.313-1.022-3.5-8.849-7.7-7.848Zm-2.395,5.43c-1.837,4.754-5.755-.353-3.908-5.135C95.053,279.587,98.913,284.845,97.1,289.539Z" transform="translate(-92.71 -272.424)" fill="#b33dc1"/>
            </g>
            <g id="Group_503" data-name="Group 503" transform="translate(176.963 342.321)">
              <path id="Path_3629" data-name="Path 3629" d="M675.765,788.333a24.733,24.733,0,0,1-4.426-10.606c-3.131-14.512-9.286-10.284-9.552-2.417-.2,5.987,1.388.61,3.423.757,1.215.088,2.807,2.2,3.024,4.97s-1,6.566-3.044,6.9c-2.253.373-5.3-3.792-5.5-10.694-.395-13.516,9.378-26.147,13.878-14.148,2.727,7.277-1.4,15.394,3.333,22.353Zm5.365-.866c4.439-1.249,5.52,11.227,1.055,12.485C677.689,801.22,676.749,788.7,681.13,787.468Z" transform="translate(-659.676 -758.29)" fill="#c50013"/>
            </g>
            <g id="Group_504" data-name="Group 504" transform="translate(3.886 289.11)">
              <path id="Path_3630" data-name="Path 3630" d="M58.364,651.7A15.316,15.316,0,0,1,59,657.09c-.213,6.419,2.478,6.854,3.324,4.014.644-2.161-.458-.679-1.2-1.4a3.794,3.794,0,0,1-.653-2.835c.183-1.106.995-2.116,1.787-1.575.873.6,1.612,3.139,1.032,5.772-1.136,5.156-5.97,6.668-6.5.737-.324-3.6,1.98-5.271.882-9.4Zm-2.077-1.428c-1.77-.983-.988-5.976.792-4.988S58.034,651.244,56.287,650.274Z" transform="translate(-55.288 -645.157)" fill="#e1977b"/>
            </g>
            <g id="Group_505" data-name="Group 505" transform="translate(143.532 25.927)">
              <path id="Path_3631" data-name="Path 3631" d="M550.47,107.542c2.193-2.548,3.959-3.394,6.3-3.327,7.641.008,7.8-11.014,4.315-14.079-2.649-2.333-.744,1.959-1.5,5.082-.449,1.864-1.946,3.634-3.275,3.041s-2.643-3.771-2.107-7.072c.59-3.638,3.507-6.988,6.707-4.976,6.267,3.939,8.706,23.433,1.744,26.407-4.221,1.8-6.516-7.364-11.268-2.335Zm-1.415,8.657c-.929,7.342-6.955,4.824-6.021-2.561C543.973,106.2,549.97,108.95,549.055,116.2Z" transform="translate(-542.935 -85.605)" fill="#91f7eb"/>
            </g>
            <g id="Group_506" data-name="Group 506" transform="translate(181.286 140.992)">
              <path id="Path_3632" data-name="Path 3632" d="M684.435,343.653c2.885,3.477,4.423,6.95,5.692,12.232,4.269,17.084,11.527,11.266,11.575,1.771.036-7.226-1.69-.568-4.143-.5-1.464.039-3.453-2.316-3.811-5.619-.359-3.32.975-8.017,3.423-8.666,2.7-.716,6.508,3.931,6.99,12.21.943,16.212-10.375,32.57-16.2,18.671-3.533-8.43,1.146-18.685-4.784-26.493Zm-6.424,1.68c-5.3,2.031-7.029-12.848-1.7-14.893C681.674,328.38,683.239,343.324,678.011,345.332Z" transform="translate(-673.074 -330.245)" fill="#9d0d6b"/>
            </g>
            <g id="Group_507" data-name="Group 507" transform="translate(254.971 138.512)">
              <path id="Path_3633" data-name="Path 3633" d="M947,339.69a7.387,7.387,0,0,1-7.993-.685c-8.841-5.506-11.329,7.138-7.943,13.19,2.577,4.606,1.272-1.731,2.8-4.8.91-1.835,3.013-2.807,4.427-1.164s2.269,6.266.958,9.7c-1.445,3.786-5.522,5.564-8.805.934-6.428-9.067-5.169-33.384,3.511-31.817,5.263.953,6,13.21,12.552,10.809Zm3.451-9c2.612-7.829,9.06-.579,6.433,7.3C954.239,345.918,947.875,338.419,950.453,330.689Z" transform="translate(-926.39 -324.972)" fill="#f9a7cb"/>
            </g>
            <g id="Group_508" data-name="Group 508" transform="translate(257.256 301.908)">
              <path id="Path_3634" data-name="Path 3634" d="M943.969,702.869a34.417,34.417,0,0,1,.3-11.828c2.381-13.077-3.063-16.773-5.673-11.767-1.986,3.808.744,1.883,2.066,4.143a9.531,9.531,0,0,1,.5,6.552c-.713,2.1-2.7,3.351-4.179,1.407-1.629-2.142-2.391-8.177-.393-13.03,3.912-9.5,14.384-7.615,13.7,5.228-.416,7.787-5.7,8.864-4.668,18.562Zm3.873,5.115c3.369,3.874.24,13.407-3.149,9.511C941.279,713.573,944.516,704.163,947.842,707.985Z" transform="translate(-935.393 -672.368)" fill="#879189"/>
            </g>
            <g id="Group_509" data-name="Group 509" transform="translate(151.714 238.599)">
              <path id="Path_3635" data-name="Path 3635" d="M578.694,541.668a7.315,7.315,0,0,1,2.423,3.616c2.091,5.49,4.438,2.582,4.125-.758-.238-2.541-.613,0-1.472.317-.513.188-1.293-.4-1.533-1.519s.064-2.931.9-3.451c.922-.573,2.422.6,2.878,3.454.893,5.58-2.513,12.672-5.042,8.487-1.533-2.539-.246-6.7-2.6-8.732Zm-2.2,1.355c-1.789,1.344-2.914-3.673-1.114-5.026S578.263,541.695,576.5,543.023Z" transform="translate(-574.471 -537.766)" fill="#fbf555"/>
            </g>
            <g id="Group_510" data-name="Group 510" transform="translate(222.109 345.179)">
              <path id="Path_3636" data-name="Path 3636" d="M832.478,786.844a17.007,17.007,0,0,1-3.8-7.685c-2.936-10.868-7.557-6.849-7.487-.72.053,4.664,1.1.3,2.679.173.944-.078,2.253,1.368,2.518,3.486s-.544,5.209-2.117,5.716c-1.733.561-4.241-2.3-4.64-7.623-.781-10.426,6.349-21.394,10.258-12.639,2.369,5.31-.541,12.1,3.368,16.92Zm4.127-1.318c3.4-1.5,4.672,8.034,1.257,9.548C834.421,796.6,833.253,787.012,836.6,785.526Z" transform="translate(-819.57 -764.366)" fill="#8fbd4d"/>
            </g>
            <g id="Group_511" data-name="Group 511" transform="translate(58.997 272.602)">
              <path id="Path_3637" data-name="Path 3637" d="M252.4,621.313a3.666,3.666,0,0,1,3.86-.732c4.452,1.467,5.157-4.926,3.3-7.379-1.414-1.867-.543,1-1.155,2.675-.366,1-1.336,1.746-2.078,1.145s-1.33-2.7-.834-4.525c.547-2.007,2.433-3.4,4.186-1.616,3.433,3.5,3.768,15.323-.455,15.723-2.561.241-3.387-5.539-6.436-3.518Zm-1.307,4.774c-.951,4.1-4.322,1.48-3.367-2.646C248.685,619.286,252.027,622.038,251.089,626.086Z" transform="translate(-247.554 -610.06)" fill="#816b09"/>
            </g>
            <g id="Group_512" data-name="Group 512" transform="translate(116.449 354.585)">
              <path id="Path_3638" data-name="Path 3638" d="M454.426,796.3a3.869,3.869,0,0,1,3.81-1.232c4.482.877,4.94-5.571,3-7.767-1.476-1.671-.5,1.064-1.047,2.81-.326,1.042-1.262,1.91-2.022,1.41s-1.425-2.514-1-4.39c.467-2.067,2.29-3.7,4.1-2.154,3.546,3.027,4.329,14.742.145,15.692-2.536.574-3.578-5.065-6.533-2.657Zm-1.118,4.918c-.789,4.2-4.241,2.036-3.448-2.19C450.659,794.769,454.086,797.068,453.308,801.216Z" transform="translate(-449.743 -784.365)" fill="#01694f"/>
            </g>
            <g id="Group_513" data-name="Group 513" transform="translate(52.712 123.535)">
              <path id="Path_3639" data-name="Path 3639" d="M232.639,309.854a39.1,39.1,0,0,1,1.45,13.686c-.736,16.2,6.051,17.584,8.276,10.5,1.693-5.393-1.137-1.765-2.993-3.659-1.108-1.131-2.057-4.473-1.564-7.234s2.58-5.243,4.566-3.791c2.189,1.6,3.977,8.1,2.43,14.7-3.03,12.911-15.294,16.219-16.463,1.173-.707-9.123,5.168-13.111,2.518-23.667Zm-5.207-3.828c-4.442-2.672-2.312-15.208,2.156-12.522C234.088,296.208,231.817,308.661,227.432,306.026Z" transform="translate(-224.982 -293.129)" fill="#7137cd"/>
            </g>
            <g id="Group_514" data-name="Group 514" transform="translate(85.383 15.066)">
              <path id="Path_3640" data-name="Path 3640" d="M345.647,72.646a3.815,3.815,0,0,1,4.11.436c4.532,2.925,5.85-3.554,4.126-6.7-1.312-2.4-.659.877-1.453,2.443-.474.935-1.559,1.412-2.281.553a5.867,5.867,0,0,1-.463-5c.755-1.933,2.858-2.805,4.533-.389,3.28,4.731,2.559,17.228-1.9,16.332-2.7-.545-3.047-6.859-6.424-5.691Zm-1.8,4.595c-1.368,4-4.662.2-3.287-3.821C341.943,69.367,345.194,73.291,343.845,77.241Z" transform="translate(-340.229 -62.514)" fill="#9f4383"/>
            </g>
            <g id="Group_515" data-name="Group 515" transform="translate(127.783 130.867)">
              <path id="Path_3641" data-name="Path 3641" d="M498.059,315.985a5.338,5.338,0,0,1-2.883,2.834c-3.72,1.467-3.178,6.864-1.312,7.686,1.42.626.253-1.1.444-2.762.114-.994.743-2.144,1.424-2.111s1.5,1.327,1.422,3.038c-.083,1.885-1.316,4.077-2.987,3.715-3.272-.711-5.552-9.731-2.329-12.52,1.954-1.69,3.585,2.33,5.617-1.033Zm.2-4.487c.041-3.753,3.116-3.688,3.075.087C501.3,315.387,498.223,315.2,498.262,311.5Z" transform="translate(-490.282 -308.718)" fill="#23d93f"/>
            </g>
            <g id="Group_516" data-name="Group 516" transform="translate(283.401 178.534)">
              <path id="Path_3642" data-name="Path 3642" d="M1042.5,416.909a12.539,12.539,0,0,1-.945,4.634c-1.859,4.634.05,7.408,1.437,6.041,1.056-1.04-.165-.927-.534-2.143a3.961,3.961,0,0,1,.259-2.726c.43-.665,1.308-.687,1.761.441a6.252,6.252,0,0,1-.752,5.28c-2.219,2.845-6.255-.414-5.088-5.361.708-3,2.885-2.164,3.151-6.269Zm-1.185-2.963c-1.071-2.348.839-5.393,1.916-3.031C1044.313,413.294,1042.37,416.263,1041.312,413.946Z" transform="translate(-1038.429 -410.062)" fill="#fdbfad"/>
            </g>
            <g id="Group_517" data-name="Group 517" transform="translate(128.476 292.9)">
              <path id="Path_3643" data-name="Path 3643" d="M496.653,692.249c1.683-5.816,3.481-9.058,6.309-11.942,9.131-9.645,5.263-23.011-.023-22.275-4.023.56-.169,3.28.081,7.963.149,2.795-.988,6.8-2.794,7.772s-4.544-1.166-5.119-5.787c-.633-5.092,1.62-12.78,6.183-14.422,8.936-3.214,19.02,16.994,11.8,29.345-4.381,7.485-10.493-.564-14.32,11.449Zm1.493,12.131c1.591,9.946-6.535,14.552-8.136,4.55C488.4,698.854,496.575,694.563,498.147,704.38Z" transform="translate(-489.801 -653.216)" fill="#2f596d"/>
            </g>
            <g id="Group_518" data-name="Group 518" transform="translate(70.661 181.076)">
              <path id="Path_3644" data-name="Path 3644" d="M292.181,424.007a2.849,2.849,0,0,1,2.533-1.18c3.042.18,3.178-4.206,1.813-5.507-1.039-.99-.31.762-.63,1.989-.191.732-.8,1.4-1.324,1.135a3,3,0,0,1-.791-2.865c.259-1.435,1.443-2.7,2.7-1.827,2.469,1.713,3.309,9.531.517,10.555-1.693.619-2.545-3.083-4.471-1.19Zm-.621,3.415c-.419,2.9-2.8,1.76-2.38-1.159C289.6,423.323,291.972,424.557,291.559,427.422Z" transform="translate(-289.129 -415.466)" fill="#ad6b5f"/>
            </g>
            <g id="Group_519" data-name="Group 519" transform="translate(52.778 210.121)">
              <path id="Path_3645" data-name="Path 3645" d="M230.24,512.472a31.687,31.687,0,0,1,3.6-12.446c6.186-11.814,1.349-20.974-2.848-18.069-3.194,2.21.28,2.736,1.077,6.427.476,2.2.062,5.951-1.28,7.527s-3.836,1.038-4.89-2.463c-1.161-3.856-.309-11.08,3.187-14.4,6.844-6.509,17.6,5.491,13.3,18.668-2.605,7.988-8.588,4.123-10.169,15.543Zm2.753,9.194c2.555,7.378-3.456,14.663-6.026,7.244C224.379,521.436,230.47,514.384,232.993,521.666Z" transform="translate(-225.414 -477.219)" fill="#992b81"/>
            </g>
            <g id="Group_520" data-name="Group 520" transform="translate(53.878 346.319)">
              <path id="Path_3646" data-name="Path 3646" d="M233.1,774.828a18.169,18.169,0,0,1,.036,6.232c-1.035,7.007,1.886,8.64,3.175,5.861.981-2.114-.422-.947-1.154-2.06a4.909,4.909,0,0,1-.369-3.415c.34-1.144,1.364-1.914,2.173-.976.891,1.033,1.391,4.161.422,6.825-1.9,5.216-7.432,4.818-7.285-1.97.09-4.115,2.847-4.981,2.146-10.019Zm-2.12-2.468c-1.834-1.844-.348-7.031,1.5-5.176S232.79,774.18,230.979,772.36Z" transform="translate(-230.093 -766.79)" fill="#791967"/>
            </g>
            <g id="Group_521" data-name="Group 521" transform="translate(30.981 357.334)">
              <path id="Path_3647" data-name="Path 3647" d="M165.878,798.5a2.77,2.77,0,0,1,2.995-.287c3.406,1.454,4.085-3.431,2.7-5.458-1.052-1.543-.44.732-.948,1.981-.3.746-1.068,1.251-1.628.735a4.043,4.043,0,0,1-.549-3.553c.464-1.51,1.95-2.45,3.266-.946,2.577,2.945,2.587,12.1-.681,12.1-1.982,0-2.5-4.52-4.895-3.179Zm-1.109,3.591c-.82,3.1-3.367.831-2.543-2.285C163.056,796.667,165.578,799.031,164.769,802.089Z" transform="translate(-162.064 -790.208)" fill="#65a36f"/>
            </g>
            <g id="Group_522" data-name="Group 522" transform="translate(130.626 185.751)">
              <path id="Path_3648" data-name="Path 3648" d="M513.983,439.4c-2.036,3-3.748,4.214-6.1,4.636-7.631,1.583-7.119,12.623-3.457,14.96,2.787,1.779.625-2.111,1.187-5.387.336-1.956,1.723-4.035,3.086-3.719s2.868,3.216,2.533,6.625c-.369,3.756-3.079,7.709-6.4,6.367-6.5-2.629-10.115-21.591-3.342-26.01,4.107-2.677,6.954,6,11.395-.014Zm.889-8.94c.483-7.526,6.654-6.266,6.169,1.3C520.553,439.386,514.4,437.886,514.872,430.457Z" transform="translate(-497.865 -425.407)" fill="#5bb35f"/>
            </g>
            <g id="Group_523" data-name="Group 523" transform="translate(121.47 70.386)">
              <path id="Path_3649" data-name="Path 3649" d="M485.418,194.185c-3.164,1.717-5.485,1.623-8.348.037-9.363-4.908-11.61,8.5-7.916,14.489,2.811,4.557,1.278-1.923,2.782-5.269.9-2,3.063-3.207,4.581-1.628s2.535,6.316,1.263,10.018c-1.4,4.081-5.6,6.316-9.149,1.8-6.946-8.844-6.3-34.3,2.789-33.482,5.51.5,6.612,13.2,13.374,10.085Zm3.349-9.7c2.508-8.4,9.424-1.454,6.9,7C493.13,200,486.293,192.779,488.768,184.482Z" transform="translate(-463.944 -180.13)" fill="#dddfbf"/>
            </g>
            <g id="Group_524" data-name="Group 524" transform="translate(170.925 148.491)">
              <path id="Path_3650" data-name="Path 3650" d="M646.068,353.79a17.178,17.178,0,0,1,.032,5.893c-.981,6.624,1.78,8.171,3,5.546.928-2-.4-.9-1.091-1.949a4.641,4.641,0,0,1-.348-3.229c.322-1.082,1.29-1.808,2.055-.921.842.978,1.314,3.936.4,6.454-1.8,4.929-7.029,4.546-6.888-1.872.087-3.891,2.693-4.706,2.033-9.47Zm-2-2.336c-1.734-1.746-.326-6.648,1.418-4.893S645.776,353.176,644.064,351.454Z" transform="translate(-643.222 -346.187)" fill="#1567f5"/>
            </g>
            <g id="Group_525" data-name="Group 525" transform="translate(201.998 81.367)">
              <path id="Path_3651" data-name="Path 3651" d="M756.333,211.714a16.912,16.912,0,0,1,3.535,7.521c2.665,10.525,7.138,6.891,7.151,1.027.01-4.463-1.045-.341-2.56-.287-.9.033-2.136-1.411-2.363-3.448s.589-4.957,2.1-5.371c1.664-.458,4.026,2.39,4.337,7.5.61,10.006-6.353,20.174-9.976,11.624-2.2-5.185.676-11.546-3-16.333Zm-3.964,1.074c-3.268,1.285-4.362-7.894-1.076-9.187C754.6,202.3,755.594,211.519,752.369,212.789Z" transform="translate(-749.307 -203.475)" fill="#ef49fb"/>
            </g>
            <g id="Group_526" data-name="Group 526" transform="translate(172.251 232.133)">
              <path id="Path_3652" data-name="Path 3652" d="M653.739,531.986A3.989,3.989,0,0,1,651.4,529.9c-2.257-3.721-3.864-.54-3.27,2.06.452,1.979.5-.216,1.162-.773.4-.333,1.09-.127,1.4.7a3.659,3.659,0,0,1-.379,3.116c-.69.788-2.026.358-2.687-1.794-1.294-4.214.747-11.162,3.225-8.653,1.5,1.522.882,5.348,3,6.174Zm1.645-1.87c1.315-1.718,2.738,1.96,1.417,3.688S654.086,531.813,655.384,530.117Z" transform="translate(-647.228 -524.019)" fill="#418d2d"/>
            </g>
            <g id="Group_527" data-name="Group 527" transform="translate(195.673 16.417)">
              <path id="Path_3653" data-name="Path 3653" d="M744.154,94.988c-3.357-1.723-5.413-4.2-7.507-8.582-6.934-14.069-12.98-4.346-11.461,4.843,1.156,6.994,1.725-.409,4.081-1.86,1.407-.866,3.714.28,4.6,3.265.893,3,.38,8.288-1.875,10.3-2.485,2.218-6.928-.109-8.757-7.826-3.581-15.11,4.646-37.3,12.561-27.19,4.8,6.135,1.972,18.679,8.981,22.857Zm5.922-5.257c4.776-4.958,8.9,8.42,4.1,13.408C749.335,108.164,745.362,94.628,750.077,89.732Z" transform="translate(-722.375 -65.386)" fill="#bd613d"/>
            </g>
            <g id="Group_528" data-name="Group 528" transform="translate(102.657 68.484)">
              <path id="Path_3654" data-name="Path 3654" d="M407.617,182.871a9.014,9.014,0,0,1-1.666,3.919c-2.544,3.4-1.165,7.142.391,6.61,1.184-.4-.007-.983-.161-2.359a3.24,3.24,0,0,1,.7-2.473c.522-.4,1.369.077,1.619,1.414.276,1.474-.26,3.89-1.586,4.648-2.6,1.484-5.939-3.916-4.008-8.01,1.171-2.482,3.124-.455,4.053-4.248Zm-.653-3.512c-.644-2.858,1.689-4.707,2.337-1.833C409.953,180.421,407.6,182.18,406.964,179.359Z" transform="translate(-402.325 -176.085)" fill="#cb2763"/>
            </g>
            <g id="Group_529" data-name="Group 529" transform="translate(162.614 292.759)">
              <path id="Path_3655" data-name="Path 3655" d="M621.748,666.787a8.17,8.17,0,0,1-3.276-4.184c-2.95-6.632-5.793-2.509-5.223,1.7.434,3.2.782-.111,1.862-.665.644-.331,1.669.284,2.033,1.666s.069,3.75-.972,4.56c-1.147.894-3.119-.343-3.848-3.9-1.427-6.959,2.554-16.606,5.994-11.715,2.086,2.967.658,8.5,3.763,10.678Zm2.733-2.117c2.213-2.031,3.905,4.171,1.68,6.214C623.918,672.943,622.3,666.677,624.48,664.671Z" transform="translate(-612.026 -652.917)" fill="#a95723"/>
            </g>
            <g id="Group_530" data-name="Group 530" transform="translate(114.9 219.467)">
              <path id="Path_3656" data-name="Path 3656" d="M448.206,505.046a2.587,2.587,0,0,1,2.506-.873c2.96.507,3.232-3.753,1.942-5.17-.981-1.078-.326.71-.677,1.87-.21.693-.823,1.28-1.327.962a3.1,3.1,0,0,1-.681-2.879c.3-1.371,1.493-2.476,2.694-1.486,2.352,1.939,2.923,9.652.169,10.345-1.67.419-2.383-3.282-4.32-1.647Zm-.714,3.26c-.5,2.783-2.787,1.411-2.284-1.389C445.715,504.1,447.985,505.559,447.491,508.306Z" transform="translate(-445.136 -497.091)" fill="#c5f9ab"/>
            </g>
            <g id="Group_531" data-name="Group 531" transform="translate(156.981 251.718)">
              <path id="Path_3657" data-name="Path 3657" d="M606.585,578.211c-2.3,2.271-4.1,2.891-6.45,2.519-7.664-1-8.236,10.036-4.861,13.563,2.569,2.684.821-1.868,1.693-4.9.521-1.812,2.089-3.393,3.4-2.626s2.509,4.126,1.846,7.367c-.729,3.573-3.782,6.554-6.916,4.121-6.137-4.764-7.848-24.635-.752-26.715,4.3-1.258,6.258,8.232,11.214,3.8Zm1.747-8.5c1.209-7.244,7.159-3.936,5.943,3.351C613.051,580.4,607.14,576.863,608.332,569.711Z" transform="translate(-589.917 -565.66)" fill="#63f19f"/>
            </g>
            <g id="Group_532" data-name="Group 532" transform="translate(176.731 198.725)">
              <path id="Path_3658" data-name="Path 3658" d="M672.1,495.614a48.093,48.093,0,0,1,.439-16.526c3.344-18.263-4.258-23.451-7.912-16.468-2.781,5.313,1.038,2.635,2.882,5.8a13.327,13.327,0,0,1,.686,9.158c-1,2.933-3.779,4.671-5.842,1.948-2.274-3-3.331-11.437-.533-18.21,5.478-13.262,20.109-10.578,19.137,7.366-.591,10.879-7.971,12.361-6.547,25.918Zm5.406,7.165c4.7,5.428.318,18.735-4.413,13.277C668.327,510.56,672.861,497.424,677.5,502.779Z" transform="translate(-660.138 -452.991)" fill="#dfe3d3"/>
            </g>
            <g id="Group_533" data-name="Group 533" transform="translate(191.767 117.999)">
              <path id="Path_3659" data-name="Path 3659" d="M720.413,299.984c3.361-.781,5.709.019,8.473,2.5,9.066,7.822,12.531-5.1,9.312-12.3-2.449-5.478-1.466,1.563-3.289,4.5-1.088,1.753-3.391,2.324-4.792.261s-2.014-7.178-.4-10.548c1.783-3.714,6.242-4.707,9.442.952,6.266,11.083,3.359,36.714-5.789,33.124-5.546-2.18-5.542-15.4-12.678-14.293Zm-4.256,8.827c-3.287,7.764-9.69-1.387-6.384-9.2C713.1,291.747,719.4,301.145,716.157,308.811Z" transform="translate(-708.851 -281.359)" fill="#d15931"/>
            </g>
            <g id="Group_534" data-name="Group 534" transform="translate(17.135 200.937)">
              <path id="Path_3660" data-name="Path 3660" d="M118.165,471.725c2.615,3.792,3.936,7.37,4.916,12.644,3.328,17.086,10.569,12.625,11.045,3.506.363-6.94-1.6-.81-3.96-1.129-1.409-.191-3.214-2.765-3.408-5.995-.195-3.247,1.3-7.554,3.683-7.8,2.625-.268,6.077,4.792,6.165,12.825.171,15.73-11.45,29.689-16.423,15.421-3.013-8.653,1.949-17.781-3.4-26.21Zm-6.251.613c-5.183,1.127-6.173-13.445-.96-14.58C116.2,456.614,117.03,471.223,111.914,472.338Z" transform="translate(-107.501 -457.694)" fill="#d5eb1b"/>
            </g>
            <g id="Group_535" data-name="Group 535" transform="translate(164.506 62.933)">
              <path id="Path_3661" data-name="Path 3661" d="M635.512,189.41c-3.372-.715-5.554-2.525-7.928-6.151-7.824-11.594-12.848-.537-10.635,7.881,1.684,6.407,1.627-.878,3.776-2.937,1.283-1.229,3.6-.773,4.7,1.849s1.043,7.871-.963,10.441c-2.21,2.832-6.677,1.841-9.068-5.072-4.682-13.538,1.422-37.209,9.867-29.7,5.12,4.557,3.426,17.424,10.513,19.477Zm5.27-6.723c4.192-6.114,9.255,5.6,5.039,11.754C641.575,200.636,636.645,188.724,640.782,182.687Z" transform="translate(-613.767 -164.283)" fill="#cf33c1"/>
            </g>
            <g id="Group_536" data-name="Group 536" transform="translate(187.829 291.362)">
              <path id="Path_3662" data-name="Path 3662" d="M712.08,665.855a24.367,24.367,0,0,1-3.234,9.856c-5.326,9.129-1.6,16.994,1.893,14.968,2.657-1.541-.163-2.254-.726-5.329-.336-1.836.091-4.858,1.223-6.034s3.153-.532,3.929,2.408c.855,3.24-.012,9.061-2.941,11.486-5.737,4.749-14.22-5.916-10.4-16.311,2.314-6.3,7.1-2.66,8.662-11.845Zm-2.027-7.723c-1.908-6.225,3.167-11.676,5.086-5.415C717.073,659.023,711.938,664.277,710.053,658.132Z" transform="translate(-700.865 -649.945)" fill="#29c141"/>
            </g>
            <g id="Group_537" data-name="Group 537" transform="translate(254.248 75.527)">
              <path id="Path_3663" data-name="Path 3663" d="M928.185,201.558a24.486,24.486,0,0,1,.766,8.522c-.612,10.007,3.578,11.088,5.023,6.773,1.1-3.283-.687-1.131-1.818-2.365a6.2,6.2,0,0,1-.9-4.531c.334-1.7,1.648-3.161,2.864-2.2,1.34,1.063,2.385,5.15,1.363,9.181-2,7.894-9.626,9.537-10.205.182-.35-5.672,3.326-7.948,1.787-14.571ZM925,199.015c-2.725-1.8-1.285-9.493,1.456-7.683C929.214,193.156,927.688,200.792,925,199.015Z" transform="translate(-923.538 -191.059)" fill="#4b11c5"/>
            </g>
            <g id="Group_538" data-name="Group 538" transform="translate(13.098 275.578)">
              <path id="Path_3664" data-name="Path 3664" d="M98.093,622.376c1.826.6,2.983,1.728,4.211,3.855,4.055,6.818,7,1.1,5.946-3.628-.8-3.6-.9.376-2.114,1.364-.722.589-1.976.195-2.528-1.305s-.425-4.359.717-5.634c1.258-1.406,3.676-.583,4.853,3.339,2.306,7.68-1.459,20.208-5.928,15.578-2.709-2.809-1.549-9.721-5.377-11.288Zm-3,3.335c-2.4,3.07-4.945-3.641-2.533-6.73C94.991,615.87,97.462,622.679,95.094,625.711Z" transform="translate(-91.589 -616.388)" fill="#5b01e5"/>
            </g>
            <g id="Group_539" data-name="Group 539" transform="translate(267.58 114.887)">
              <path id="Path_3665" data-name="Path 3665" d="M982.8,286.082a8.251,8.251,0,0,1-2.032-3.815c-1.62-5.481-3.953-3.253-3.854-.106.075,2.395.567.118,1.378-.005.484-.074,1.172.624,1.33,1.7s-.226,2.7-1.029,3.012c-.885.349-2.2-1.032-2.462-3.754-.508-5.33,3.043-11.217,5.141-6.856,1.272,2.645-.154,6.235,1.9,8.575Zm2.106-.823c1.73-.892,2.483,3.964.743,4.861S983.2,286.141,984.906,285.259Z" transform="translate(-976.08 -274.742)" fill="#e90d2f"/>
            </g>
            <g id="Group_540" data-name="Group 540" transform="translate(281.733 222.269)">
              <path id="Path_3666" data-name="Path 3666" d="M1040.086,517.432a27.124,27.124,0,0,1-1.795,9.888c-3.718,10.018.414,15.582,3.277,12.506,2.179-2.34-.386-1.928-1.212-4.434a8.439,8.439,0,0,1,.431-5.774c.877-1.462,2.725-1.633,3.725.675a13.386,13.386,0,0,1-1.361,11.218c-4.551,6.305-13.18.027-10.93-10.552,1.365-6.413,5.98-4.967,6.37-13.645Zm-2.619-6.065c-2.352-4.788,1.54-11.468,3.905-6.654C1043.758,509.563,1039.79,516.092,1037.468,511.367Z" transform="translate(-1031.853 -503.047)" fill="#8751b9"/>
            </g>
            <g id="Group_541" data-name="Group 541" transform="translate(11.343 141.372)">
              <path id="Path_3667" data-name="Path 3667" d="M86.637,343.59a9.089,9.089,0,0,1,1.817-4.025c2.731-3.434,1.344-7.442-.3-6.972-1.252.358-.01,1.035.131,2.489a3.305,3.305,0,0,1-.772,2.56c-.555.388-1.438-.158-1.679-1.579-.265-1.565.338-4.074,1.745-4.8,2.755-1.412,6.179,4.456,4.081,8.651-1.273,2.542-3.292.3-4.332,4.235Zm.628,3.729c.63,3.041-1.853,4.852-2.487,1.794C84.14,346.033,86.643,344.318,87.265,347.319Z" transform="translate(-84.675 -331.053)" fill="#5b37c5"/>
            </g>
            <g id="Group_542" data-name="Group 542" transform="translate(159.745 169.858)">
              <path id="Path_3668" data-name="Path 3668" d="M619.4,407.191c-3.1,2.57-5.475,3.075-8.516,2.2-9.924-2.586-11.208,11.679-6.987,16.834,3.212,3.924,1.159-2.293,2.443-6.1.766-2.27,2.884-4.065,4.552-2.847s3.063,5.789,2.043,9.9c-1.123,4.527-5.242,7.895-9.2,4.2-7.754-7.229-9.01-33.374.326-34.89,5.66-.915,7.741,11.762,14.407,6.832Zm2.688-10.768c1.927-9.224,9.508-3.921,7.571,5.357C627.7,411.126,620.183,405.53,622.083,396.423Z" transform="translate(-597.478 -391.616)" fill="#0ff3b7"/>
            </g>
            <g id="Group_543" data-name="Group 543" transform="translate(129.777 3.25)">
              <path id="Path_3669" data-name="Path 3669" d="M501.18,46.872a21.511,21.511,0,0,1,.095,7.38c-1.167,8.327,2.306,10.177,3.809,6.851,1.144-2.531-.508-1.11-1.384-2.406a5.779,5.779,0,0,1-.466-4.033c.393-1.365,1.6-2.306,2.565-1.219,1.064,1.2,1.682,4.888.556,8.07-2.205,6.231-8.762,5.918-8.644-2.124.072-4.876,3.33-5.98,2.459-11.927ZM498.65,44.01c-2.188-2.132-.47-8.317,1.731-6.173C502.6,40,500.809,46.113,498.65,44.01Z" transform="translate(-497.636 -37.392)" fill="#e3379d"/>
            </g>
            <g id="Group_544" data-name="Group 544" transform="translate(266.229 334.538)">
              <path id="Path_3670" data-name="Path 3670" d="M982.767,754.033c-1.3,2.994-2.521,4.491-4.308,5.577-5.791,3.7-4.355,12.125-1.284,12.761,2.336.484.288-1.845.417-4.576.077-1.631.962-3.7,2.053-3.892s2.535,1.577,2.594,4.338c.066,3.043-1.672,7-4.381,7.022-5.3.053-9.9-13.538-5.047-19.167,2.945-3.41,5.977,2.422,8.868-3.691Zm-.15-7.247c-.332-6.014,4.59-7.026,4.924-.977C987.88,751.9,982.945,752.723,982.617,746.786Z" transform="translate(-970.756 -741.743)" fill="#f10d45"/>
            </g>
            <g id="Group_545" data-name="Group 545" transform="translate(177.747 36.089)">
              <path id="Path_3671" data-name="Path 3671" d="M672.746,120.312a12.678,12.678,0,0,1-1.32-4.882c-.637-6.255-3.276-5.46-3.715-2.355-.334,2.363.529.445,1.336.8a2.845,2.845,0,0,1,1,2.426c-.03,1.143-.677,2.479-1.509,2.316-.916-.179-1.958-2.286-1.747-5.074.414-5.459,4.854-9.086,6.145-3.636.782,3.3-1.209,5.949.386,9.418Zm2.181.435c1.827.146,1.731,5.29-.107,5.143S673.123,120.6,674.927,120.747Z" transform="translate(-666.762 -107.209)" fill="#b16d05"/>
            </g>
            <g id="Group_546" data-name="Group 546" transform="translate(26.542 299.867)">
              <path id="Path_3672" data-name="Path 3672" d="M164.7,685.114c-2.584,3.584-4.73,4.972-7.649,5.336-9.494,1.447-9.076,15.171-4.581,18.316,3.42,2.394.816-2.575,1.578-6.6.454-2.4,2.216-4.887,3.9-4.4s3.493,4.181,3.01,8.385c-.531,4.632-3.97,9.35-8.058,7.462-8.005-3.7-12.118-27.455-3.632-32.477,5.145-3.042,8.5,7.907,14.129.753Zm1.278-11.026c.747-9.3,8.374-7.32,7.624,2.034C172.847,685.543,165.243,683.268,165.978,674.088Z" transform="translate(-144.573 -668.029)" fill="#fb975d"/>
            </g>
            <g id="Group_547" data-name="Group 547" transform="translate(273.372 275.877)">
              <path id="Path_3673" data-name="Path 3673" d="M1005.582,623.784a13.1,13.1,0,0,1,3.668,6.241c3.034,9.17,6.945,4.976,6.632-.418-.238-4.105-.98-.115-2.37.224-.83.2-2.042-.89-2.364-2.72s.266-4.67,1.632-5.339c1.505-.738,3.834,1.43,4.4,6.069,1.116,9.084-4.722,19.759-8.528,12.589-2.307-4.349-.018-10.744-3.663-14.446ZM1002,625.527c-2.933,1.8-4.449-6.427-1.5-8.242C1003.471,615.456,1004.894,623.745,1002,625.527Z" transform="translate(-998.904 -617.023)" fill="#577f3d"/>
            </g>
            <g id="Group_548" data-name="Group 548" transform="translate(116.436 163.584)">
              <path id="Path_3674" data-name="Path 3674" d="M454.007,405.554a25.616,25.616,0,0,1,2.5-9.806c4.492-9.51.588-16.18-2.568-13.646-2.4,1.928.273,2.078.963,4.849.412,1.655.174,4.559-.821,5.865s-2.919,1.076-3.8-1.531c-.972-2.872-.473-8.473,2.137-11.277,5.11-5.49,13.609,2.925,10.6,13.342-1.828,6.315-6.5,3.788-7.466,12.66Zm2.307,6.848c2.116,5.47-2.338,11.5-4.466,5.994C449.7,412.856,454.224,407,456.314,412.4Z" transform="translate(-449.816 -378.277)" fill="#c9bd17"/>
            </g>
            <g id="Group_549" data-name="Group 549" transform="translate(235.54 49.999)">
              <path id="Path_3675" data-name="Path 3675" d="M876.441,145.872a6.155,6.155,0,0,1-1.8-2.961c-1.5-4.383-3.372-2.3-3.2.3.132,1.978.473.041,1.143-.142.4-.109.989.4,1.152,1.279s-.109,2.257-.766,2.6c-.723.377-1.856-.636-2.15-2.867-.576-4.369,2.2-9.6,4.064-6.2,1.131,2.067.053,5.185,1.827,6.921Zm1.723-.892c1.408-.912,2.173,3.039.757,3.957S876.775,145.881,878.165,144.98Z" transform="translate(-870.748 -136.785)" fill="#e5b547"/>
            </g>
            <g id="Group_550" data-name="Group 550" transform="translate(94.457 197.894)">
              <path id="Path_3676" data-name="Path 3676" d="M377.756,468.942c1.778-2.053,3.208-2.73,5.107-2.666,6.184.039,6.323-8.881,3.51-11.376-2.141-1.9-.6,1.582-1.218,4.106-.366,1.507-1.579,2.933-2.654,2.447s-2.134-3.063-1.7-5.732c.482-2.942,2.847-5.641,5.435-4,5.067,3.214,7.017,19,1.379,21.379-3.419,1.439-5.264-5.987-9.116-1.938Zm-1.156,7c-.761,5.938-5.635,3.874-4.87-2.1C372.5,467.827,377.35,470.079,376.6,475.942Z" transform="translate(-371.648 -451.223)" fill="#7d13d7"/>
            </g>
            <g id="Group_551" data-name="Group 551" transform="translate(149.16 212.078)">
              <path id="Path_3677" data-name="Path 3677" d="M570.149,487.446A12.3,12.3,0,0,1,572.886,493c2.11,7.845,5.446,4.958,5.4.538-.035-3.364-.791-.222-1.932-.132-.681.055-1.624-.992-1.814-2.521s.4-3.755,1.531-4.118c1.25-.4,3.057,1.668,3.341,5.51.556,7.522-4.594,15.416-7.408,9.091-1.7-3.836.4-8.724-2.417-12.212Zm-2.978.941c-2.451,1.076-3.364-5.806-.9-6.889C568.754,480.406,569.59,487.323,567.172,488.387Z" transform="translate(-564.817 -481.382)" fill="#bb4363"/>
            </g>
            <g id="Group_552" data-name="Group 552" transform="translate(174.673 270.351)">
              <path id="Path_3678" data-name="Path 3678" d="M663.394,612.215a4.481,4.481,0,0,1-3.018,2.31c-3.781.8-3.52,6.271-1.7,7.421,1.382.876.308-1.047.585-2.672.165-.97.851-2,1.527-1.85s1.423,1.588,1.259,3.278c-.18,1.862-1.521,3.827-3.167,3.169-3.222-1.289-5.026-10.678-1.672-12.883,2.034-1.335,3.45,2.958,5.647-.031Zm.435-4.433c.234-3.731,3.294-3.119,3.058.633C666.65,612.2,663.6,611.465,663.829,607.783Z" transform="translate(-655.411 -605.274)" fill="#7fbb99"/>
            </g>
            <g id="Group_553" data-name="Group 553" transform="translate(126.539 47.403)">
              <path id="Path_3679" data-name="Path 3679" d="M488.659,141.634a5.787,5.787,0,0,1,1.951-2.894c2.686-2.087,1.863-6,.4-6.129-1.116-.1-.106.892-.121,2.2-.009.778-.394,1.809-.909,1.965s-1.229-.6-1.3-1.909c-.082-1.44.676-3.415,1.961-3.584,2.516-.33,4.925,5.853,2.715,8.8-1.34,1.787-2.876-.805-4.146,2.261Zm.192,3.429c.258,2.834-2.06,3.6-2.32.747C486.269,142.939,488.6,142.266,488.851,145.064Z" transform="translate(-486.51 -131.266)" fill="#97512b"/>
            </g>
            <g id="Group_554" data-name="Group 554" transform="translate(219.16 237.814)">
              <path id="Path_3680" data-name="Path 3680" d="M816.323,541.149a5.658,5.658,0,0,1,3.412,2.95c3.315,5.329,5.619.652,4.73-3.1-.676-2.859-.72.332-1.681,1.163-.573.5-1.582.222-2.039-.962a5.345,5.345,0,0,1,.52-4.539c.994-1.168,2.94-.589,3.922,2.514,1.922,6.078-.974,16.241-4.6,12.68-2.2-2.161-1.335-7.738-4.418-8.867Zm-2.37,2.772c-1.893,2.54-4-2.753-2.095-5.309C813.775,536.039,815.821,541.413,813.953,543.922Z" transform="translate(-811.11 -536.097)" fill="#3d0325"/>
            </g>
            <g id="Group_555" data-name="Group 555" transform="translate(278.513 313.184)">
              <path id="Path_3681" data-name="Path 3681" d="M1025.047,703.187a3.29,3.29,0,0,1-2.14-1.691c-2.107-3.164-3.477-.187-2.886,2.1.45,1.739.441-.232,1.025-.783.348-.328.974-.2,1.27.516a3.345,3.345,0,0,1-.271,2.822c-.6.76-1.809.476-2.449-1.4-1.254-3.68.42-10.066,2.7-8.006,1.381,1.25.91,4.728,2.827,5.306Zm1.431-1.8c1.14-1.641,2.5,1.547,1.352,3.2S1025.354,703,1026.478,701.384Z" transform="translate(-1019.167 -696.342)" fill="#d50d63"/>
            </g>
            <g id="Group_556" data-name="Group 556" transform="translate(202.235 228.332)">
              <path id="Path_3682" data-name="Path 3682" d="M760.819,532.887a13.718,13.718,0,0,1-2.571-5.947c-1.855-8.19-5.331-5.677-5.441-1.2-.084,3.406.792.321,1.949.368.691.028,1.607,1.2,1.745,2.769s-.534,3.749-1.693,3.978c-1.278.252-3.032-2.059-3.183-5.978-.3-7.673,5.192-15.027,7.812-8.29,1.588,4.086-.713,8.773,2.011,12.642Zm3.044-.589c2.516-.79,3.2,6.28.665,7.075C761.98,540.175,761.379,533.08,763.863,532.3Z" transform="translate(-751.613 -515.938)" fill="#17e5a1"/>
            </g>
            <g id="Group_557" data-name="Group 557" transform="translate(264.551 223.572)">
              <path id="Path_3683" data-name="Path 3683" d="M971.132,539.984a35.656,35.656,0,0,1,2.019-12.821c4.475-13.174-.967-19.891-4.543-15.682-2.721,3.2.548,2.43,1.675,5.555a10.91,10.91,0,0,1-.389,7.428c-1.081,1.955-3.439,2.352-4.783-.5-1.481-3.147-1.456-10.138,1.427-14.481,5.644-8.5,16.858-1.3,14.277,12.444-1.566,8.334-7.509,6.929-7.765,18.067Zm3.517,7.506c3.142,5.9-1.648,14.818-4.809,8.887C966.657,550.4,971.547,541.67,974.649,547.49Z" transform="translate(-964.142 -505.817)" fill="#6d0785"/>
            </g>
            <g id="Group_558" data-name="Group 558" transform="translate(57.112 58.888)">
              <path id="Path_3684" data-name="Path 3684" d="M244.5,161.131a12.653,12.653,0,0,1,.937,4.651c.248,5.768,2.675,5.526,3.235,2.8.426-2.076-.455-.5-1.165-.964a2.958,2.958,0,0,1-.775-2.372c.087-1.028.742-2.118,1.485-1.822.819.326,1.65,2.419,1.313,4.9-.661,4.86-4.864,7.339-5.745,2.18-.534-3.128,1.4-5.16.145-8.582Zm-1.948-.785c-1.644-.461-1.287-5.093.366-4.63S244.17,160.8,242.547,160.346Z" transform="translate(-241.479 -155.684)" fill="#391b8b"/>
            </g>
            <g id="Group_559" data-name="Group 559" transform="translate(62.635 92.001)">
              <path id="Path_3685" data-name="Path 3685" d="M263.8,237.829a12.626,12.626,0,0,1,.546-4.46c1.381-4.676-.554-6.762-1.729-5.185-.894,1.2.214.809.635,1.834a3.766,3.766,0,0,1-.049,2.554c-.348.71-1.149.936-1.641.012a6.048,6.048,0,0,1,.325-5c1.834-3.124,5.747-1.1,5.02,3.7-.442,2.909-2.489,2.658-2.451,6.475Zm1.287,2.429c1.14,1.895-.4,5.129-1.544,3.223S263.965,238.389,265.091,240.258Z" transform="translate(-261.171 -226.084)" fill="#c3375d"/>
            </g>
            <g id="Group_560" data-name="Group 560" transform="translate(132.899 95.492)">
              <path id="Path_3686" data-name="Path 3686" d="M513.443,252.627c2.273-1.931,4.02-2.331,6.263-1.722,7.316,1.782,8.21-8.738,5.084-12.481-2.379-2.849-.845,1.7-1.777,4.519-.556,1.681-2.109,3.029-3.341,2.152s-2.276-4.225-1.54-7.262c.811-3.347,3.831-5.877,6.76-3.208,5.735,5.227,6.754,24.462-.114,25.694-4.164.744-5.742-8.565-10.632-4.852Zm-1.94,7.962c-1.385,6.816-6.987,3-5.593-3.851C507.312,249.833,512.87,253.86,511.5,260.589Z" transform="translate(-505.689 -233.507)" fill="#d7dbd1"/>
            </g>
            <g id="Group_561" data-name="Group 561" transform="translate(16.676 350.096)">
              <path id="Path_3687" data-name="Path 3687" d="M113.4,780.029a2.811,2.811,0,0,1-3,.451c-3.439-1.273-4.042,3.663-2.623,5.621,1.079,1.49.43-.758.919-2.039.292-.765,1.052-1.312,1.621-.825a3.98,3.98,0,0,1,.606,3.533c-.442,1.539-1.916,2.563-3.26,1.125-2.63-2.814-2.786-11.993.492-12.176,1.987-.109,2.577,4.4,4.959,2.923Zm1.055-3.661c.773-3.15,3.364-1.016,2.586,2.153C116.258,781.712,113.692,779.478,114.454,776.368Z" transform="translate(-105.693 -774.82)" fill="#a15df9"/>
            </g>
          </g>
        </g>
        <path id="Path_3689" data-name="Path 3689" d="M75.946,811.992a187.9,187.9,0,0,0-4.171,24.676A57.708,57.708,0,0,0,74.725,861.7C61.038,889.85,29.533,931.369,26.82,951.273c-1.652,11.973,9.085,16.172,14.277,20.371,4.956,2.177,10.383.622,13.687,5.909,2.36,3.887-.826,10.419-1.534,15.24-.118,7.93-7.2,11.818-6.489,19.126.709,6.22,4.72,8.708,8.378,12.6,3.894,4.043-9.912,11.818-5.429,18.971,4.6,7,11.328,15.083,8.967,25.036-3.422,15.394-10.03,31.411-4.6,43.384,5.429,11.818,12.979,18.815,24.661,21.925,14.387,0,28.849.291,43.326.414,8.063.069,15.4,6.112,19.006,15.607a112.91,112.91,0,0,1,7.166,47.113H333.6c-7.788-48.207-17.11-127.511-13.1-146.948,6.608-32.966,27.964-57.846,35.989-84.282,17.132-56.381,18.287-109.7,5.523-153.742H75.946Z" transform="translate(-26.649 -440.412)" fill="#c84b4b"/>
      </g>
    </g>
  </g>
</svg>
