<svg xmlns="http://www.w3.org/2000/svg" xmlns:xlink="http://www.w3.org/1999/xlink" width="856.468" height="606.597" viewBox="0 0 856.468 606.597">
  <defs>
    <linearGradient id="linear-gradient" x1="0.5" y1="1" x2="0.5" gradientUnits="objectBoundingBox">
      <stop offset="0" stop-color="gray" stop-opacity="0.251"/>
      <stop offset="0.54" stop-color="gray" stop-opacity="0.122"/>
      <stop offset="1" stop-color="gray" stop-opacity="0.102"/>
    </linearGradient>
    <linearGradient id="linear-gradient-2" x1="0.5" y1="1" x2="0.5" y2="0" xlink:href="#linear-gradient"/>
  </defs>
  <g id="undraw_medicine_b1ol" transform="translate(0.005 0.006)">
    <ellipse id="Ellipse_11" data-name="Ellipse 11" cx="75.512" cy="12.128" rx="75.512" ry="12.128" transform="translate(209.301 581.994)" fill="#6c63ff" opacity="0.1"/>
    <ellipse id="Ellipse_12" data-name="Ellipse 12" cx="94.227" cy="12.128" rx="94.227" ry="12.128" transform="translate(601.059 582.335)" fill="#6c63ff" opacity="0.1"/>
    <path id="Path_46" data-name="Path 46" d="M60.612,396.83h78.651v107.2H66.37c-.194,1.1-.38,2.209-.581,3.317h73.474V593.8c-.132-.039-.248-.085-.372-.132-2.077-.821-4.138-1.689-6.2-2.619l-1.317-.6q-3.1-1.465-6.2-3.1c-.721-.38-1.441-.775-2.154-1.178a128.966,128.966,0,0,1-30.905-24.148c-.263-.256-.511-.527-.775-.775-1.255-1.364-2.488-2.743-3.681-4.154l-1.317-1.55c-1.41-1.728-2.774-3.5-4.1-5.3-.194-.263-.38-.527-.581-.775a115.375,115.375,0,0,1-13.329-24.1c-.108-.256-.2-.535-.3-.775q-1.6-4.107-2.829-8.292c-.356-1.17-.7-2.325-.992-3.542-.108-.357-.2-.705-.287-1.054C59.519,494.529,59,476.682,59,458.959v-6.2c0-7.168.085-14.383.209-21.59,0-1.868.077-3.728.116-5.6q.163-7.137.465-14.275c.046-1.325.108-2.643.178-3.96a22.428,22.428,0,0,1,.116-2.278C60.271,402.293,60.426,399.558,60.612,396.83Z" transform="translate(-49.778 -134.74)" fill="#6c63ff" opacity="0.1"/>
    <path id="Path_47" data-name="Path 47" d="M150.042,226.976H106.9a327.044,327.044,0,0,1,22.947-31.587c6.409-7.874,13.174-15.546,20.2-22.939Z" transform="translate(-60.558 -84.245)" fill="#6c63ff" opacity="0.1"/>
    <path id="Path_48" data-name="Path 48" d="M139.8,247.09V359.816H61.4c0-.325.054-.659.077-.984.07-.891.139-1.782.217-2.666.085-1.038.178-2.085.279-3.1s.209-2.255.325-3.379.225-2.263.356-3.387.248-2.247.387-3.363.263-2.247.411-3.363c.116-.93.24-1.852.364-2.782.178-1.31.364-2.627.566-3.929a3.622,3.622,0,0,1,.085-.581,268.058,268.058,0,0,1,5.773-28.3,209.3,209.3,0,0,1,9.726-28.673A215.251,215.251,0,0,1,94.6,247.129Z" transform="translate(-50.319 -101.042)" fill="#6c63ff" opacity="0.1"/>
    <path id="Path_49" data-name="Path 49" d="M186.8,320.712V427.92H354.788V320.712Zm0,110.517v92.065c.961.2,1.914.4,2.86.558,1.286.248,2.565.473,3.875.667.248.039.5.077.775.1.511.085,1.038.155,1.55.225,1.294.178,2.581.326,3.875.442.612.062,1.232.116,1.852.163l1.5.116h0c.814.062,1.62.109,2.418.132.5,0,.992.047,1.5.062h5.525c.666,0,1.333,0,1.992-.062h.047a10.444,10.444,0,0,0,1.387-.062,3.257,3.257,0,0,0,.387,0,8.01,8.01,0,0,0,1.147-.054h.271l2.6-.2c.852-.077,1.713-.178,2.581-.271l1.767-.209a154.57,154.57,0,0,0,21.273-4.526c15.67-4.371,31-10.485,46.66-14.964,20.25-5.773,42.623-8.61,62.191-1.55V431.23ZM354.788,201.361V58.636a215.959,215.959,0,0,0-54.581,6.4C257.67,75.724,219.5,98.9,186.8,128.507v72.846h8.432v3.309H186.8V317.4H354.788V204.67H229.849v-3.309ZM570.56,153.15c-10.524-.372-20.986-3.7-30.448-8.85-18.1-9.842-32.548-25.039-48.7-37.865C457.858,79.723,416.242,63.6,373.55,59.605V201.361H613.361l.6-.628Zm21.846-3.875,23.164,25.419V142.611c-7.757.961-14.554,3.247-23.133,6.634Zm23.164,396.88V431.23H566.213c-.132-.488-.263-.984-.418-1.48.147.5.271.992.411,1.48H373.581v83.114c1.829,1.356,3.635,2.782,5.425,4.231h0c1.93,1.55,3.836,3.185,5.75,4.789l1.93,1.6c.922.775,1.852,1.55,2.79,2.278q2.79,2.263,5.634,4.464c.938.775,1.9,1.472,2.852,2.2a388.429,388.429,0,0,0,47.761,31.239q5.6,3.1,11.307,6.052c2.534,1.294,5.084,2.581,7.641,3.828q5.766,2.813,11.624,5.425h0a426.88,426.88,0,0,0,113.144,32.959q13.011,1.922,26.124,3.022V546.148h.775ZM373.581,204.67V317.4H615.6V204.67Zm0,116.043V427.92H615.6V320.712ZM634.386,142.472v35.788l29.565-32.44q-14.693-2.371-29.565-3.387Zm0,178.28V427.92H869.78V320.712ZM868.92,554.665l.829-123.436H634.386V617.662a422.128,422.128,0,0,0,45.49-.542h.263q10.849-.682,21.6-1.984h.163a397.743,397.743,0,0,0,110.974-29.611M915.17,338.366c-.883-2.085-1.806-4.154-2.743-6.2-1.751-3.875-3.6-7.641-5.51-11.407H888.55V427.92h46.436c-.023-30.347-7.7-61.346-19.793-89.593Zm-26.62,92.9v106.17a152.094,152.094,0,0,0,32.091-43.281c9.571-19.746,13.949-41.127,14.306-62.9Zm0-141.756v27.9H905.2a302.229,302.229,0,0,0-16.623-27.937ZM728.908,163.5c-1.224-.465-2.449-.938-3.681-1.395a336.034,336.034,0,0,0-39.763-11.95l-45.242,49.652h0l-.868.922.581.635H800.956a344.4,344.4,0,0,0-72.025-37.9Zm76.768,41.2H637.687l-3.3,3.022V317.4H869.811V264.28A335.4,335.4,0,0,0,805.7,204.67Z" transform="translate(-78.539 -58.63)" fill="#6c63ff" opacity="0.1"/>
    <path id="Path_50" data-name="Path 50" d="M139.8,320.46v55.867H61.4c0-.326.054-.659.077-.984.07-.891.139-1.782.217-2.666.085-1.038.178-2.085.279-3.1s.209-2.255.325-3.379.225-2.263.356-3.387.248-2.247.387-3.363.263-2.247.411-3.363c.116-.93.24-1.852.364-2.782.178-1.31.364-2.627.566-3.929a3.624,3.624,0,0,1,.085-.581,268.064,268.064,0,0,1,5.773-28.3Z" transform="translate(-50.319 -117.554)" fill="#6c63ff" opacity="0.1"/>
    <path id="Path_51" data-name="Path 51" d="M60.612,396.83h78.651v107.2H66.37c-.194,1.1-.38,2.209-.581,3.317h73.474V593.8c-.132-.039-.248-.085-.372-.132-2.077-.821-4.138-1.689-6.2-2.619l-1.317-.6q-3.1-1.465-6.2-3.1c-.721-.38-1.441-.775-2.154-1.178a128.966,128.966,0,0,1-30.905-24.148c-.263-.256-.511-.527-.775-.775-1.255-1.364-2.488-2.743-3.681-4.154l-1.317-1.55c-1.41-1.728-2.774-3.5-4.1-5.3-.194-.263-.38-.527-.581-.775a115.375,115.375,0,0,1-13.329-24.1c-.108-.256-.2-.535-.3-.775q-1.6-4.107-2.829-8.292c-.356-1.17-.7-2.325-.992-3.542-.108-.357-.2-.705-.287-1.054C59.519,494.529,59,476.682,59,458.959v-6.2c0-7.168.085-14.383.209-21.59,0-1.868.077-3.728.116-5.6q.163-7.137.465-14.275c.046-1.325.108-2.643.178-3.96a22.428,22.428,0,0,1,.116-2.278C60.271,402.293,60.426,399.558,60.612,396.83Z" transform="translate(-49.778 -134.74)" fill="#6c63ff" opacity="0.1"/>
    <path id="Path_52" data-name="Path 52" d="M198.7,199.783v96.591H139.56V199.783h8.432v-32.7H182.6v32.7Z" transform="translate(-31.299 -37.601)" fill="#6c63ff" opacity="0.1"/>
    <rect id="Rectangle_12" data-name="Rectangle 12" width="59.129" height="107.2" transform="translate(108.269 262.082)" fill="#6c63ff" opacity="0.1"/>
    <path id="Path_53" data-name="Path 53" d="M186.8,539.44h59.137v89.12a154.294,154.294,0,0,1-21.273,4.518l-1.767.217c-.868.1-1.728.186-2.581.271s-1.736.147-2.6.2h-.271c-.372,0-.775.046-1.139.054h-.4c-.465,0-.93.046-1.395.062h0c-.659.039-1.317.047-1.992.054h-5.487l-1.5-.054c-.775,0-1.612-.085-2.418-.139h0l-1.488-.109-1.852-.171c-1.3-.116-2.6-.263-3.875-.442l-1.55-.217-.775-.109c-1.294-.2-2.573-.418-3.875-.667-.953-.163-1.9-.364-2.86-.558Z" transform="translate(-78.539 -166.833)" fill="#6c63ff" opacity="0.1"/>
    <rect id="Rectangle_13" data-name="Rectangle 13" width="48.761" height="107.991" transform="translate(488.302 150.775)" fill="#6c63ff" opacity="0.1"/>
    <path id="Path_54" data-name="Path 54" d="M622.608,338.19V445.4H380.58V399.156H509.495v27.279H573.84V338.19Z" transform="translate(-85.538 -76.108)" fill="#6c63ff" opacity="0.1"/>
    <path id="Path_55" data-name="Path 55" d="M670.615,653.952h-.775V724.28q-13.1-1.108-26.116-3.015a426.9,426.9,0,0,1-113.191-33.029q-15.6-7.021-30.565-15.329A390.022,390.022,0,0,1,452.2,641.669q-5.7-4.371-11.26-8.943c-2.565-2.116-5.115-4.285-7.7-6.393-1.79-1.449-3.6-2.875-5.425-4.239V539.01H620.436c-.132-.5-.263-.992-.4-1.48.147.488.287.984.418,1.48H669.84v114.9C670.1,653.914,670.359,653.937,670.615,653.952Z" transform="translate(-132.778 -166.403)" fill="#6c63ff" opacity="0.1"/>
    <path id="Path_56" data-name="Path 56" d="M894.993,231.4H863.22V221.53h14.244V192.12q1.852.674,3.689,1.387V221.53h13.841Z" transform="translate(-230.76 -88.672)" fill="#6c63ff" opacity="0.1"/>
    <path id="Path_57" data-name="Path 57" d="M949.3,359.816H793.313l.054.039-.07-.039H764.36V251.825h8.2v79.821h37.469V284.373H840.98V247.09h31.773V284.4h30.952v47.273H949.3Z" transform="translate(-208.512 -101.042)" fill="#6c63ff" opacity="0.1"/>
    <path id="Path_58" data-name="Path 58" d="M764.36,396.82V504.028H949.3V396.82ZM999.5,630.223l.256-84.858H949.3V507.391H764.36V693.769a422.113,422.113,0,0,0,45.49-.542h.263q10.85-.682,21.6-1.984h.163a397.744,397.744,0,0,0,110.974-29.611" transform="translate(-208.512 -134.738)" fill="#6c63ff" opacity="0.1"/>
    <path id="Path_59" data-name="Path 59" d="M1095.625,539.44h43.142c-.38,21.769-4.75,43.15-14.313,62.9a152.139,152.139,0,0,1-32.083,43.281v-68.2h3.255Z" transform="translate(-282.328 -166.833)" fill="#6c63ff" opacity="0.1"/>
    <path id="Path_60" data-name="Path 60" d="M1139.735,509.143H1096.57V419.55h23.357C1132.017,447.8,1139.7,478.8,1139.735,509.143Z" transform="translate(-283.273 -139.853)" fill="#6c63ff" opacity="0.1"/>
    <rect id="Rectangle_14" data-name="Rectangle 14" width="26.124" height="33.858" transform="translate(510.946 180.797)" fill="#6c63ff" opacity="0.1"/>
    <rect id="Rectangle_15" data-name="Rectangle 15" width="26.124" height="7.796" transform="translate(510.946 250.977)" fill="#6c63ff" opacity="0.1"/>
    <rect id="Rectangle_16" data-name="Rectangle 16" width="26.124" height="22.745" transform="translate(510.946 262.082)" fill="#6c63ff" opacity="0.1"/>
    <rect id="Rectangle_17" data-name="Rectangle 17" width="26.124" height="33.858" transform="translate(510.946 321.158)" fill="#6c63ff" opacity="0.1"/>
    <rect id="Rectangle_18" data-name="Rectangle 18" width="26.124" height="33.858" transform="translate(510.946 391.338)" fill="#6c63ff" opacity="0.1"/>
    <path id="Path_61" data-name="Path 61" d="M732.536,680.154a4.293,4.293,0,0,1,.775.047h-.775v7.866H706.42v-33.9h26.116Z" transform="translate(-195.474 -192.652)" fill="#6c63ff" opacity="0.1"/>
    <path id="Path_62" data-name="Path 62" d="M732.536,744.71v26.155q-13.1-1.108-26.116-3.015V744.71Z" transform="translate(-195.474 -213.027)" fill="#6c63ff" opacity="0.1"/>
    <rect id="Rectangle_19" data-name="Rectangle 19" width="111.959" height="2.488" transform="translate(295.042 366.803)" fill="#6c63ff" opacity="0.1"/>
    <rect id="Rectangle_20" data-name="Rectangle 20" width="111.959" height="9.532" transform="translate(295.042 372.6)" fill="#6c63ff" opacity="0.1"/>
    <rect id="Rectangle_21" data-name="Rectangle 21" width="111.959" height="15.329" transform="translate(295.042 413.378)" fill="#6c63ff" opacity="0.1"/>
    <path id="Path_63" data-name="Path 63" d="M541.344,652.15v15.329h-87.57q-5.7-4.355-11.268-8.943c-2.565-2.116-5.107-4.286-7.7-6.386Z" transform="translate(-134.351 -192.197)" fill="#6c63ff" opacity="0.1"/>
    <path id="Path_64" data-name="Path 64" d="M560.722,712.233v15.313h-9.245q-15.584-7.029-30.557-15.336Z" transform="translate(-153.729 -205.713)" fill="#6c63ff" opacity="0.1"/>
    <rect id="Rectangle_22" data-name="Rectangle 22" width="22.04" height="22.04" transform="translate(601.346 272.475)" fill="#6c63ff" opacity="0.1"/>
    <rect id="Rectangle_23" data-name="Rectangle 23" width="22.04" height="22.04" transform="translate(124.14 169.785)" fill="#6c63ff" opacity="0.1"/>
    <rect id="Rectangle_24" data-name="Rectangle 24" width="22.04" height="22.04" transform="translate(124.14 220.979)" fill="#6c63ff" opacity="0.1"/>
    <rect id="Rectangle_25" data-name="Rectangle 25" width="22.04" height="22.04" transform="translate(124.14 272.172)" fill="#6c63ff" opacity="0.1"/>
    <rect id="Rectangle_26" data-name="Rectangle 26" width="22.04" height="22.04" transform="translate(124.14 323.359)" fill="#6c63ff" opacity="0.1"/>
    <rect id="Rectangle_27" data-name="Rectangle 27" width="22.04" height="22.04" transform="translate(124.14 374.552)" fill="#6c63ff" opacity="0.1"/>
    <rect id="Rectangle_28" data-name="Rectangle 28" width="22.04" height="22.04" transform="translate(124.14 425.746)" fill="#6c63ff" opacity="0.1"/>
    <rect id="Rectangle_29" data-name="Rectangle 29" width="22.04" height="22.04" transform="translate(685.483 272.475)" fill="#6c63ff" opacity="0.1"/>
    <rect id="Rectangle_30" data-name="Rectangle 30" width="22.04" height="22.04" transform="translate(601.346 326.838)" fill="#6c63ff" opacity="0.1"/>
    <rect id="Rectangle_31" data-name="Rectangle 31" width="22.04" height="22.04" transform="translate(685.483 326.838)" fill="#6c63ff" opacity="0.1"/>
    <rect id="Rectangle_32" data-name="Rectangle 32" width="22.04" height="22.04" transform="translate(601.346 381.194)" fill="#6c63ff" opacity="0.1"/>
    <rect id="Rectangle_33" data-name="Rectangle 33" width="22.04" height="22.04" transform="translate(685.483 381.194)" fill="#6c63ff" opacity="0.1"/>
    <rect id="Rectangle_34" data-name="Rectangle 34" width="22.04" height="22.04" transform="translate(601.346 435.557)" fill="#6c63ff" opacity="0.1"/>
    <rect id="Rectangle_35" data-name="Rectangle 35" width="22.04" height="22.04" transform="translate(685.483 435.557)" fill="#6c63ff" opacity="0.1"/>
    <rect id="Rectangle_36" data-name="Rectangle 36" width="22.04" height="22.04" transform="translate(601.346 489.921)" fill="#6c63ff" opacity="0.1"/>
    <rect id="Rectangle_37" data-name="Rectangle 37" width="22.04" height="22.04" transform="translate(685.483 489.921)" fill="#6c63ff" opacity="0.1"/>
    <path id="Path_65" data-name="Path 65" d="M775.83,716.543V702.33h22.032v12.19Z" transform="translate(-174.485 -158.054)" fill="#6c63ff" opacity="0.1"/>
    <path id="Path_66" data-name="Path 66" d="M65.24,357v12.609h75.427V357Zm7.517,11.818H66.6V357.775h6.2Zm7.509,0h-6.2V357.775h6.2Zm7.494,0h-6.2V357.775h6.2Zm7.509,0H89.078V357.775h6.2Zm7.5,0h-6.2V357.775h6.2Zm7.509,0h-6.2V357.775h6.2Zm7.509,0h-6.2V357.775h6.2Zm7.5,0h-6.2V357.775h6.2Zm7.5,0h-6.2V357.775h6.2Zm7.5,0h-6.2V357.775h6.2Z" transform="translate(-51.183 -125.777)" fill="#6c63ff" opacity="0.1"/>
    <path id="Path_67" data-name="Path 67" d="M65.24,404.34v12.609h75.427V404.34Zm7.517,11.81H66.6V405.138h6.2Zm7.509,0h-6.2V405.138h6.2Zm7.494,0h-6.2V405.138h6.2Zm7.509,0H89.078V405.138h6.2Zm7.5,0h-6.2V405.138h6.2Zm7.509,0h-6.2V405.138h6.2Zm7.509,0h-6.2V405.138h6.2Zm7.5,0h-6.2V405.138h6.2Zm7.5,0h-6.2V405.138h6.2Zm7.5,0h-6.2V405.138h6.2Z" transform="translate(-51.183 -136.43)" fill="#6c63ff" opacity="0.1"/>
    <path id="Path_68" data-name="Path 68" d="M65.24,451.7v12.632h75.427V451.7Zm7.517,11.81H66.6V452.49h6.2Zm7.509,0h-6.2V452.49h6.2Zm7.494,0h-6.2V452.49h6.2Zm7.509,0H89.078V452.49h6.2Zm7.5,0h-6.2V452.49h6.2Zm7.509,0h-6.2V452.49h6.2Zm7.509,0h-6.2V452.49h6.2Zm7.5,0h-6.2V452.49h6.2Zm7.5,0h-6.2V452.49h6.2Zm7.5,0h-6.2V452.49h6.2Z" transform="translate(-51.183 -147.088)" fill="#6c63ff" opacity="0.1"/>
    <path id="Path_69" data-name="Path 69" d="M65.24,499.06v12.593h75.427V499.06Zm7.517,11.81H66.6V499.843h6.2Zm7.509,0h-6.2V499.843h6.2Zm7.494,0h-6.2V499.843h6.2Zm7.509,0H89.078V499.843h6.2Zm7.5,0h-6.2V499.843h6.2Zm7.509,0h-6.2V499.843h6.2Zm7.509,0h-6.2V499.843h6.2Zm7.5,0h-6.2V499.843h6.2Zm7.5,0h-6.2V499.843h6.2Zm7.5,0h-6.2V499.843h6.2Z" transform="translate(-51.183 -157.746)" fill="#6c63ff" opacity="0.1"/>
    <path id="Path_70" data-name="Path 70" d="M65.66,546.41c.3,1.186.643,2.371,1,3.542V547.2h6.2v11.02H69.543c.1.256.2.535.3.775h70.917V546.41Zm14.724,11.81h-6.2V547.2h6.2Zm7.494,0h-6.2V547.2h6.2Zm7.509,0H89.172V547.2h6.2Zm7.5,0h-6.2V547.2h6.2Zm7.509,0h-6.2V547.2h6.2Zm7.509,0h-6.2V547.2h6.2Zm7.5,0h-6.2V547.2h6.2Zm7.5,0h-6.2V547.2h6.2Zm7.5,0h-6.2V547.2h6.2Z" transform="translate(-51.277 -168.401)" fill="#6c63ff" opacity="0.1"/>
    <path id="Path_71" data-name="Path 71" d="M88.26,593.77c.194.248.38.527.581.775h4.1v5.293c.442.527.876,1.054,1.325,1.55v-6.874h6.2v11.059H97.955c.248.256.488.527.775.775h47.141V593.77Zm19.692,11.8h-6.2V594.56h6.2Zm7.509,0h-6.2V594.56h6.2Zm7.509,0h-6.2V594.56h6.2Zm7.5,0h-6.2V594.56h6.2Zm7.5,0h-6.2V594.56h6.2Zm7.5,0h-6.2V594.56h6.2Z" transform="translate(-56.363 -179.059)" fill="#6c63ff" opacity="0.1"/>
    <path id="Path_72" data-name="Path 72" d="M141.65,641.12c.705.4,1.426.775,2.154,1.178v-.388H150V645.4l1.317.612v-4.1h6.2v6.7a1.932,1.932,0,0,0,.372.14V641.12Z" transform="translate(-68.378 -189.715)" fill="#6c63ff" opacity="0.1"/>
    <path id="Path_73" data-name="Path 73" d="M665.8,358.846ZM618.059,587.568ZM568.252,471.192c.147.5.271.992.411,1.48h0C568.539,472.184,568.407,471.688,568.252,471.192ZM665.8,358.823ZM197.72,242.78v3.309h34.617V242.78ZM618.059,587.568ZM568.252,471.192c.147.5.271.992.411,1.48h0C568.539,472.184,568.407,471.688,568.252,471.192ZM665.8,358.823ZM618.059,587.544ZM568.252,471.192c.147.5.271.992.411,1.48h0C568.539,472.184,568.407,471.688,568.252,471.192Z" transform="translate(-80.996 -100.072)" fill="#6c63ff" opacity="0.1"/>
    <path id="Path_74" data-name="Path 74" d="M460.857,388.759s-3.053-.426-3.053-4.874-2.185-12.756-2.185-12.756h0c0-.039-1.891-14.469-4.5-16.762s-5.967-15.763-5.967-15.763-.573-7.308-1.744-8.881-2.751-5.425-5.084-10.919-12.058-9.3-12.058-9.3-17.584-10.2-22.567-13.523h0a7.643,7.643,0,0,1-1.263-.953c-.868-1.139-4.65-1.162-4.65-1.162a76.2,76.2,0,0,1-.9-7.959,6.051,6.051,0,0,0-.039-.837,26.813,26.813,0,0,0,11.787-14.585c.093-.294.171-.6.256-.9a2.519,2.519,0,0,0,1.511-1.364c.449-1,.457-2.17,1.015-3.1.651-1.1,1.891-1.689,2.867-2.519,2.464-2.092,3.1-5.618,2.984-8.827-.078-2.6-.5-5.215-.333-7.8l.046-.651c.046-.387.1-.775.17-1.147.38-1.922,1.209-3.735,1.674-5.642a7.258,7.258,0,0,0-.573-5.7c-1.589-2.41-4.9-2.891-7.8-3.139-3.294-.279-6.238.085-8.346-2.65a29.751,29.751,0,0,0-3.317-4.007c-.434-.4-4.65-2.976-4.65-3.146A18.839,18.839,0,0,0,381,218.9c-2.185.635-4.247,1.674-6.463,2.193-4.782,1.131-10.284-.093-14.345,2.643-2.263,1.55-3.619,4.014-4.89,6.417q-1.55,2.968-3.146,5.928c-1.713,3.247-3.456,6.548-4.177,10.144a16.1,16.1,0,0,0-.279,2.371h0v1.263a4.167,4.167,0,0,0,.047.775c.047.24.039.318.062.48s.062.527.108.775.139.682.233,1.023c.039.147.093.287.139.426.078.263.171.519.271.775.054.132.108.271.171.4a7.252,7.252,0,0,0,.4.775c.062.109.108.209.171.31a10.287,10.287,0,0,0,.713,1.038c1.658,2.069,4.1,3.387,5.905,5.324v.868a26.527,26.527,0,0,0,12.074,21.66c0,.294.039.6.054.891a44.346,44.346,0,0,1-.085,6.9,3.255,3.255,0,0,0-2.573-1.147,3.711,3.711,0,0,0-.992.085l-.07-.054h0v.07c-1.7.418-3.805,2.193-5.812,7.238,0,0-6.107,6.882-10.756,6.595s-16.421,7.161-16.421,7.161-11.485,7.455-13.949,15.05a106.061,106.061,0,0,1-4.944,12.616l-14.2,29.255h0l-2.619,23.21s1.449,10.323,1.162,11.9,5.959,15.763,5.959,15.763,20.637,36.26,29.069,38.12l.6-.426a4.942,4.942,0,0,0,1.139.426l1.736-1.224a18.919,18.919,0,0,1-.132,4.092c-1.162,3.58.434,26.945,2.464,31.525s1.31,64.632,1.31,64.632l-.287,5.3a2.247,2.247,0,0,0,.07.465l-.07,1.255.209.109a14.926,14.926,0,0,1-.209,5.045c-.728,2.325-1.023,8.9-1.023,8.9s-5.8,37.105-3.053,44.56,5.091,15.623,5.091,15.623,2.906,9.3.139,10.888-10.632,4.255-9.013,8.129c1.472,3.58,7.06,13.174,7.889,14.577l-.07.736L337.468,685.1a15.5,15.5,0,0,0,1.31,4.712c1.248,2.689,3.673,5.479,8.284,5.177.775-.054,1.674-.147,2.542-.263,8.439-1.131,18.832-4.9,18.832-4.9a7.681,7.681,0,0,1-1.472-1.217h0a4.255,4.255,0,0,1-1.294-3.1c.124-2.247-4.084-12.957-5.13-15.592-.163-.38-.248-.6-.248-.6s9.594-10.028,8-18.917c0,0-10.617-6.2-7.122-9.6s9.741-13.174,9.741-13.174.287-36.539,0-42a45.179,45.179,0,0,1,.535-11.338c.116-.566.256-1.116.4-1.658a101.175,101.175,0,0,0,14.6,1.108c1.782,0,3.6,0,5.425-.109q0,.775.07,1.674c.4,9.052,1.155,24.923,1.767,30.82.868,8.455,5.665,31.239,5.665,31.239s-9.152,5.874,1.6,20.35c0,0,0,5.247-.713,6.006h0a65.7,65.7,0,0,0-1.837,7.564c-.449,2.728-.635,5.487.093,6.92,1.744,3.425,12.206,3.146,12.206,3.146h0l.256-.047a15,15,0,0,1,11.074,3.34c3.976,3.193,19.064,1.79,27.232.775,3.2-.4,5.339-.775,5.339-.775a3.1,3.1,0,0,0,.109-1.116h0c-.085-2.007-1.658-6.409-12.322-10.338,0,0-10.028-6.742-9.888-12.616h-1.372a10.943,10.943,0,0,1,1.387,0s-3.929-14.337-2.325-15.5-3.2-17.049-3.2-17.049-2.751-26.659-2.9-28.526a16.276,16.276,0,0,1,.721-4.727l-.721-14.616s-.139-4.859,0-6.44a32.157,32.157,0,0,0-.333-4.1c-.07-.542-.139-1.108-.217-1.666,3.759-.953,6.2-1.837,6.2-1.837l-.434-50.876c3.193-6.2,3.782-19.8,3.766-29.449,0-6.2-.279-10.787-.279-10.787l4.363-7.122s1.007-8.525-.589-10.392a1.789,1.789,0,0,1,.194-2.441,8.106,8.106,0,0,1,.953-.651s-.047-.07-.1-.171a7.7,7.7,0,0,1,.969-.69s-1.55-2.4-.163-3.418c1.3.883,2.464,1.55,3.348,2.092-.062.566-.124.891-.124.891l.372-.775c.852.48,1.372.775,1.372.775s6.835-13.616,6.688-15.623,4.65-10.462,4.65-10.462.581-4.441,3.2-6.3,2.03-15.337,2.03-15.337.728-7.021,2.472-9.888S460.857,388.759,460.857,388.759Zm-130.782-5.975.132,3.247-1.333-2.147Z" transform="translate(-103.027 -94.532)" fill="url(#linear-gradient)"/>
    <path id="Path_75" data-name="Path 75" d="M481.561,507.815l-1.674,7.13s-13.407-6.843-15.825-15.538,4.045-12,4.045-12L480.6,492.7Z" transform="translate(-140.812 -155.124)" fill="#fff"/>
    <path id="Path_76" data-name="Path 76" d="M481.561,507.815l-1.674,7.13s-13.407-6.843-15.825-15.538,4.045-12,4.045-12L480.6,492.7Z" transform="translate(-140.812 -155.124)" opacity="0.1"/>
    <path id="Path_77" data-name="Path 77" d="M380.9,818.652s-12.4,4.557-20.924,5.13c-4.526.3-6.9-2.472-8.129-5.146a15.578,15.578,0,0,1-1.279-4.689l1.108-12.283.589-6.541,18.111-4.7,2.565,7.842.24.6c1.031,2.619,5.161,13.275,5.037,15.5a4.231,4.231,0,0,0,1.271,3.061A7.372,7.372,0,0,0,380.9,818.652Z" transform="translate(-115.393 -223.313)" fill="#fff"/>
    <path id="Path_78" data-name="Path 78" d="M482.837,812.169a3.1,3.1,0,0,1-.109,1.108s-26.519,4.425-31.944,0a14.368,14.368,0,0,0-11.159-3.27s-10.26.279-11.973-3.1c-.713-1.418-.527-4.169-.085-6.882a65.572,65.572,0,0,1,1.8-7.525l.411-.325,2.441-1.961,28.581-.845h.217c-.14,5.843,9.7,12.547,9.7,12.547C481.17,805.791,482.713,810.17,482.837,812.169Z" transform="translate(-132.632 -223.077)" fill="#fff"/>
    <path id="Path_79" data-name="Path 79" d="M482.838,815.264a3.161,3.161,0,0,1-.116,1.108s-26.511,4.425-31.936,0a14.368,14.368,0,0,0-11.152-3.27s-10.268.279-11.973-3.1c-.713-1.426-.535-4.169-.093-6.882,3.952.4,10.191,1.379,12.64,3.727,3.7,3.573,9.981,7.137,13.833,7.416C457.055,814.458,475.088,815.031,482.838,815.264Z" transform="translate(-132.634 -226.171)" opacity="0.1"/>
    <path id="Path_80" data-name="Path 80" d="M381.276,826.5s-12.4,4.557-20.924,5.13c-4.526.3-6.9-2.472-8.122-5.154,3.154,1.062,7.533,2.178,9.834,1.155,2.728-1.209,12.4-1.992,17.824-2.325a7.63,7.63,0,0,0,1.387,1.193Z" transform="translate(-115.767 -231.165)" opacity="0.1"/>
    <path id="Path_81" data-name="Path 81" d="M407.463,339.5c-10.229-3.976-23.388-17.111-20.1-23.249a13.733,13.733,0,0,0,1.279-4.929,45.01,45.01,0,0,0,.093-6.975A95.523,95.523,0,0,0,387.361,293s31.936.721,30.076,5.425a17.587,17.587,0,0,0-.48,6.455c.147,2.681.535,5.711.938,8.277.558,3.518,1.116,6.2,1.116,6.2s-1.953,2.736-3.1,2.883S422.141,345.163,407.463,339.5Z" transform="translate(-123.557 -111.374)" fill="#cf6f80"/>
    <path id="Path_82" data-name="Path 82" d="M373.475,798.859l-.24.263c-9.548-11.547-21.094,2.844-21.094,2.844l-.171-.3.589-6.541,18.111-4.7,2.565,7.842Z" transform="translate(-115.708 -223.313)" opacity="0.1"/>
    <path id="Path_83" data-name="Path 83" d="M461.661,790.175s-6.975-.147-10.694,3.138-21.7.713-20.924,0a2.549,2.549,0,0,0,.4-1.178l2.441-1.961,28.581-.845C461.576,789.849,461.661,790.175,461.661,790.175Z" transform="translate(-133.272 -223.068)" opacity="0.1"/>
    <path id="Path_84" data-name="Path 84" d="M383.065,668.965a21.562,21.562,0,0,0-1.178,3.975,45.5,45.5,0,0,0-.535,11.283c.287,5.425,0,41.778,0,41.778s-6.13,9.695-9.548,13.112,6.975,9.555,6.975,9.555c1.55,8.834-7.843,18.816-7.843,18.816-9.548-11.547-21.094,2.852-21.094,2.852s-6.277-10.849-7.843-14.724,6.13-6.556,8.835-8.129-.132-10.849-.132-10.849-2.286-8.129-5-15.546,2.991-44.336,2.991-44.336.294-6.556,1-8.842a14.788,14.788,0,0,0,.209-5.022c-.047-.566-.1-1.038-.14-1.356s-.07-.465-.07-.465l.108-.186,3.875-7.223S384.925,664.416,383.065,668.965Z" transform="translate(-113.418 -192.537)" fill="#6c63ff"/>
    <path id="Path_85" data-name="Path 85" d="M459.229,760.992s-6.975-.147-10.694,3.1-21.7.713-20.924,0,.713-5.99.713-5.99c-10.547-14.4-1.55-20.242-1.55-20.242s-4.712-22.668-5.564-31.076c-.6-5.874-1.333-21.66-1.728-30.673-.17-3.875-.271-6.541-.271-6.541l8.618-1.736,1.108-.225,20.784-4.169s.573,3.875.961,7.044a32.926,32.926,0,0,1,.326,4.084c-.139,1.55,0,6.4,0,6.4l.705,14.546a16.517,16.517,0,0,0-.705,4.7c.139,1.852,2.844,28.371,2.844,28.371s4.7,15.825,3.1,16.964S459.229,760.992,459.229,760.992Z" transform="translate(-130.84 -194.738)" fill="#6c63ff"/>
    <path id="Path_86" data-name="Path 86" d="M417.586,298.425a17.587,17.587,0,0,0-.48,6.455,26.542,26.542,0,0,1-28.224-.527A95.51,95.51,0,0,0,387.51,293S419.446,293.705,417.586,298.425Z" transform="translate(-123.706 -111.374)" opacity="0.1"/>
    <path id="Path_87" data-name="Path 87" d="M426.853,270.2a26.247,26.247,0,0,1-1.3,8.222,26.519,26.519,0,0,1-51.721-7.587V270.2a26.517,26.517,0,1,1,53.034,0Z" transform="translate(-120.628 -100.275)" fill="#cf6f80"/>
    <path id="Path_88" data-name="Path 88" d="M407.463,344.818c-10.229-3.976-23.388-17.111-20.1-23.249a13.734,13.734,0,0,0,1.279-4.929l14,11.508,8.664,7.106,6.587-16.77c.558,3.518,1.116,6.2,1.116,6.2s-1.953,2.736-3.1,2.883S422.141,350.483,407.463,344.818Z" transform="translate(-123.557 -116.694)" opacity="0.1"/>
    <path id="Path_89" data-name="Path 89" d="M393.647,336.69,381.953,533.143l-15.251,1L327.21,420.231l6.479-135.238,1.364-28.573,17.561,14.422,8.672,7.106,6.781-17.258,12.609,10.989Z" transform="translate(-73.527 -57.706)" fill="#6c63ff"/>
    <path id="Path_90" data-name="Path 90" d="M385.362,668.984a21.563,21.563,0,0,0-1.178,3.976,112.371,112.371,0,0,1-31.975-9.989l-.209-.108.07-1.248.039-.651,3.875-7.223S387.222,664.434,385.362,668.984Z" transform="translate(-115.715 -192.555)" opacity="0.1"/>
    <path id="Path_91" data-name="Path 91" d="M427.992,676.46a78.465,78.465,0,0,1-8.571.976c-.17-3.875-.271-6.541-.271-6.541l8.618-1.736Z" transform="translate(-130.827 -196.025)" opacity="0.1"/>
    <path id="Path_92" data-name="Path 92" d="M453.445,670.534c-5.51,1.434-14.019,3.046-21.637,2.038l-.109-4.913,20.784-4.169S453.058,667.326,453.445,670.534Z" transform="translate(-133.651 -194.749)" opacity="0.1"/>
    <path id="Path_93" data-name="Path 93" d="M402.481,595.048c-31.773,5.425-60.873-10.129-60.873-10.129l.279-5.27s.721-59.742-1.279-64.322-3.557-27.806-2.426-31.37-4.13-57.022-4.13-57.022l-.852-21.7L302,392.6l13.949-29.077a104.925,104.925,0,0,0,4.851-12.554C323.226,343.419,334.486,336,334.486,336s11.547-7.409,16.111-7.13,10.547-6.556,10.547-6.556c4.417-11.26,8.416-6.161,8.416-6.161a10.058,10.058,0,0,1-.217,1.666c-1.55,12.361,25.062,51.419,25.442,52.108h0l2.534,61.733,2.565,78.124Z" transform="translate(-104.463 -116.326)" opacity="0.1"/>
    <path id="Path_94" data-name="Path 94" d="M401.375,595.035c-31.773,5.425-60.881-10.129-60.881-10.129l.287-5.27s.721-59.742-1.286-64.322-3.557-27.806-2.418-31.37-4.13-57.022-4.13-57.022l-.86-21.7L300.87,392.538l13.949-29.077a106.565,106.565,0,0,0,4.851-12.554c2.418-7.548,13.686-14.965,13.686-14.965s11.547-7.409,16.1-7.13,10.547-6.556,10.547-6.556c4.425-11.26,9.3-6.161,9.3-6.161,0,.535-.465.775-.217,1.666,3.41,11.989,24.21,51.419,24.59,52.108h0l2.565,61.733,2.565,78.124Z" transform="translate(-104.209 -116.312)" fill="#fff"/>
    <path id="Path_95" data-name="Path 95" d="M411.01,372.15c-3.418-1.426-21.521-22.094-21.521-22.094v-4.7c-.659-1.55-4.572-.6-7.75.48L383.1,317.26l1.55,1.286C388.048,330.527,410.615,371.461,411.01,372.15Z" transform="translate(-122.408 -116.833)" opacity="0.1"/>
    <path id="Path_96" data-name="Path 96" d="M412.118,369.94c-3.425-1.426-21.528-22.094-21.528-22.094v-4.7c-.659-1.55-4.572-.6-7.75.48l1.372-28.573,1.55,1.286C389.164,328.317,411.738,369.258,412.118,369.94Z" transform="translate(-122.655 -116.336)" fill="#fff"/>
    <path id="Path_97" data-name="Path 97" d="M352.6,518.228c.426,0,22.094-2.278,22.094-2.278s13.12,25.8,12.26,32.076-2.418,11.834-7.7,10.85-28.4.775-28.4.775Z" transform="translate(-115.459 -161.547)" opacity="0.1"/>
    <path id="Path_98" data-name="Path 98" d="M351.494,516.018c.426,0,22.094-2.278,22.094-2.278s13.112,25.806,12.26,32.076-2.426,11.834-7.7,10.849-28.4.775-28.4.775Z" transform="translate(-115.209 -161.049)" fill="#fff"/>
    <path id="Path_99" data-name="Path 99" d="M369.629,501.05S389.515,511.737,389.941,515s-10.121-1.426-12.4-1.992a28.385,28.385,0,0,0-4.565-.713l-15.2.411Z" transform="translate(-117.016 -158.193)" fill="#cf6f80"/>
    <circle id="Ellipse_13" data-name="Ellipse 13" cx="2.092" cy="2.092" r="2.092" transform="translate(280.961 252.465)" opacity="0.1"/>
    <circle id="Ellipse_14" data-name="Ellipse 14" cx="2.092" cy="2.092" r="2.092" transform="translate(280.961 251.613)" fill="#3f3d56"/>
    <circle id="Ellipse_15" data-name="Ellipse 15" cx="2.092" cy="2.092" r="2.092" transform="translate(284.813 343.043)" opacity="0.1"/>
    <circle id="Ellipse_16" data-name="Ellipse 16" cx="2.092" cy="2.092" r="2.092" transform="translate(284.813 342.182)" fill="#3f3d56"/>
    <circle id="Ellipse_17" data-name="Ellipse 17" cx="2.092" cy="2.092" r="2.092" transform="translate(283.046 297.754)" opacity="0.1"/>
    <circle id="Ellipse_18" data-name="Ellipse 18" cx="2.092" cy="2.092" r="2.092" transform="translate(283.046 296.901)" fill="#3f3d56"/>
    <path id="Path_100" data-name="Path 100" d="M465.943,470.86s1.426,2.139,0,3.139.139,3.418.139,3.418-3.557,2.085-1.992,3.96.573,10.346.573,10.346l-4.278,7.083s.256,4.565.271,10.733c0,9.625-.566,23.156-3.7,29.325l.434,50.613s-14.98,5.471-27.519,3.805l-1.86-81.216s2.712-46.056,3.712-54.891a91.966,91.966,0,0,0,.713-13.833s-.426-13.825-1.86-20.242c0,0-1.55-27.8-1.7-35.493-.07-3.681.124-14.422.341-24.636.24-11.167.511-21.7.511-21.7L426.9,318.891s2.829-.287,3.681.852a8.158,8.158,0,0,0,1.24.953h0c4.882,3.3,22.133,13.453,22.133,13.453s9.547,3.8,11.834,9.238,3.875,9.3,4.983,10.849,1.713,8.834,1.713,8.834,3.286,13.407,5.851,15.677,4.441,16.716,4.441,16.716l-22.668,17.824s-1.992,29.65-2.418,30.8S465.943,470.86,465.943,470.86Z" transform="translate(-132.571 -117.193)" fill="#fff"/>
    <path id="Path_101" data-name="Path 101" d="M466.787,470.789s1.418,2.139,0,3.139.132,3.418.132,3.418-3.534,2.108-1.984,3.983.573,10.346.573,10.346l-4.278,7.083s.256,4.565.279,10.733c0,9.625-.566,23.156-3.7,29.324l.426,50.613s-15,5.471-27.527,3.805l-1.852-81.216s2.712-46.056,3.712-54.89a91.118,91.118,0,0,0,.705-13.833s-.426-13.825-1.852-20.242c0,0-1.55-27.8-1.713-35.493-.07-3.681.132-14.422.341-24.636.24-11.167.511-21.7.511-21.7L426.83,318.54s3.735,0,4.6,1.155a7.357,7.357,0,0,0,1.24.953h0c4.882,3.3,22.141,13.453,22.141,13.453s9.54,3.8,11.826,9.238,3.875,9.3,4.991,10.849,1.7,8.834,1.7,8.834,3.286,13.407,5.851,15.677,4.417,16.685,4.417,16.685l-22.668,17.824s-1.992,29.65-2.426,30.8S466.787,470.789,466.787,470.789Z" transform="translate(-132.555 -117.122)" fill="#fff"/>
    <path id="Path_102" data-name="Path 102" d="M439.89,348.3l2.046,5.967-10.772,10.849c.24-11.159.512-21.7.512-21.7L427.94,320.73s3.735,0,4.6,1.155a7.069,7.069,0,0,0,1.24.945h0l9.16,26.426Z" transform="translate(-132.805 -117.614)" opacity="0.1"/>
    <path id="Path_103" data-name="Path 103" d="M438.78,346.085l2.054,5.967L430.062,362.9c.24-11.167.511-21.7.511-21.7L426.83,318.52s3.743,0,4.6,1.155a7.755,7.755,0,0,0,1.24.953h0l9.168,26.418Z" transform="translate(-132.555 -117.117)" fill="#fff"/>
    <path id="Path_104" data-name="Path 104" d="M426.853,270.2a26.246,26.246,0,0,1-1.3,8.222,1.108,1.108,0,0,1-.837-.209c-.2-6.975-3.635-13.523-7.858-19.1a20.064,20.064,0,0,0-4.262-4.417,8.339,8.339,0,0,0-5.781-1.635c-2.325.318-4.378,1.9-6.727,2.1-3.1.256-5.874-1.891-8.951-2a8.8,8.8,0,0,0-6.579,3.053,18.048,18.048,0,0,0-3.526,6.541,38.266,38.266,0,0,0-1.968,11.283c-.039,2.17-.248,4.89-2.263,5.68a11.578,11.578,0,0,0-2.922-8.842l-.046-.047V270.2a26.517,26.517,0,1,1,53.034,0Z" transform="translate(-120.628 -100.275)" opacity="0.1"/>
    <path id="Path_105" data-name="Path 105" d="M408.971,223.066a18.258,18.258,0,0,0-12.88-1.007c-2.147.635-4.169,1.666-6.347,2.185-4.65,1.124-10.075-.093-14.066,2.627-2.216,1.55-3.549,4-4.789,6.378l-3.1,5.905c-1.689,3.232-3.394,6.517-4.1,10.074s-.279,7.54,1.976,10.4c1.643,2.085,4.069,3.394,5.851,5.355a11.625,11.625,0,0,1,2.914,8.835c2.023-.775,2.216-3.5,2.263-5.673a38.268,38.268,0,0,1,1.968-11.283,17.987,17.987,0,0,1,3.526-6.541,8.811,8.811,0,0,1,6.579-3.053c3.1.108,5.882,2.247,8.951,1.992,2.325-.194,4.386-1.782,6.727-2.092a8.308,8.308,0,0,1,5.781,1.635,19.854,19.854,0,0,1,4.254,4.417c4.231,5.572,7.664,12.1,7.866,19.1.876.643,2.139-.194,2.573-1.186a28.342,28.342,0,0,1,1-3.1c.635-1.093,1.852-1.674,2.805-2.5,2.418-2.085,3.022-5.6,2.929-8.78s-.713-6.417-.109-9.548c.364-1.922,1.186-3.72,1.635-5.618a7.346,7.346,0,0,0-.558-5.665c-1.55-2.4-4.813-2.875-7.657-3.1-3.232-.279-6.122.078-8.184-2.643a29.683,29.683,0,0,0-3.255-3.983C413.117,225.794,408.971,223.236,408.971,223.066Z" transform="translate(-118.276 -95.245)" fill="#512e4e"/>
    <path id="Path_106" data-name="Path 106" d="M310.423,430.1l-8.1-14.972-2.565,23.1s1.426,10.26,1.139,11.834,5.843,15.677,5.843,15.677,20.25,36.067,28.519,37.927L363.2,483.706,355.79,474.3s-2.565-1-3.208,0c0,0-13.755-23.667-15.181-25.38s-1.147-5.13-1.147-5.13-2.139-2.278-1.426-4.417-4.131-9.555-4.131-9.555l4.417-4.131Z" transform="translate(-103.959 -138.858)" opacity="0.1"/>
    <path id="Path_107" data-name="Path 107" d="M302.254,412.93l-2.139,1.7-2.565,23.1s1.426,10.26,1.139,11.834,5.851,15.677,5.851,15.677,20.242,36.067,28.511,37.927L361,483.211,353.58,473.8s-2.565-1-3.208,0c0,0-13.756-23.667-15.181-25.38s-1.139-5.13-1.139-5.13-2.139-2.278-1.426-4.417-4.138-9.555-4.138-9.555l4.417-4.131Z" transform="translate(-103.462 -138.363)" fill="#fff"/>
    <path id="Path_108" data-name="Path 108" d="M470.2,525.7c1.55,1.883.573,10.338.573,10.338l-4.278,7.083s.256,4.572.271,10.733L459.57,556.1a4.27,4.27,0,0,1-5.541-4.208l1.24-40,16.778,6.417c-1.426.992.14,3.425.14,3.425S468.63,523.819,470.2,525.7Z" transform="translate(-138.675 -160.635)" opacity="0.1"/>
    <path id="Path_109" data-name="Path 109" d="M471.3,524.594c1.55,1.883.573,10.346.573,10.346l-4.278,7.083s.256,4.565.279,10.733l-7.323,2.286a4.185,4.185,0,0,1-5.425-4.123l1.248-40.12,16.786,6.417c-1.434.992.132,3.418.132,3.418S469.753,522.719,471.3,524.594Z" transform="translate(-138.923 -160.388)" fill="#fff"/>
    <path id="Path_110" data-name="Path 110" d="M479.272,502.188s-1.139,7.277-3.991,7.7-4.131,11.772-6.975,11.369-.961-10.547-.86-12.516-3.1-10.121-.705-11.973,9.974,0,9.974,0Z" transform="translate(-141.336 -157.045)" fill="#cf6f80"/>
    <path id="Path_111" data-name="Path 111" d="M484.491,428.539l5.378-10.849s2.139,8.269,2.139,12.686S495,435.227,495,435.227s3.278,3.875,1.55,6.7-2.426,9.842-2.426,9.842.566,13.4-2,15.251-3.1,6.277-3.1,6.277-4.712,8.408-4.565,10.408-6.556,15.538-6.556,15.538,3.278-16.824-15.825-24.093c0,0-.147-5.711,1.279-7.277s3.65-2.278,2.255-10.191-.4-17.367-.4-19.266,4.278-13.74,4.278-13.74Z" transform="translate(-140.486 -139.434)" opacity="0.1"/>
    <path id="Path_112" data-name="Path 112" d="M487.286,415.69l4.7,1.55s2.147,8.269,2.147,12.686,2.991,4.851,2.991,4.851,3.278,3.875,1.55,6.7-2.418,9.842-2.418,9.842.566,13.4-2,15.251-3.139,6.277-3.139,6.277-4.7,8.408-4.557,10.408-6.564,15.538-6.564,15.538,3.286-16.824-15.825-24.094c0,0-.14-5.711,1.286-7.277s3.65-2.278,2.255-10.191-.4-17.367-.4-19.266,4.278-13.74,4.278-13.74Z" transform="translate(-140.957 -138.984)" fill="#fff"/>
    <path id="Path_113" data-name="Path 113" d="M360.15,777.825s7.486-4.7,12.4-1.286S360.15,777.825,360.15,777.825Z" transform="translate(-117.549 -219.909)" opacity="0.1"/>
    <path id="Path_114" data-name="Path 114" d="M435.21,759.778a15.154,15.154,0,0,1,12.19,5.138C452.964,770.906,435.21,759.778,435.21,759.778Z" transform="translate(-134.441 -216.408)" opacity="0.1"/>
    <g id="Group_55" data-name="Group 55" transform="translate(245.108 143.11)" opacity="0.1">
      <path id="Path_115" data-name="Path 115" d="M431.958,270.838c-.953.822-2.178,1.41-2.813,2.5a28.353,28.353,0,0,0-.992,3.1c-.434,1.007-1.7,1.829-2.573,1.193-.2-6.975-3.642-13.523-7.866-19.1a19.853,19.853,0,0,0-4.255-4.417,8.331,8.331,0,0,0-5.789-1.635c-2.325.318-4.371,1.9-6.719,2.092-3.1.264-5.882-1.883-8.959-1.992a8.772,8.772,0,0,0-6.572,3.061,17.948,17.948,0,0,0-3.526,6.533,38.312,38.312,0,0,0-1.968,11.283c-.047,2.162-.248,4.859-2.247,5.665a10.611,10.611,0,0,1,0,1.72c2.015-.775,2.216-3.5,2.263-5.673a38.268,38.268,0,0,1,1.968-11.283,17.986,17.986,0,0,1,3.526-6.541,8.8,8.8,0,0,1,6.572-3.053c3.1.109,5.89,2.247,8.959,1.992,2.325-.194,4.386-1.782,6.719-2.092a8.331,8.331,0,0,1,5.789,1.635,19.855,19.855,0,0,1,4.255,4.417c4.224,5.572,7.664,12.1,7.866,19.095.876.643,2.139-.194,2.573-1.186a30.062,30.062,0,0,1,.992-3.1c.635-1.093,1.86-1.674,2.813-2.5,2.418-2.085,3.022-5.6,2.929-8.78v-.294C434.756,266.243,434.02,269.056,431.958,270.838Z" transform="translate(-366.602 -245.357)"/>
      <path id="Path_116" data-name="Path 116" d="M371.534,272.074c-1.782-1.961-4.216-3.27-5.851-5.347a11.345,11.345,0,0,1-2.255-6.347,11.935,11.935,0,0,0,2.255,8.052c1.635,2.085,4.069,3.394,5.851,5.355a11.625,11.625,0,0,1,2.922,6.913,11.624,11.624,0,0,0-2.922-8.625Z" transform="translate(-363.385 -247.144)"/>
      <path id="Path_117" data-name="Path 117" d="M452.917,244.834c-.457,1.9-1.271,3.7-1.643,5.618a17.9,17.9,0,0,0-.24,3.875,15.042,15.042,0,0,1,.24-2.2c.372-1.922,1.186-3.72,1.643-5.618a9.534,9.534,0,0,0,.256-3.208A10.773,10.773,0,0,1,452.917,244.834Z" transform="translate(-383.105 -243.3)"/>
    </g>
    <ellipse id="Ellipse_19" data-name="Ellipse 19" cx="75.512" cy="12.128" rx="75.512" ry="12.128" transform="translate(27.456 565.169)" fill="#6c63ff" opacity="0.1"/>
    <rect id="Rectangle_38" data-name="Rectangle 38" width="4.859" height="109.401" transform="translate(100.543 344.964)" fill="#535461"/>
    <path id="Path_118" data-name="Path 118" d="M203.367,642.354l-.3,4.929-.434,6.975-.178,2.9-.426,6.975-.186,2.9L201.406,674l-4.9,79.1a13.407,13.407,0,0,1-13.376,12.57H157.668A13.4,13.4,0,0,1,144.3,753.1l-4.874-79.154-.434-6.975-.178-2.9-.434-6.975-.178-2.9-.434-6.975-.31-4.929a6.975,6.975,0,0,1,6.975-7.37h52.085a6.928,6.928,0,0,1,6.851,7.424Z" transform="translate(-67.432 -188.322)" fill="#3f3d56"/>
    <path id="Path_119" data-name="Path 119" d="M155.909,592.24l-.434,6.951H91.014l-.434-6.951Z" transform="translate(-20.276 -133.279)" fill="#9d9cb5"/>
    <path id="Path_120" data-name="Path 120" d="M155.475,604.95l-.426,6.959H91.8l-.434-6.959Z" transform="translate(-20.454 -136.139)" fill="#9d9cb5"/>
    <path id="Path_121" data-name="Path 121" d="M155.04,617.68l-.426,6.951H92.594l-.434-6.951Z" transform="translate(-20.632 -139.004)" fill="#9d9cb5"/>
    <path id="Path_122" data-name="Path 122" d="M110.134,550.4c28.294,20.474,40.1,52.5,40.1,52.5s-34.1-1.17-62.4-21.645S47.75,528.76,47.75,528.76,81.833,529.922,110.134,550.4Z" transform="translate(-47.247 -164.429)" fill="#6c63ff"/>
    <path id="Path_123" data-name="Path 123" d="M47.72,528.76s35.4,19.645,46.753,35.912,55.758,38.221,55.758,38.221" transform="translate(-47.24 -164.429)" fill="none" stroke="#535461" stroke-miterlimit="10" stroke-width="2"/>
    <path id="Path_124" data-name="Path 124" d="M141.959,500.039C157.357,511.176,163.8,528.6,163.8,528.6s-18.56-.636-33.967-11.772S108,488.26,108,488.26,126.553,488.9,141.959,500.039Z" transform="translate(-60.805 -155.315)" fill="#6c63ff"/>
    <path id="Path_125" data-name="Path 125" d="M108,488.26s19.266,10.694,25.442,19.544S163.8,528.6,163.8,528.6" transform="translate(-60.805 -155.315)" fill="none" stroke="#535461" stroke-miterlimit="10" stroke-width="2"/>
    <path id="Path_126" data-name="Path 126" d="M202.625,531.754c-17.692,19.444-21.435,44.855-21.435,44.855s24.946-6.122,42.623-25.574,21.435-44.855,21.435-44.855S220.318,512.31,202.625,531.754Z" transform="translate(-77.276 -159.348)" fill="#6c63ff"/>
    <path id="Path_127" data-name="Path 127" d="M245.264,506.19s-23.047,19.932-28.906,33.664-35.168,36.756-35.168,36.756" transform="translate(-77.276 -159.35)" fill="none" stroke="#535461" stroke-miterlimit="10" stroke-width="2"/>
    <path id="Path_128" data-name="Path 128" d="M996.4,470.341s-12.795-63.655-7.9-71.575c0,0,.178-7.362-.116-16.747v-1.077a23.836,23.836,0,0,0,2.689,1.55,21.761,21.761,0,0,0,14.647,1.891l-3.875-4.316a7.154,7.154,0,0,1-2.1-3.511,7.354,7.354,0,0,1,.837-3.8c3.681-9.3,3.875-20.994-3.216-28.092-5.99-5.967-7.447-13.67-13.949-19.118-4.751-3.991-7.362-9.842-9.826-15.5a87.157,87.157,0,0,1-5.378-14.67c-.93-3.96-1.3-8.06-2.581-11.927s-3.673-7.626-7.416-9.354a28,28,0,0,1-4.03-1.775c-1.6-1.077-2.557-2.829-3.712-4.363-5.866-7.75-25.512-3.185-34.811-.039a19.584,19.584,0,0,0-6.882,3.813l.085-.14c.07-.116.155-.232.233-.349a12.231,12.231,0,0,0-2.6,2.906c-1.356,2.147-1.922,4.65-3.053,6.975-1.364,2.751-8.951,10.431-5.688,13.523a2.75,2.75,0,0,0,.775.5,6.7,6.7,0,0,0,3.875.387l-.14.333a22.653,22.653,0,0,0-1.682,8.594,23.26,23.26,0,0,0,23.466,23.055,23.689,23.689,0,0,0,7.184-1.108c.054.295.1.589.155.883a2.724,2.724,0,0,0,.054.349h0l-.411.573a.786.786,0,0,0-.07-.1l-12.167,17c-1.86,1.31-12.57,9.059-13.174,14.871-.635,6.362-1.271,13.81-1.271,13.81l-.085,1.6a4.789,4.789,0,0,1-3.875,1.046c-3.8-.62-3.8,13.949-3.8,13.949s-2.526,2.325-4.262.31-6.324,4.812-6.324,4.812l-28.751,1.24h0l-.659.039-1.55-4.8a2.023,2.023,0,0,0-2.534-1.294,2.323,2.323,0,0,0-.349.147l-.109.062-.2.139-.1.093a1.543,1.543,0,0,0-.155.163l-.093.109-.047.046h0a1.953,1.953,0,0,0-.279,1.736l1.333,4.115c-5.549,1.116-11.221,4.262-6.595,12.926L822.47,405.9l7.587,6.37,39.167,8.083c-.519.93-.178,2.278,1.441,4.177,6.975,8.191,19.684,10.415,24.8,10.989a44.021,44.021,0,0,0,5.029,8.525l-.442,8.16s-12.95,62.2-15.321,65.352a36.851,36.851,0,0,0,3.278-4.317c-3.759,12.779-9.013,30.27-10.392,32.889-2.216,4.185-4.27,21.118-1.744,22.2.775.333,2.991.171,6.153-.07v1.4l-.14,53.155s.635,32.6-1.108,35.71-2.209,9.625-2.209,9.625-6.975,12.857-12.5,18.026a.836.836,0,0,1-.124.108l-.17-1.209s-6.641,8.385-21.335,7.912c0,0-8.842,5.75,4.27,6.06s29.859-.465,29.859-.465,11.694-17.824,21.49-15.5V696.6h3V682.874a12.3,12.3,0,0,0,5.339-8.083,9.826,9.826,0,0,0-3.5-9.09,5.813,5.813,0,0,1-1.914-4.247l-.109.093a8.209,8.209,0,0,0-.1-.837c-.86-6.975-1.937-21.366,1.868-32.014,5.216-14.6,6.8-34.935,3-47.04a108.173,108.173,0,0,1-3.015-11.787c-.093-.5-.178-.984-.256-1.434a61.087,61.087,0,0,1,7.7,1.55c8.8,2.426,28.038,2.875,44.467,2.743.039.449.085.922.139,1.395a50.763,50.763,0,0,0,1.829,9.7c2.061,6.2,3.007,33.532,3.007,33.532s2.658,22.474,1.209,31.618c-.775,5.084-1.55,10.191-1.992,15.321v.1s-4.355,12.4-7.54,19.134c-.078.17-.163.341-.24.5a10.075,10.075,0,0,0-2.488.55s-4.27,8.525-8.524,9.935-2.844,6.052,6.789,4.348,24.179-3.1,24.179-3.1l.628-8.7,2.96-3.7-.775,8.672,3.154-.62-.419-10.547,4.844-6.06s5.851-5.208-2.844-15.453v.225c-.093-.147-.178-.3-.279-.45v-.046c-1.441-2.232-2.588-6.393-.488-13.779,3.8-13.345,6.006-25.457,6.006-25.457s8.478-32.448-1.713-47.8h.449a25.818,25.818,0,0,1-2.193-6.82q-.077-.418-.139-.86c7.54-.434,14.941-1.8,20.978-4.743C1003.044,559.6,999.409,482.6,996.4,470.341Zm-95.731-53.7v.155l-1.55.077Zm-5.316.736a1.713,1.713,0,0,0-.7.333,6.881,6.881,0,0,0-1.217,3.185l-2.418-.543s-1.7-.364-4.138-.775l-1.155-1.162C888.907,418.148,892.209,417.76,895.355,417.373Z" transform="translate(-221.589 -104.778)" fill="url(#linear-gradient-2)"/>
    <path id="Path_129" data-name="Path 129" d="M972.242,743.08l-.922,10.981,3.092-.62-.465-11.911Z" transform="translate(-218.478 -166.875)" fill="#1d2366"/>
    <path id="Path_130" data-name="Path 130" d="M916.476,715.79c-3.728,10.617-2.674,24.946-1.837,31.905.31,2.573.6,4.138.6,4.138s-5.572,12.694-6.037,13.174-16.4,10.206-16.4,10.206l-11.136,6.5s-11.3-4.952-5.882-6.657a8.224,8.224,0,0,0,2.922-1.992c5.425-5.154,12.237-17.964,12.237-17.964s.465-6.5,2.17-9.594,1.085-35.586,1.085-35.586l.132-52.969v-6.9l21.2.155a47.946,47.946,0,0,0,.914,6.975,106.65,106.65,0,0,0,2.953,11.748C923.125,681.01,921.576,701.244,916.476,715.79Z" transform="translate(-233.256 -191.724)" fill="#ffb0b1"/>
    <path id="Path_131" data-name="Path 131" d="M915.236,780.193s-5.572,12.694-6.037,13.174-16.4,10.206-16.4,10.206l-11.136,6.5s-11.3-4.952-5.882-6.657a8.224,8.224,0,0,0,2.922-1.992l.48,3.387,3.712-.155,31.774-28.588C914.95,778.627,915.236,780.193,915.236,780.193Z" transform="translate(-233.256 -220.084)" opacity="0.1"/>
    <path id="Path_132" data-name="Path 132" d="M909.133,777l-31.952,28.782-3.712.155-.775-5.425s-6.494,8.354-20.924,7.889c0,0-8.664,5.727,4.177,6.037s29.239-.465,29.239-.465,11.454-17.824,21.04-15.5v13.461h2.945V798.35a12.236,12.236,0,0,0,5.223-8.06,9.873,9.873,0,0,0-3.418-9.052A5.835,5.835,0,0,1,909.133,777Z" transform="translate(-227.54 -220.293)" fill="#1d2366"/>
    <path id="Path_133" data-name="Path 133" d="M1015.193,732.175c-2.061,7.362-.938,11.508.473,13.732v.046a25.38,25.38,0,0,1,3.7,9.044l.124.7-14.538,21.2-7.889,3.1s-12.686-4.332-10.369-5.572c.581-.3,1.488-1.914,2.526-4.138,3.1-6.7,7.378-19.072,7.378-19.072v-.1c.449-5.107,1.162-10.2,1.953-15.267,1.418-9.121-1.186-31.51-1.186-31.51s-.93-27.224-2.945-33.416a51.1,51.1,0,0,1-1.806-9.64c-.419-3.875-.511-7.068-.511-7.068s8.354-11.624,23.667.93a16.843,16.843,0,0,1,3.2,3.472c10.578,15.05,2.061,48.2,2.061,48.2S1018.905,718.869,1015.193,732.175Z" transform="translate(-258.484 -191.557)" fill="#ffb0b1"/>
    <path id="Path_134" data-name="Path 134" d="M1019.524,783.694l-14.538,21.2-7.889,3.1s-12.686-4.332-10.369-5.572c.581-.3,1.488-1.914,2.526-4.138,5.37-.046,8.153,5.068,8.153,5.068l6.8-1.085s8.974-17.638,10.989-18.715.31-8.052.31-8.052V773.72c.054.062.1.132.163.194v.047a25.374,25.374,0,0,1,3.7,9.044Z" transform="translate(-258.49 -219.555)" opacity="0.1"/>
    <path id="Path_135" data-name="Path 135" d="M994.835,803.934s-3.875-7.114-11.3-4.487c0,0-4.177,8.525-8.354,9.9s-2.782,6.029,6.657,4.332,23.667-3.1,23.667-3.1l.62-8.672,9.594-12.221s5.719-5.185-2.79-15.391v1.775s1.7,6.975-.31,8.052-10.958,18.723-10.958,18.723Z" transform="translate(-255.453 -219.686)" fill="#1d2366"/>
    <path id="Path_136" data-name="Path 136" d="M921.358,650.185a47.988,47.988,0,0,0,.915,6.975c-8.726-1.279-16.824-.643-22.133-.225v-6.9Z" transform="translate(-239.068 -191.72)" opacity="0.1"/>
    <path id="Path_137" data-name="Path 137" d="M1021.5,660.536s-12.4.6-27.186.728c-.419-3.875-.512-7.068-.512-7.068s8.354-11.624,23.667.93a16.852,16.852,0,0,1,3.2,3.472,18.885,18.885,0,0,0,.829,1.937Z" transform="translate(-260.145 -191.555)" opacity="0.1"/>
    <path id="Path_138" data-name="Path 138" d="M998.343,619.722s-54.309,2.627-70.862-2.015-32.959-.62-35.431-1.7-.465-17.948,1.7-22.125,14.073-46.42,14.073-46.42l11.454-59.718,12.066-3.325.852-.24,21.025-5.8,15.406-4.255s30.634,119.6,28.007,128.419a22.582,22.582,0,0,0-.449,10.377A25.907,25.907,0,0,0,998.343,619.722Z" transform="translate(-236.991 -152.135)" fill="#1d2366"/>
    <path id="Path_139" data-name="Path 139" d="M874.342,439s-10.849,11.624-2.635,18.1,13.616.62,13.616.62Z" transform="translate(-231.978 -144.23)" fill="#c7daf5"/>
    <path id="Path_140" data-name="Path 140" d="M874.342,439s-10.849,11.624-2.635,18.1,13.616.62,13.616.62Z" transform="translate(-231.978 -144.23)" opacity="0.1"/>
    <path id="Path_141" data-name="Path 141" d="M982.37,334.227s-1.271,1.209-3.185,2.991c-2.728,2.55-6.765,6.277-10.346,9.4-4.96,4.316-9.052,7.486-7.587,4.781s1.186-7.416.457-11.826c-.054-.294-.1-.589-.155-.876a81.22,81.22,0,0,0-2.395-9.578s8.013-10.353,12.446-14.437c1.651-1.55,2.805-2.185,2.875-1.108.077,1.449,1.162,4.65,2.511,8.044.039.109.077.209.124.318.9,2.325,1.914,4.712,2.805,6.773C981.285,331.871,982.37,334.227,982.37,334.227Z" transform="translate(-252.35 -115.883)" fill="#ffb0b1"/>
    <path id="Path_142" data-name="Path 142" d="M977.116,321.939a23,23,0,0,1-15.406,17.638,80.651,80.651,0,0,0-2.549-10.454s15.088-19.49,15.321-15.546C974.535,315.073,975.713,318.389,977.116,321.939Z" transform="translate(-252.35 -115.886)" opacity="0.1"/>
    <path id="Path_143" data-name="Path 143" d="M952.085,353.2l1.953-2.751s1.294,7.889,6.052,4.41,4.991,26.186,4.991,26.186L959.974,457.4l-36.9-2.209,1.046-36.9,4.177-18.6,10.33-27.038,6.145-8.935Z" transform="translate(-244.228 -124.302)" opacity="0.1"/>
    <path id="Path_144" data-name="Path 144" d="M965.087,381.644l-4.65,69.041L959.949,458l-20.575-1.232-.775-.047-15.5-.93,1.046-36.9,4.177-18.6,10.33-27.038,6.145-8.935,7.316-10.563,1.953-2.743s1.294,7.889,6.052,4.41l.1-.07h0C964.87,352.4,965.087,381.644,965.087,381.644Z" transform="translate(-244.235 -124.429)" fill="#1d2366"/>
    <path id="Path_145" data-name="Path 145" d="M916.623,406.26s-1.852,3.875-5.572,3.247-3.712,13.949-3.712,13.949-2.472,2.325-4.177.31-6.2,4.8-6.2,4.8L868.8,429.8s12.531,5.727,10.075,23.055c0,0,42.545-2.635,43.94-6.657S916.623,406.26,916.623,406.26Z" transform="translate(-232.016 -136.862)" fill="#fff"/>
    <path id="Path_146" data-name="Path 146" d="M916.623,406.26s-1.852,3.875-5.572,3.247-3.712,13.949-3.712,13.949-2.472,2.325-4.177.31-6.2,4.8-6.2,4.8L868.8,429.8s12.531,5.727,10.075,23.055c0,0,42.545-2.635,43.94-6.657S916.623,406.26,916.623,406.26Z" transform="translate(-232.016 -136.862)" opacity="0.03"/>
    <path id="Path_147" data-name="Path 147" d="M777.66,389.76l7.424,6.339L846.2,408.94l-7.579-7.734Z" transform="translate(-174.896 -87.713)" fill="#fff"/>
    <path id="Path_148" data-name="Path 148" d="M947.813,355.046c-1.015,1.55-3.921,9.486-6.347,16.414-2.023,5.773-3.712,10.849-3.712,10.849s-3.945,25.682-5.96,30.324-.922,22.745-.922,22.745l-7.509,44.707s-3.4,23.055-8.656,36.826c-5.185,13.554-10.958,19.909-11.136,20.11,2.325-3.146,15-65.1,15-65.1l4.185-78.132s.612-7.424,1.232-13.771,13.174-15.011,13.174-15.011l12.1-17.212C950.478,349.427,949.665,352.264,947.813,355.046Z" transform="translate(-239.84 -123.706)" fill="#fff"/>
    <path id="Path_149" data-name="Path 149" d="M911.775,481.743s-17.824-.775-26.457-11.144,19.955-4.138,19.955-4.138l7.432,1.7Z" transform="translate(-235.367 -149.992)" fill="#ffb0b1"/>
    <path id="Path_150" data-name="Path 150" d="M1008.38,576.07a22.585,22.585,0,0,0-.449,10.377c-19.444,1.38-40.244-3.875-40.244-3.875-3.875,3.565-14.081,8.819-14.081,8.819l-5.564-68.971c-3.557-9.3-4.952-58.021-4.952-58.021s.318-2.55.775-6.37a.734.734,0,0,1,.039-.287c1.387-10.671,4.138-30.7,5.487-33.409,1.86-3.72-5.719-13.616-5.719-13.616l3.449-29.41.418-3.549c7.269-3.247,12.841-13.616,12.841-13.616l4.278-7.494h0c4.65-2.984,4.89,26.256,4.89,26.256l-4.65,69.041L980.3,447.69S1011.007,567.251,1008.38,576.07Z" transform="translate(-248.734 -125.649)" opacity="0.1"/>
    <path id="Path_151" data-name="Path 151" d="M1028.606,575.473c-21.2,10.524-59.719.775-59.719.775-3.875,3.565-14.081,8.819-14.081,8.819L949.234,516.1c-3.549-9.3-4.944-58.021-4.944-58.021s4.479-36.353,6.339-40.066c.543-1.085.279-2.7-.364-4.433a56.091,56.091,0,0,1-3.394-25.953l1.488-12.64.411-3.542c7.277-3.255,12.849-13.624,12.849-13.624l3.875-6.789,7.13-12.508L976,332.6l.574.519,4.379,3.968,4.65,3.875c6.068,5.115,16.553,14.12,21.962,19.63,4.758,4.851,6.262,23.722,6.7,37.927.287,9.354.116,16.685.116,16.685-4.8,7.9,7.75,71.3,7.75,71.3C1025.049,498.752,1028.606,575.473,1028.606,575.473Z" transform="translate(-249.004 -120.286)" fill="#fff"/>
    <path id="Path_152" data-name="Path 152" d="M981.651,364.623s-14.546,27.689-12.857,38.213,6.494,22.435,4.177,25.217a8.563,8.563,0,0,1-6.812,3.4c-2.325.155-8.525,4.487-8.525,4.952s-5.727.465-10.849,2.635a67.552,67.552,0,0,1-12.686,3.4s-14.724-.465-16.1.93-2.782,9.741.155,16.4,6.2,11.624,8.664,12.531,18.1-4.332,30.789-5.572,26.457-11.291,26.457-11.291,15.166-5.425,17.824-14.546-3.247-59.253-3.247-59.253S994.182,358.276,981.651,364.623Z" transform="translate(-242.735 -127.246)" opacity="0.03"/>
    <path id="Path_153" data-name="Path 153" d="M979.258,361.623s-14.546,27.7-12.841,38.213,6.494,22.435,4.169,25.225a8.524,8.524,0,0,1-6.8,3.4c-2.325.155-8.525,4.487-8.525,4.952s-5.727.465-10.849,2.627a68.216,68.216,0,0,1-12.686,3.4s-14.724-.465-16.088.93-2.79,9.749.155,16.4,6.2,11.624,8.664,12.531,18.1-4.332,30.789-5.564,26.457-11.3,26.457-11.3,15.158-5.425,17.785-14.538-3.247-59.261-3.247-59.261S991.789,355.284,979.258,361.623Z" transform="translate(-242.201 -126.571)" opacity="0.03"/>
    <path id="Path_154" data-name="Path 154" d="M981.066,362.826s-14.546,27.7-12.841,38.213,6.494,22.435,4.177,25.217a8.524,8.524,0,0,1-6.812,3.41c-2.325.155-8.525,4.487-8.525,4.944s-5.719.465-10.849,2.635a67.7,67.7,0,0,1-12.686,3.4s-14.724-.465-16.1.93-2.782,9.749.155,16.4,6.2,11.624,8.664,12.531,18.1-4.332,30.789-5.572S983.5,453.643,983.5,453.643s15.166-5.425,17.824-14.546-3.208-59.254-3.208-59.254S993.589,356.518,981.066,362.826Z" transform="translate(-242.607 -126.844)" fill="#fff"/>
    <path id="Path_155" data-name="Path 155" d="M997.141,458.8s-11.624-2.325-7.579,1.55,4.022,7.269,8.974,7.114S997.141,458.8,997.141,458.8Z" transform="translate(-258.999 -148.53)" opacity="0.1"/>
    <path id="Path_156" data-name="Path 156" d="M1024.541,566.58s-5.254,3.557,4.8,11.756S1024.541,566.58,1024.541,566.58Z" transform="translate(-266.755 -172.94)" opacity="0.1"/>
    <path id="Path_157" data-name="Path 157" d="M1011.934,604.31c0,.465-1.86,17.049,5.1,21.2S1011.934,604.31,1011.934,604.31Z" transform="translate(-264.176 -181.431)" opacity="0.1"/>
    <path id="Path_158" data-name="Path 158" d="M865.584,436.59c-5.611.194-17.731,1.906-11.446,13.632,5.556,10.377,14.895,3.441,20.149-1.821A19.8,19.8,0,0,0,865.584,436.59Z" transform="translate(-228.32 -143.687)" fill="#ffb0b1"/>
    <path id="Path_159" data-name="Path 159" d="M881.39,451Z" transform="translate(-234.849 -146.93)" fill="#ffb0b1"/>
    <path id="Path_160" data-name="Path 160" d="M880.74,451.64l.232-.24Z" transform="translate(-234.703 -147.02)" fill="#ffb0b1"/>
    <path id="Path_161" data-name="Path 161" d="M986.785,341.567c-5.952,4.069-10.943,7.5-11.919,8.215-2.666,1.976-7.75,13.577-11.028,19.5-2.612,4.766-11.1,5.99-14.3,6.293l.411-3.542c7.277-3.255,12.849-13.624,12.849-13.624l14.383-25.217,4.952,4.5Z" transform="translate(-250.185 -120.418)" opacity="0.1"/>
    <path id="Path_162" data-name="Path 162" d="M986.785,340.967c-5.952,4.069-10.943,7.5-11.919,8.222-2.666,1.968-7.75,13.57-11.028,19.49-2.612,4.766-11.1,5.99-14.3,6.293l.411-3.542c7.277-3.255,12.849-13.624,12.849-13.624l14.383-25.217,4.952,4.487S983.995,338.611,986.785,340.967Z" transform="translate(-250.185 -120.283)" fill="#dce7ff"/>
    <path id="Path_163" data-name="Path 163" d="M969.47,311.246a22.985,22.985,0,1,1-19.54-22.722A22.948,22.948,0,0,1,969.47,311.246Z" transform="translate(-244.324 -110.308)" fill="#ffb0b1"/>
    <path id="Path_164" data-name="Path 164" d="M1010.066,388.548a20.428,20.428,0,0,1-7.416-7.967c-1.294-2.557-2.155-5.51-4.363-7.323-1.992-1.627-4.65-2.023-7.13-2.751-8.153-2.41-14.988-9.85-15.244-18.343-.124-4,1.124-7.99.558-11.95a13.237,13.237,0,0,0-2.588-6.161,21.216,21.216,0,0,0-2.24-2.41c-1.085-1.023-2.224-2.015-3.216-3.1a12.033,12.033,0,0,1-1.627-2.209,10.625,10.625,0,0,1-.891-2.054c-1.55-4.743-.139-10.369-1.844-15.166l-.093-.263c-.643-1.7-1.953-3.41-3.774-3.542s-3.379,1.379-5.115,2.054c-3.635,1.41-7.556-.992-10.586-3.441s-6.448-5.246-10.3-4.7c-2.55.364-4.564,2.1-6.913,3a9.684,9.684,0,0,1-1.635.473,22.978,22.978,0,0,1,44.3,8.563,22.734,22.734,0,0,1-.5,4.8c.039.109.077.209.124.318.9,2.325,1.914,4.712,2.805,6.773l4.378,3.968,4.65,3.875c6.068,5.115,16.553,14.12,21.962,19.63C1008.129,355.481,1009.617,374.343,1010.066,388.548Z" transform="translate(-244.809 -110.308)" opacity="0.1"/>
    <path id="Path_165" data-name="Path 165" d="M925.563,282.937c1.108-2.255,1.658-4.782,2.984-6.92,1.945-3.1,5.339-5.084,8.827-6.285,9.106-3.139,28.348-7.7,34.1,0,1.131,1.55,2.069,3.27,3.635,4.34a26.973,26.973,0,0,0,3.945,1.775c3.666,1.72,6.006,5.471,7.254,9.3s1.62,7.936,2.534,11.88a87.373,87.373,0,0,0,5.27,14.624c2.41,5.626,4.968,11.462,9.617,15.437,6.347,5.425,7.75,13.1,13.639,19.056,6.974,7.068,6.75,18.731,3.154,27.992a7.683,7.683,0,0,0-.822,3.782,7.416,7.416,0,0,0,2.054,3.5l3.813,4.3a21.44,21.44,0,0,1-23.427-10.8c-1.294-2.557-2.154-5.5-4.371-7.323-1.984-1.627-4.65-2.015-7.122-2.743-8.153-2.418-14.988-9.865-15.243-18.359-.124-3.991,1.124-7.982.558-11.934a13.176,13.176,0,0,0-2.6-6.2c-2.131-2.782-5.347-4.65-7.083-7.75-2.937-5.184-.705-11.919-2.821-17.483-.651-1.7-1.953-3.41-3.774-3.542s-3.379,1.379-5.123,2.054c-3.627,1.41-7.548-.984-10.578-3.441s-6.448-5.246-10.307-4.7c-2.55.356-4.557,2.092-6.905,3-1.736.666-5.254,1.263-6.773-.2C916.79,293.345,924.222,285.7,925.563,282.937Z" transform="translate(-243.358 -105.186)" fill="#591d4b"/>
    <path id="Path_166" data-name="Path 166" d="M1004.243,374.549c-1.3-2.557-2.154-5.5-4.371-7.316-1.984-1.627-4.65-2.023-7.13-2.751-8.145-2.41-14.98-9.857-15.243-18.351-.124-3.991,1.124-7.99.566-11.942a13.252,13.252,0,0,0-2.6-6.161c-2.139-2.782-5.355-4.65-7.083-7.75-2.937-5.177-.705-11.911-2.829-17.483-.643-1.7-1.953-3.4-3.766-3.542s-3.387,1.387-5.123,2.061c-3.627,1.41-7.556-.992-10.578-3.441s-6.455-5.246-10.307-4.7c-2.55.364-4.565,2.1-6.9,3-1.736.666-5.262,1.271-6.781-.194-3.193-3.1,4.239-10.733,5.572-13.477,1.108-2.263,1.658-4.782,2.991-6.92.07-.116.147-.232.225-.349a12.306,12.306,0,0,0-2.549,2.9c-1.325,2.139-1.875,4.65-2.984,6.92-1.341,2.743-8.772,10.4-5.572,13.477,1.55,1.472,5.037.868,6.773.2,2.325-.907,4.355-2.643,6.9-3,3.875-.55,7.285,2.247,10.307,4.7s6.975,4.851,10.586,3.441c1.736-.674,3.255-2.193,5.115-2.054s3.1,1.837,3.774,3.542c2.116,5.564-.116,12.3,2.821,17.483,1.736,3.046,4.952,4.952,7.083,7.75a13.174,13.174,0,0,1,2.6,6.2c.566,3.952-.682,7.943-.558,11.934.256,8.525,7.091,15.941,15.243,18.359,2.457.728,5.138,1.116,7.122,2.743,2.224,1.821,3.1,4.766,4.371,7.323a21.44,21.44,0,0,0,23.427,10.8l-1.8-2.03A21.671,21.671,0,0,1,1004.243,374.549Z" transform="translate(-243.31 -107.375)" opacity="0.1"/>
    <path id="Path_167" data-name="Path 167" d="M956.959,355.623c-1.015,1.55-3.921,9.486-6.347,16.414-2.271-.883-4.332-6.517-4.332-6.517l12.1-17.22C959.625,350,958.811,352.834,956.959,355.623Z" transform="translate(-249.452 -123.819)" opacity="0.1"/>
    <path id="Path_168" data-name="Path 168" d="M957.559,355.026c-1.015,1.55-3.921,9.486-6.347,16.414-2.271-.876-4.332-6.517-4.332-6.517l12.1-17.212C960.225,349.407,959.411,352.244,957.559,355.026Z" transform="translate(-249.587 -123.686)" fill="#dce7ff"/>
    <path id="Path_169" data-name="Path 169" d="M867.864,452.415l-6.711-21.164a1.976,1.976,0,0,1,1.286-2.488h0a1.984,1.984,0,0,1,2.48,1.286l6.711,21.141-.666,4.425Z" transform="translate(-230.273 -141.906)" fill="#be8b87"/>
    <path id="Path_170" data-name="Path 170" d="M861.881,429.4h0a1.984,1.984,0,0,1,2.488,1.286l6.711,21.141-.5,3.317.488.512.666-4.425-6.75-21.141a1.984,1.984,0,0,0-2.48-1.286h0a1.984,1.984,0,0,0-1.031.775A2.7,2.7,0,0,1,861.881,429.4Z" transform="translate(-230.366 -141.915)" fill="#fff" opacity="0.1"/>
    <path id="Path_171" data-name="Path 171" d="M822.6,400.333l3.766-1.193-.55,3.627-.116.8-1.1-1.147Z" transform="translate(-185.01 -89.824)" fill="#efc8c4"/>
    <path id="Path_172" data-name="Path 172" d="M872.42,461.926a.775.775,0,0,1,.24-.2.341.341,0,0,1,.364,0,.955.955,0,0,1,.132.209.667.667,0,0,0,.48.318l-.116.775Z" transform="translate(-232.83 -149.332)" fill="#727a9c"/>
    <path id="Path_173" data-name="Path 173" d="M861.13,441.7s13.461-.078,10.292,5.649-8.122,6.417-8.122,6.417Z" transform="translate(-230.289 -144.837)" fill="#ffb0b1"/>
    <path id="Path_174" data-name="Path 174" d="M701.676,110.05h-.581a66.285,66.285,0,0,0-55.34,30.293,66.285,66.285,0,0,0-55.34-30.293h-.581a65.872,65.872,0,0,0-65.244,65.833c0,21.552,9.439,52.132,27.844,77.295,35.067,47.947,93.321,89.9,93.321,89.9s58.254-41.941,93.313-89.9c18.413-25.163,27.844-55.743,27.844-77.295A65.872,65.872,0,0,0,701.676,110.05Zm-8.315,146.816a13.058,13.058,0,0,1-12.144-8.385H667.392a4.371,4.371,0,0,1-4.115-2.976l-4.247-12.795-13.438,46.955a4.347,4.347,0,0,1-4.169,3.139h-.271a4.293,4.293,0,0,1-4.03-3.6l-13.849-83.293L613.152,245.2a4.317,4.317,0,0,1-4.193,3.278H589.485a4.332,4.332,0,1,1,0-8.656H605.55l14.337-66.267a4.348,4.348,0,0,1,8.525.356l14.143,84.967L654.6,216.871a4.262,4.262,0,0,1,4.053-3.1h.085a4.324,4.324,0,0,1,4.107,2.976l7.68,23.1h10.524A12.988,12.988,0,1,1,693.384,256.9Z" transform="translate(-154.555 -70.203)" fill="#6c63ff"/>
  </g>
</svg>
