<svg xmlns="http://www.w3.org/2000/svg" width="35.154" height="35.154" viewBox="0 0 35.154 35.154">
  <g id="networking" transform="translate(0 0)">
    <path id="Path_6966" data-name="Path 6966" d="M32.7,14.577a15.408,15.408,0,0,0-2.344-5.616A3.013,3.013,0,0,0,26.193,4.8a15.411,15.411,0,0,0-5.616-2.344,3.062,3.062,0,0,0-6,0A15.408,15.408,0,0,0,8.961,4.8,3.013,3.013,0,0,0,4.8,8.961a15.411,15.411,0,0,0-2.344,5.616,3.062,3.062,0,0,0,0,6A15.408,15.408,0,0,0,4.8,26.193a3.013,3.013,0,0,0,4.165,4.165A15.411,15.411,0,0,0,14.577,32.7a3.062,3.062,0,0,0,6,0,15.413,15.413,0,0,0,5.616-2.344,3.013,3.013,0,0,0,4.165-4.165A15.411,15.411,0,0,0,32.7,20.578a3.062,3.062,0,0,0,0-6Zm-2.052,5.769a13.355,13.355,0,0,1-1.886,4.532,3.039,3.039,0,0,0-3.887,3.887,13.355,13.355,0,0,1-4.532,1.886,3.069,3.069,0,0,0-5.537,0,13.355,13.355,0,0,1-4.532-1.886A3.039,3.039,0,0,0,6.39,24.877,13.355,13.355,0,0,1,4.5,20.346a3.069,3.069,0,0,0,0-5.537A13.353,13.353,0,0,1,6.39,10.277,3.039,3.039,0,0,0,10.277,6.39,13.355,13.355,0,0,1,14.809,4.5a3.069,3.069,0,0,0,5.537,0A13.355,13.355,0,0,1,24.877,6.39a3.038,3.038,0,0,0,3.887,3.887,13.359,13.359,0,0,1,1.886,4.532,3.069,3.069,0,0,0,0,5.537Zm0,0"/>
    <path id="Path_6967" data-name="Path 6967" d="M235.561,151c-.359,0-1.028.93-1.507,2.678h3.014C236.589,151.93,235.921,151,235.561,151Zm0,0" transform="translate(-217.984 -140.632)"/>
    <path id="Path_6968" data-name="Path 6968" d="M126.15,222.472A21.858,21.858,0,0,1,126.3,220h-4.927a8.289,8.289,0,0,0,0,4.944H126.3A21.858,21.858,0,0,1,126.15,222.472Zm0,0" transform="translate(-112.692 -204.895)"/>
    <path id="Path_6969" data-name="Path 6969" d="M313.746,220a19.817,19.817,0,0,1,0,4.944h4.927a8.289,8.289,0,0,0,0-4.944Zm0,0" transform="translate(-292.204 -204.895)"/>
    <path id="Path_6970" data-name="Path 6970" d="M235.561,324.678c.359,0,1.028-.93,1.507-2.678h-3.014C234.533,323.747,235.2,324.678,235.561,324.678Zm0,0" transform="translate(-217.984 -299.891)"/>
    <path id="Path_6971" data-name="Path 6971" d="M230.12,222.472a19.422,19.422,0,0,0-.162-2.472h-3.8a18.907,18.907,0,0,0,0,4.944h3.8A19.422,19.422,0,0,0,230.12,222.472Zm0,0" transform="translate(-210.483 -204.895)"/>
    <path id="Path_6972" data-name="Path 6972" d="M259.618,125.738h4.418A9.237,9.237,0,0,0,256,121C257.782,121,258.991,123.038,259.618,125.738Zm0,0" transform="translate(-238.423 -112.692)"/>
    <path id="Path_6973" data-name="Path 6973" d="M143.383,322h-4.418A9.237,9.237,0,0,0,147,326.738C145.219,326.738,144.009,324.7,143.383,322Zm0,0" transform="translate(-129.424 -299.891)"/>
    <path id="Path_6974" data-name="Path 6974" d="M256,326.738A9.237,9.237,0,0,0,264.036,322h-4.418C258.991,324.7,257.782,326.738,256,326.738Zm0,0" transform="translate(-238.423 -299.891)"/>
    <path id="Path_6975" data-name="Path 6975" d="M147,121a9.237,9.237,0,0,0-8.036,4.738h4.418C144.009,123.038,145.218,121,147,121Zm0,0" transform="translate(-129.423 -112.692)"/>
  </g>
</svg>
