<svg xmlns="http://www.w3.org/2000/svg" width="32" height="32" viewBox="0 0 32 32">
  <g id="user_1_" data-name="user (1)" transform="translate(-0.271 0)">
    <g id="Group_946" data-name="Group 946" transform="translate(0.271 0)">
      <path id="Path_6965" data-name="Path 6965" d="M16.3,0A15.978,15.978,0,0,0,5.2,27.516c.009.009.013.023.022.031.093.089.193.164.287.25.257.228.514.465.785.685.145.114.3.228.445.333.256.191.512.381.779.557.182.114.369.228.555.342.247.148.493.3.747.434.216.114.437.212.656.316.24.114.477.228.722.331s.493.183.742.272.464.171.7.244c.27.081.546.144.821.211.229.056.45.12.686.166.315.063.635.1.955.146.2.027.391.066.591.086.523.051,1.051.08,1.584.08s1.061-.029,1.584-.08c.2-.019.393-.058.591-.086.32-.043.64-.083.955-.146.229-.046.457-.114.686-.166.274-.067.551-.13.821-.211.239-.073.47-.162.7-.244s.5-.171.742-.272.482-.218.722-.331c.219-.1.44-.2.656-.316.255-.136.5-.285.747-.434.186-.114.374-.218.555-.342.267-.176.523-.366.779-.557.149-.114.3-.217.445-.333.271-.217.528-.447.785-.685.094-.086.194-.161.287-.25.009-.008.013-.022.022-.031A15.984,15.984,0,0,0,16.3,0ZM27.441,23.928a11.475,11.475,0,0,0-6.119-7.869,6.854,6.854,0,1,0-10.1,0A11.475,11.475,0,0,0,5.1,23.928a13.714,13.714,0,1,1,22.341,0Z" transform="translate(-0.271 0)"/>
    </g>
  </g>
</svg>
